<?xml version="1.0" encoding="UTF-8" standalone="no"?>
<!DOCTYPE svg PUBLIC "-//W3C//DTD SVG 1.1//EN"
 "http://www.w3.org/Graphics/SVG/1.1/DTD/svg11.dtd">
<!-- Generated by graphviz version 2.44.1 (20200629.0846)
 -->
<!-- Title: dev_Lcd_WriteChar Pages: 1 -->
<svg width="688pt" height="28pt"
 viewBox="0.00 0.00 688.00 28.00" xmlns="http://www.w3.org/2000/svg" xmlns:xlink="http://www.w3.org/1999/xlink">
<g id="graph0" class="graph" transform="scale(1 1) rotate(0) translate(4 24)">
<title>dev_Lcd_WriteChar</title>
<polygon fill="white" stroke="transparent" points="-4,4 -4,-24 684,-24 684,4 -4,4"/>
<!-- Node1 -->
<g id="node1" class="node">
<title>Node1</title>
<g id="a_node1"><a xlink:title="Writes a character on the LCD screen.">
<polygon fill="#bfbfbf" stroke="black" points="579,-0.5 579,-19.5 680,-19.5 680,-0.5 579,-0.5"/>
<text text-anchor="middle" x="629.5" y="-7.5" font-family="Helvetica,sans-Serif" font-size="10.00">dev_Lcd_WriteChar</text>
</a>
</g>
</g>
<!-- Node2 -->
<g id="node2" class="node">
<title>Node2</title>
<g id="a_node2"><a xlink:href="a00440.html#gac07de05132918ca2db8cf4492819eca6" target="_top" xlink:title="Writes a complete string on the LCD screen.">
<polygon fill="white" stroke="black" points="437,-0.5 437,-19.5 543,-19.5 543,-0.5 437,-0.5"/>
<text text-anchor="middle" x="490" y="-7.5" font-family="Helvetica,sans-Serif" font-size="10.00">dev_Lcd_WriteString</text>
</a>
</g>
</g>
<!-- Node1&#45;&gt;Node2 -->
<g id="edge1" class="edge">
<title>Node1&#45;&gt;Node2</title>
<path fill="none" stroke="midnightblue" d="M568.69,-10C560.25,-10 551.63,-10 543.35,-10"/>
<polygon fill="midnightblue" stroke="midnightblue" points="568.86,-13.5 578.86,-10 568.86,-6.5 568.86,-13.5"/>
</g>
<!-- Node3 -->
<g id="node3" class="node">
<title>Node3</title>
<g id="a_node3"><a xlink:href="a00440.html#ga24701a4c3ae760e7e0b9c70d93370ff3" target="_top" xlink:title="Sets the cursor position to the given x&#45; and y&#45;coordinates and writes the given string on the lcd scr...">
<polygon fill="white" stroke="black" points="283,-0.5 283,-19.5 401,-19.5 401,-0.5 283,-0.5"/>
<text text-anchor="middle" x="342" y="-7.5" font-family="Helvetica,sans-Serif" font-size="10.00">dev_Lcd_WriteStringXY</text>
</a>
</g>
</g>
<!-- Node2&#45;&gt;Node3 -->
<g id="edge2" class="edge">
<title>Node2&#45;&gt;Node3</title>
<path fill="none" stroke="midnightblue" d="M426.54,-10C418.11,-10 409.48,-10 401.13,-10"/>
<polygon fill="midnightblue" stroke="midnightblue" points="426.7,-13.5 436.7,-10 426.7,-6.5 426.7,-13.5"/>
</g>
<!-- Node4 -->
<g id="node4" class="node">
<title>Node4</title>
<g id="a_node4"><a xlink:href="a00435.html#gab93992748ced72fdc2989d0b0f369e54" target="_top" xlink:title="Initializes the LC display.">
<polygon fill="white" stroke="black" points="155,-0.5 155,-19.5 247,-19.5 247,-0.5 155,-0.5"/>
<text text-anchor="middle" x="201" y="-7.5" font-family="Helvetica,sans-Serif" font-size="10.00">appLCD_Initialize</text>
</a>
</g>
</g>
<!-- Node3&#45;&gt;Node4 -->
<g id="edge3" class="edge">
<title>Node3&#45;&gt;Node4</title>
<path fill="none" stroke="midnightblue" d="M272.74,-10C264.08,-10 255.4,-10 247.23,-10"/>
<polygon fill="midnightblue" stroke="midnightblue" points="272.86,-13.5 282.86,-10 272.86,-6.5 272.86,-13.5"/>
</g>
<!-- Node5 -->
<g id="node5" class="node">
<title>Node5</title>
<g id="a_node5"><a xlink:href="a00530.html#ga2be64f5f0b9a2c0c6713f5a69d793e05" target="_top" xlink:title="Initializes the user&#45;defined tasks.">
<polygon fill="white" stroke="black" points="0,-0.5 0,-19.5 119,-19.5 119,-0.5 0,-0.5"/>
<text text-anchor="middle" x="59.5" y="-7.5" font-family="Helvetica,sans-Serif" font-size="10.00">sysUserTasks_Initialize</text>
</a>
</g>
</g>
<!-- Node4&#45;&gt;Node5 -->
<g id="edge4" class="edge">
<title>Node4&#45;&gt;Node5</title>
<path fill="none" stroke="midnightblue" d="M144.63,-10C136.22,-10 127.51,-10 119.04,-10"/>
<polygon fill="midnightblue" stroke="midnightblue" points="144.71,-13.5 154.71,-10 144.71,-6.5 144.71,-13.5"/>
</g>
</g>
</svg>
