<?xml version="1.0" encoding="UTF-8" standalone="no"?>
<!DOCTYPE svg PUBLIC "-//W3C//DTD SVG 1.1//EN"
 "http://www.w3.org/Graphics/SVG/1.1/DTD/svg11.dtd">
<!-- Generated by graphviz version 2.44.1 (20200629.0846)
 -->
<!-- Title: appPowerSupply_Initialize Pages: 1 -->
<svg width="1045pt" height="293pt"
 viewBox="0.00 0.00 1045.00 293.00" xmlns="http://www.w3.org/2000/svg" xmlns:xlink="http://www.w3.org/1999/xlink">
<g id="graph0" class="graph" transform="scale(1 1) rotate(0) translate(4 289)">
<title>appPowerSupply_Initialize</title>
<polygon fill="white" stroke="transparent" points="-4,4 -4,-289 1041,-289 1041,4 -4,4"/>
<!-- Node1 -->
<g id="node1" class="node">
<title>Node1</title>
<g id="a_node1"><a xlink:title="Calls the application layer power controller initialization.">
<polygon fill="#bfbfbf" stroke="black" points="0,-117.5 0,-136.5 130,-136.5 130,-117.5 0,-117.5"/>
<text text-anchor="middle" x="65" y="-124.5" font-family="Helvetica,sans-Serif" font-size="10.00">appPowerSupply_Initialize</text>
</a>
</g>
</g>
<!-- Node2 -->
<g id="node2" class="node">
<title>Node2</title>
<g id="a_node2"><a xlink:href="a00464.html#ga0b4cabdb02c8c9ea94ea1dfa39de3764" target="_top" xlink:title="This function initializes the control system feedback loop objects.">
<polygon fill="white" stroke="black" points="169.5,-186 169.5,-216 305.5,-216 305.5,-186 169.5,-186"/>
<text text-anchor="start" x="177.5" y="-204" font-family="Helvetica,sans-Serif" font-size="10.00">appPowerSupply_Controller</text>
<text text-anchor="middle" x="237.5" y="-193" font-family="Helvetica,sans-Serif" font-size="10.00">Initialize</text>
</a>
</g>
</g>
<!-- Node1&#45;&gt;Node2 -->
<g id="edge1" class="edge">
<title>Node1&#45;&gt;Node2</title>
<path fill="none" stroke="midnightblue" d="M84.14,-136.67C103.95,-147.05 136.77,-163.71 166,-176 171.09,-178.14 176.43,-180.26 181.8,-182.3"/>
<polygon fill="midnightblue" stroke="midnightblue" points="180.86,-185.69 191.45,-185.89 183.3,-179.13 180.86,-185.69"/>
</g>
<!-- Node7 -->
<g id="node7" class="node">
<title>Node7</title>
<g id="a_node7"><a xlink:href="a00464.html#gad0f6ff4894bf23722884c60bbcdcacd0" target="_top" xlink:title="This function initializes the buck converter device driver instance.">
<polygon fill="white" stroke="black" points="170,-137 170,-167 305,-167 305,-137 170,-137"/>
<text text-anchor="start" x="178" y="-155" font-family="Helvetica,sans-Serif" font-size="10.00">appPowerSupply_Converter</text>
<text text-anchor="middle" x="237.5" y="-144" font-family="Helvetica,sans-Serif" font-size="10.00">ObjectInitialize</text>
</a>
</g>
</g>
<!-- Node1&#45;&gt;Node7 -->
<g id="edge7" class="edge">
<title>Node1&#45;&gt;Node7</title>
<path fill="none" stroke="midnightblue" d="M130.46,-136.45C140.05,-137.86 150.01,-139.32 159.82,-140.76"/>
<polygon fill="midnightblue" stroke="midnightblue" points="159.56,-144.26 169.96,-142.24 160.58,-137.33 159.56,-144.26"/>
</g>
<!-- Node8 -->
<g id="node8" class="node">
<title>Node8</title>
<g id="a_node8"><a xlink:href="a00464.html#ga0b26acfec74d1804384b4ba1a3cffab4" target="_top" xlink:title="This function is used to load peripheral configuration templates from the power controller device dri...">
<polygon fill="white" stroke="black" points="166,-88 166,-118 309,-118 309,-88 166,-88"/>
<text text-anchor="start" x="174" y="-106" font-family="Helvetica,sans-Serif" font-size="10.00">appPowerSupply_Peripherals</text>
<text text-anchor="middle" x="237.5" y="-95" font-family="Helvetica,sans-Serif" font-size="10.00">Initialize</text>
</a>
</g>
</g>
<!-- Node1&#45;&gt;Node8 -->
<g id="edge8" class="edge">
<title>Node1&#45;&gt;Node8</title>
<path fill="none" stroke="midnightblue" d="M130.46,-117.93C138.8,-116.75 147.42,-115.54 155.97,-114.34"/>
<polygon fill="midnightblue" stroke="midnightblue" points="156.55,-117.79 165.96,-112.93 155.57,-110.86 156.55,-117.79"/>
</g>
<!-- Node22 -->
<g id="node22" class="node">
<title>Node22</title>
<g id="a_node22"><a xlink:href="a00468.html#ga86289c82938655142075e84ac90aa603" target="_top" xlink:title="This function starts the buck converter.">
<polygon fill="white" stroke="black" points="176,-38.5 176,-57.5 299,-57.5 299,-38.5 176,-38.5"/>
<text text-anchor="middle" x="237.5" y="-45.5" font-family="Helvetica,sans-Serif" font-size="10.00">drv_BuckConverter_Start</text>
</a>
</g>
</g>
<!-- Node1&#45;&gt;Node22 -->
<g id="edge24" class="edge">
<title>Node1&#45;&gt;Node22</title>
<path fill="none" stroke="midnightblue" d="M84.66,-117.49C104.64,-107.39 137.34,-91.11 166,-78 178.19,-72.42 191.71,-66.59 203.62,-61.56"/>
<polygon fill="midnightblue" stroke="midnightblue" points="205.31,-64.65 213.18,-57.55 202.61,-58.19 205.31,-64.65"/>
</g>
<!-- Node3 -->
<g id="node3" class="node">
<title>Node3</title>
<g id="a_node3"><a xlink:href="a00503.html#ga62d45a18f3dd47fa691fbb463f90e051" target="_top" xlink:title="Initializes controller coefficient arrays and normalization factors.">
<polygon fill="white" stroke="black" points="371.5,-265.5 371.5,-284.5 455.5,-284.5 455.5,-265.5 371.5,-265.5"/>
<text text-anchor="middle" x="413.5" y="-272.5" font-family="Helvetica,sans-Serif" font-size="10.00">v_loop_Initialize</text>
</a>
</g>
</g>
<!-- Node2&#45;&gt;Node3 -->
<g id="edge2" class="edge">
<title>Node2&#45;&gt;Node3</title>
<path fill="none" stroke="midnightblue" d="M264.07,-216.08C285.23,-228.09 316.35,-244.7 345,-256 350.95,-258.34 357.29,-260.53 363.62,-262.51"/>
<polygon fill="midnightblue" stroke="midnightblue" points="362.92,-265.96 373.5,-265.47 364.93,-259.25 362.92,-265.96"/>
</g>
<!-- Node4 -->
<g id="node4" class="node">
<title>Node4</title>
<g id="a_node4"><a xlink:href="a00503.html#gabb35e824b8586b680f54d59975ada3c7" target="_top" xlink:title="Prototype of the Assembly routine &#39;_v_loop_Reset&#39; clearing the NPNZ16b controller output and error hi...">
<polygon fill="white" stroke="black" points="550,-264.5 550,-283.5 624,-283.5 624,-264.5 550,-264.5"/>
<text text-anchor="middle" x="587" y="-271.5" font-family="Helvetica,sans-Serif" font-size="10.00">v_loop_Reset</text>
</a>
</g>
</g>
<!-- Node2&#45;&gt;Node4 -->
<g id="edge5" class="edge">
<title>Node2&#45;&gt;Node4</title>
<path fill="none" stroke="midnightblue" d="M305.65,-186.45C367.34,-174.63 453.39,-162.54 482,-180 511.86,-198.22 491.64,-227 518,-250 524.44,-255.62 532.28,-259.95 540.32,-263.28"/>
<polygon fill="midnightblue" stroke="midnightblue" points="539.18,-266.59 549.78,-266.74 541.59,-260.02 539.18,-266.59"/>
</g>
<!-- Node5 -->
<g id="node5" class="node">
<title>Node5</title>
<g id="a_node5"><a xlink:href="a00503.html#ga3cdf7d86ab440015768706f04bd588e9" target="_top" xlink:title="Prototype of the Assembly routine &#39;_v_loop_Precharge&#39; loading user&#45;defined values into the NPNZ16b co...">
<polygon fill="white" stroke="black" points="367,-227.5 367,-246.5 460,-246.5 460,-227.5 367,-227.5"/>
<text text-anchor="middle" x="413.5" y="-234.5" font-family="Helvetica,sans-Serif" font-size="10.00">v_loop_Precharge</text>
</a>
</g>
</g>
<!-- Node2&#45;&gt;Node5 -->
<g id="edge4" class="edge">
<title>Node2&#45;&gt;Node5</title>
<path fill="none" stroke="midnightblue" d="M305.77,-214.92C322.72,-218.42 340.72,-222.15 357.02,-225.52"/>
<polygon fill="midnightblue" stroke="midnightblue" points="356.42,-228.97 366.92,-227.57 357.84,-222.12 356.42,-228.97"/>
</g>
<!-- Node6 -->
<g id="node6" class="node">
<title>Node6</title>
<g id="a_node6"><a xlink:href="a00503.html#gab8180f1cb973d694be5caffaec3ce940" target="_top" xlink:title="Prototype of the Assembly feedback control loop routine helping to call the v_loop controller from C&#45;...">
<polygon fill="white" stroke="black" points="373.5,-189.5 373.5,-208.5 453.5,-208.5 453.5,-189.5 373.5,-189.5"/>
<text text-anchor="middle" x="413.5" y="-196.5" font-family="Helvetica,sans-Serif" font-size="10.00">v_loop_Update</text>
</a>
</g>
</g>
<!-- Node2&#45;&gt;Node6 -->
<g id="edge6" class="edge">
<title>Node2&#45;&gt;Node6</title>
<path fill="none" stroke="midnightblue" d="M305.77,-200.23C324.88,-200.01 345.33,-199.77 363.16,-199.57"/>
<polygon fill="midnightblue" stroke="midnightblue" points="363.36,-203.07 373.32,-199.45 363.28,-196.07 363.36,-203.07"/>
</g>
<!-- Node3&#45;&gt;Node4 -->
<g id="edge3" class="edge">
<title>Node3&#45;&gt;Node4</title>
<path fill="none" stroke="midnightblue" d="M455.58,-274.76C480.95,-274.61 513.56,-274.42 539.82,-274.27"/>
<polygon fill="midnightblue" stroke="midnightblue" points="539.93,-277.77 549.91,-274.21 539.89,-270.77 539.93,-277.77"/>
</g>
<!-- Node9 -->
<g id="node9" class="node">
<title>Node9</title>
<g id="a_node9"><a xlink:href="a00468.html#gaf3c64772d6dfd473d6924fb8893bd180" target="_top" xlink:title="This function initializes all peripheral modules and their instances used by the power controller.">
<polygon fill="white" stroke="black" points="345,-104.5 345,-123.5 482,-123.5 482,-104.5 345,-104.5"/>
<text text-anchor="middle" x="413.5" y="-111.5" font-family="Helvetica,sans-Serif" font-size="10.00">drv_BuckConverter_Initialize</text>
</a>
</g>
</g>
<!-- Node8&#45;&gt;Node9 -->
<g id="edge9" class="edge">
<title>Node8&#45;&gt;Node9</title>
<path fill="none" stroke="midnightblue" d="M309.02,-107.46C317.55,-108 326.3,-108.55 334.93,-109.1"/>
<polygon fill="midnightblue" stroke="midnightblue" points="334.78,-112.59 344.98,-109.73 335.22,-105.61 334.78,-112.59"/>
</g>
<!-- Node10 -->
<g id="node10" class="node">
<title>Node10</title>
<g id="a_node10"><a xlink:href="a00491.html#gac2bfd6c3ccd9ec11b8e91322ea9354d2" target="_top" xlink:title="This function initializes the settings for the ADC channel.">
<polygon fill="white" stroke="black" points="520,-133.5 520,-152.5 654,-152.5 654,-133.5 520,-133.5"/>
<text text-anchor="middle" x="587" y="-140.5" font-family="Helvetica,sans-Serif" font-size="10.00">buckADC_ChannelInitialize</text>
</a>
</g>
</g>
<!-- Node9&#45;&gt;Node10 -->
<g id="edge10" class="edge">
<title>Node9&#45;&gt;Node10</title>
<path fill="none" stroke="midnightblue" d="M471.13,-123.58C486.72,-126.21 503.78,-129.1 519.86,-131.82"/>
<polygon fill="midnightblue" stroke="midnightblue" points="519.28,-135.27 529.72,-133.48 520.44,-128.37 519.28,-135.27"/>
</g>
<!-- Node11 -->
<g id="node11" class="node">
<title>Node11</title>
<g id="a_node11"><a xlink:href="a00491.html#ga44f537d9ad5dcb0e744480802cfbf170" target="_top" xlink:title="This fucntion initializes the buck by resetting all its registers to default.">
<polygon fill="white" stroke="black" points="522,-95.5 522,-114.5 652,-114.5 652,-95.5 522,-95.5"/>
<text text-anchor="middle" x="587" y="-102.5" font-family="Helvetica,sans-Serif" font-size="10.00">buckADC_ModuleInitialize</text>
</a>
</g>
</g>
<!-- Node9&#45;&gt;Node11 -->
<g id="edge11" class="edge">
<title>Node9&#45;&gt;Node11</title>
<path fill="none" stroke="midnightblue" d="M482.28,-110.44C491.94,-109.94 501.92,-109.41 511.69,-108.9"/>
<polygon fill="midnightblue" stroke="midnightblue" points="511.98,-112.39 521.79,-108.37 511.62,-105.4 511.98,-112.39"/>
</g>
<!-- Node12 -->
<g id="node12" class="node">
<title>Node12</title>
<g id="a_node12"><a xlink:href="a00491.html#gac7e5924475733c189b2318844ae01844" target="_top" xlink:title="This function initializes the buck input pins.">
<polygon fill="white" stroke="black" points="536,-171.5 536,-190.5 638,-190.5 638,-171.5 536,-171.5"/>
<text text-anchor="middle" x="587" y="-178.5" font-family="Helvetica,sans-Serif" font-size="10.00">buckGPIO_Initialize</text>
</a>
</g>
</g>
<!-- Node9&#45;&gt;Node12 -->
<g id="edge12" class="edge">
<title>Node9&#45;&gt;Node12</title>
<path fill="none" stroke="midnightblue" d="M434.14,-123.57C459.34,-135.77 501.74,-156 518,-162 524.34,-164.34 531.09,-166.55 537.8,-168.58"/>
<polygon fill="midnightblue" stroke="midnightblue" points="536.95,-171.98 547.53,-171.42 538.91,-165.26 536.95,-171.98"/>
</g>
<!-- Node16 -->
<g id="node16" class="node">
<title>Node16</title>
<g id="a_node16"><a xlink:href="a00491.html#ga45a54def97cc67eb8d36e22a3867d95f" target="_top" xlink:title="This function initializes the output pins for the PWM output and the default buck PWM settings.">
<polygon fill="white" stroke="black" points="518,-57.5 518,-76.5 656,-76.5 656,-57.5 518,-57.5"/>
<text text-anchor="middle" x="587" y="-64.5" font-family="Helvetica,sans-Serif" font-size="10.00">buckPWM_ChannelInitialize</text>
</a>
</g>
</g>
<!-- Node9&#45;&gt;Node16 -->
<g id="edge17" class="edge">
<title>Node9&#45;&gt;Node16</title>
<path fill="none" stroke="midnightblue" d="M449.21,-104.49C475.73,-97.22 512.51,-87.14 541.25,-79.26"/>
<polygon fill="midnightblue" stroke="midnightblue" points="542.33,-82.6 551.05,-76.58 540.48,-75.85 542.33,-82.6"/>
</g>
<!-- Node19 -->
<g id="node19" class="node">
<title>Node19</title>
<g id="a_node19"><a xlink:href="a00491.html#ga6d12fd9e2f1d4f01ec6db21454693863" target="_top" xlink:title="Initializes the buck PWM module by resetting its registers to default.">
<polygon fill="white" stroke="black" points="520,-221.5 520,-240.5 654,-240.5 654,-221.5 520,-221.5"/>
<text text-anchor="middle" x="587" y="-228.5" font-family="Helvetica,sans-Serif" font-size="10.00">buckPWM_ModuleInitialize</text>
</a>
</g>
</g>
<!-- Node9&#45;&gt;Node19 -->
<g id="edge21" class="edge">
<title>Node9&#45;&gt;Node19</title>
<path fill="none" stroke="midnightblue" d="M442.06,-123.64C455.12,-129.12 470.37,-136.92 482,-147 503.51,-165.66 496.24,-181.64 518,-200 526.34,-207.04 536.54,-212.8 546.48,-217.36"/>
<polygon fill="midnightblue" stroke="midnightblue" points="545.29,-220.66 555.86,-221.37 548.04,-214.22 545.29,-220.66"/>
</g>
<!-- Node13 -->
<g id="node13" class="node">
<title>Node13</title>
<g id="a_node13"><a xlink:href="a00491.html#ga7f1d554e08d756b8677b572216908a3a" target="_top" xlink:title="This function clears the selected general purpose input/output pin.">
<polygon fill="white" stroke="black" points="726.5,-145.5 726.5,-164.5 815.5,-164.5 815.5,-145.5 726.5,-145.5"/>
<text text-anchor="middle" x="771" y="-152.5" font-family="Helvetica,sans-Serif" font-size="10.00">buckGPIO_Clear</text>
</a>
</g>
</g>
<!-- Node12&#45;&gt;Node13 -->
<g id="edge13" class="edge">
<title>Node12&#45;&gt;Node13</title>
<path fill="none" stroke="midnightblue" d="M638.21,-173.83C662.54,-170.35 691.76,-166.18 716.5,-162.64"/>
<polygon fill="midnightblue" stroke="midnightblue" points="717.04,-166.1 726.44,-161.22 716.05,-159.17 717.04,-166.1"/>
</g>
<!-- Node15 -->
<g id="node15" class="node">
<title>Node15</title>
<g id="a_node15"><a xlink:href="a00491.html#ga3d3f91c0e40884874e7df3a67fff23f3" target="_top" xlink:title="This function sets the pin as input or output.">
<polygon fill="white" stroke="black" points="705.5,-183.5 705.5,-202.5 836.5,-202.5 836.5,-183.5 705.5,-183.5"/>
<text text-anchor="middle" x="771" y="-190.5" font-family="Helvetica,sans-Serif" font-size="10.00">buckGPIO_PrivateInitialize</text>
</a>
</g>
</g>
<!-- Node12&#45;&gt;Node15 -->
<g id="edge15" class="edge">
<title>Node12&#45;&gt;Node15</title>
<path fill="none" stroke="midnightblue" d="M638.21,-184.31C655.78,-185.47 675.91,-186.8 695.06,-188.06"/>
<polygon fill="midnightblue" stroke="midnightblue" points="695.06,-191.57 705.27,-188.73 695.52,-184.58 695.06,-191.57"/>
</g>
<!-- Node14 -->
<g id="node14" class="node">
<title>Node14</title>
<g id="a_node14"><a xlink:href="a00368.html#ga4d67af688d8f7f911d79107974e11e6b" target="_top" xlink:title="Gets pointer to GPIO Instance SFR set.">
<polygon fill="white" stroke="black" points="886,-145.5 886,-164.5 1037,-164.5 1037,-145.5 886,-145.5"/>
<text text-anchor="middle" x="961.5" y="-152.5" font-family="Helvetica,sans-Serif" font-size="10.00">p33c_GpioInstance_GetHandle</text>
</a>
</g>
</g>
<!-- Node13&#45;&gt;Node14 -->
<g id="edge14" class="edge">
<title>Node13&#45;&gt;Node14</title>
<path fill="none" stroke="midnightblue" d="M815.72,-155C833.66,-155 855.08,-155 875.86,-155"/>
<polygon fill="midnightblue" stroke="midnightblue" points="876,-158.5 886,-155 876,-151.5 876,-158.5"/>
</g>
<!-- Node15&#45;&gt;Node14 -->
<g id="edge16" class="edge">
<title>Node15&#45;&gt;Node14</title>
<path fill="none" stroke="midnightblue" d="M819.57,-183.41C845,-178.28 876.5,-171.93 903.27,-166.54"/>
<polygon fill="midnightblue" stroke="midnightblue" points="904.16,-169.93 913.28,-164.52 902.78,-163.07 904.16,-169.93"/>
</g>
<!-- Node16&#45;&gt;Node14 -->
<g id="edge18" class="edge">
<title>Node16&#45;&gt;Node14</title>
<path fill="none" stroke="midnightblue" d="M656.21,-63.08C710.12,-62.07 786.59,-65.32 850,-86 885.15,-97.47 920.47,-122.42 941.41,-138.97"/>
<polygon fill="midnightblue" stroke="midnightblue" points="939.23,-141.71 949.2,-145.27 943.63,-136.26 939.23,-141.71"/>
</g>
<!-- Node17 -->
<g id="node17" class="node">
<title>Node17</title>
<g id="a_node17"><a xlink:href="a00372.html#gab66f225bac6b132d1418a4c808e3babb" target="_top" xlink:title="Disposes a given PWM generator by resetting all its registers to default.">
<polygon fill="white" stroke="black" points="701,-96 701,-126 841,-126 841,-96 701,-96"/>
<text text-anchor="start" x="709" y="-114" font-family="Helvetica,sans-Serif" font-size="10.00">p33c_PwmGenerator_Config</text>
<text text-anchor="middle" x="771" y="-103" font-family="Helvetica,sans-Serif" font-size="10.00">Write</text>
</a>
</g>
</g>
<!-- Node16&#45;&gt;Node17 -->
<g id="edge19" class="edge">
<title>Node16&#45;&gt;Node17</title>
<path fill="none" stroke="midnightblue" d="M627.49,-76.55C648.07,-81.52 673.9,-87.77 697.89,-93.57"/>
<polygon fill="midnightblue" stroke="midnightblue" points="697.14,-96.99 707.68,-95.93 698.79,-90.18 697.14,-96.99"/>
</g>
<!-- Node18 -->
<g id="node18" class="node">
<title>Node18</title>
<g id="a_node18"><a xlink:href="a00372.html#ga55e525c7ac54a365ab6dad558ec17f0b" target="_top" xlink:title="Returns the PWM generator index.">
<polygon fill="white" stroke="black" points="692,-19.5 692,-38.5 850,-38.5 850,-19.5 692,-19.5"/>
<text text-anchor="middle" x="771" y="-26.5" font-family="Helvetica,sans-Serif" font-size="10.00">p33c_PwmGenerator_GetHandle</text>
</a>
</g>
</g>
<!-- Node16&#45;&gt;Node18 -->
<g id="edge20" class="edge">
<title>Node16&#45;&gt;Node18</title>
<path fill="none" stroke="midnightblue" d="M633.93,-57.41C658.38,-52.31 688.63,-45.99 714.4,-40.61"/>
<polygon fill="midnightblue" stroke="midnightblue" points="715.33,-43.99 724.4,-38.52 713.9,-37.14 715.33,-43.99"/>
</g>
<!-- Node20 -->
<g id="node20" class="node">
<title>Node20</title>
<g id="a_node20"><a xlink:href="a00372.html#ga8075fd40f867be8f42bb806622bd91bd" target="_top" xlink:title="Writes a user&#45;defined configuration to the PWM base module registers.">
<polygon fill="white" stroke="black" points="695,-221.5 695,-240.5 847,-240.5 847,-221.5 695,-221.5"/>
<text text-anchor="middle" x="771" y="-228.5" font-family="Helvetica,sans-Serif" font-size="10.00">p33c_PwmModule_ConfigWrite</text>
</a>
</g>
</g>
<!-- Node19&#45;&gt;Node20 -->
<g id="edge22" class="edge">
<title>Node19&#45;&gt;Node20</title>
<path fill="none" stroke="midnightblue" d="M654.22,-231C664.13,-231 674.46,-231 684.7,-231"/>
<polygon fill="midnightblue" stroke="midnightblue" points="684.89,-234.5 694.89,-231 684.89,-227.5 684.89,-234.5"/>
</g>
<!-- Node21 -->
<g id="node21" class="node">
<title>Node21</title>
<g id="a_node21"><a xlink:href="a00372.html#ga3ed5f08051a70f5cb426b8254119845f" target="_top" xlink:title="Gets pointer to PWM module SFR set.">
<polygon fill="white" stroke="black" points="697.5,-259.5 697.5,-278.5 844.5,-278.5 844.5,-259.5 697.5,-259.5"/>
<text text-anchor="middle" x="771" y="-266.5" font-family="Helvetica,sans-Serif" font-size="10.00">p33c_PwmModule_GetHandle</text>
</a>
</g>
</g>
<!-- Node19&#45;&gt;Node21 -->
<g id="edge23" class="edge">
<title>Node19&#45;&gt;Node21</title>
<path fill="none" stroke="midnightblue" d="M633.93,-240.59C658.38,-245.69 688.63,-252.01 714.4,-257.39"/>
<polygon fill="midnightblue" stroke="midnightblue" points="713.9,-260.86 724.4,-259.48 715.33,-254.01 713.9,-260.86"/>
</g>
<!-- Node23 -->
<g id="node23" class="node">
<title>Node23</title>
<g id="a_node23"><a xlink:href="a00491.html#gab089e35bcd5d68072aa53298ee276959" target="_top" xlink:title="This function enables the ADC module and starts the ADC cores analog inputs for the required input si...">
<polygon fill="white" stroke="black" points="371.5,-0.5 371.5,-19.5 455.5,-19.5 455.5,-0.5 371.5,-0.5"/>
<text text-anchor="middle" x="413.5" y="-7.5" font-family="Helvetica,sans-Serif" font-size="10.00">buckADC_Start</text>
</a>
</g>
</g>
<!-- Node22&#45;&gt;Node23 -->
<g id="edge25" class="edge">
<title>Node22&#45;&gt;Node23</title>
<path fill="none" stroke="midnightblue" d="M282.41,-38.41C306.39,-33.17 336.21,-26.66 361.25,-21.19"/>
<polygon fill="midnightblue" stroke="midnightblue" points="362.28,-24.55 371.3,-19 360.78,-17.71 362.28,-24.55"/>
</g>
<!-- Node24 -->
<g id="node24" class="node">
<title>Node24</title>
<g id="a_node24"><a xlink:href="a00491.html#gac63073d04bc35c0cce5df47ea0d33165" target="_top" xlink:title="This function enables the buck PWM operation.">
<polygon fill="white" stroke="black" points="369,-38.5 369,-57.5 458,-57.5 458,-38.5 369,-38.5"/>
<text text-anchor="middle" x="413.5" y="-45.5" font-family="Helvetica,sans-Serif" font-size="10.00">buckPWM_Start</text>
</a>
</g>
</g>
<!-- Node22&#45;&gt;Node24 -->
<g id="edge26" class="edge">
<title>Node22&#45;&gt;Node24</title>
<path fill="none" stroke="midnightblue" d="M299.36,-48C318.71,-48 339.96,-48 358.77,-48"/>
<polygon fill="midnightblue" stroke="midnightblue" points="358.94,-51.5 368.94,-48 358.94,-44.5 358.94,-51.5"/>
</g>
<!-- Node24&#45;&gt;Node18 -->
<g id="edge27" class="edge">
<title>Node24&#45;&gt;Node18</title>
<path fill="none" stroke="midnightblue" d="M458.09,-45.67C513.49,-42.71 610.46,-37.53 681.61,-33.72"/>
<polygon fill="midnightblue" stroke="midnightblue" points="682.12,-37.2 691.92,-33.17 681.74,-30.21 682.12,-37.2"/>
</g>
</g>
</svg>
