<?xml version="1.0" encoding="UTF-8" standalone="no"?>
<!DOCTYPE svg PUBLIC "-//W3C//DTD SVG 1.1//EN"
 "http://www.w3.org/Graphics/SVG/1.1/DTD/svg11.dtd">
<!-- Generated by graphviz version 2.44.1 (20200629.0846)
 -->
<!-- Title: appPowerSupply_Initialize Pages: 1 -->
<svg width="1045pt" height="278pt"
 viewBox="0.00 0.00 1045.00 278.00" xmlns="http://www.w3.org/2000/svg" xmlns:xlink="http://www.w3.org/1999/xlink">
<g id="graph0" class="graph" transform="scale(1 1) rotate(0) translate(4 274)">
<title>appPowerSupply_Initialize</title>
<polygon fill="white" stroke="transparent" points="-4,4 -4,-274 1041,-274 1041,4 -4,4"/>
<!-- Node1 -->
<g id="node1" class="node">
<title>Node1</title>
<g id="a_node1"><a xlink:title="Calls the application layer power controller initialization.">
<polygon fill="#bfbfbf" stroke="black" points="0,-127.5 0,-146.5 130,-146.5 130,-127.5 0,-127.5"/>
<text text-anchor="middle" x="65" y="-134.5" font-family="Helvetica,sans-Serif" font-size="10.00">appPowerSupply_Initialize</text>
</a>
</g>
</g>
<!-- Node2 -->
<g id="node2" class="node">
<title>Node2</title>
<g id="a_node2"><a xlink:href="a00468.html#ga0b4cabdb02c8c9ea94ea1dfa39de3764" target="_top" xlink:title="This function initializes the control system feedback loop objects.">
<polygon fill="white" stroke="black" points="169.5,-196 169.5,-226 305.5,-226 305.5,-196 169.5,-196"/>
<text text-anchor="start" x="177.5" y="-214" font-family="Helvetica,sans-Serif" font-size="10.00">appPowerSupply_Controller</text>
<text text-anchor="middle" x="237.5" y="-203" font-family="Helvetica,sans-Serif" font-size="10.00">Initialize</text>
</a>
</g>
</g>
<!-- Node1&#45;&gt;Node2 -->
<g id="edge1" class="edge">
<title>Node1&#45;&gt;Node2</title>
<path fill="none" stroke="midnightblue" d="M84.14,-146.67C103.95,-157.05 136.77,-173.71 166,-186 171.09,-188.14 176.43,-190.26 181.8,-192.3"/>
<polygon fill="midnightblue" stroke="midnightblue" points="180.86,-195.69 191.45,-195.89 183.3,-189.13 180.86,-195.69"/>
</g>
<!-- Node4 -->
<g id="node4" class="node">
<title>Node4</title>
<g id="a_node4"><a xlink:href="a00468.html#gad0f6ff4894bf23722884c60bbcdcacd0" target="_top" xlink:title="This function initializes the buck converter device driver instance.">
<polygon fill="white" stroke="black" points="170,-147 170,-177 305,-177 305,-147 170,-147"/>
<text text-anchor="start" x="178" y="-165" font-family="Helvetica,sans-Serif" font-size="10.00">appPowerSupply_Converter</text>
<text text-anchor="middle" x="237.5" y="-154" font-family="Helvetica,sans-Serif" font-size="10.00">ObjectInitialize</text>
</a>
</g>
</g>
<!-- Node1&#45;&gt;Node4 -->
<g id="edge3" class="edge">
<title>Node1&#45;&gt;Node4</title>
<path fill="none" stroke="midnightblue" d="M130.46,-146.45C140.05,-147.86 150.01,-149.32 159.82,-150.76"/>
<polygon fill="midnightblue" stroke="midnightblue" points="159.56,-154.26 169.96,-152.24 160.58,-147.33 159.56,-154.26"/>
</g>
<!-- Node5 -->
<g id="node5" class="node">
<title>Node5</title>
<g id="a_node5"><a xlink:href="a00468.html#ga0b26acfec74d1804384b4ba1a3cffab4" target="_top" xlink:title="This function is used to load peripheral configuration templates from the power controller device dri...">
<polygon fill="white" stroke="black" points="166,-98 166,-128 309,-128 309,-98 166,-98"/>
<text text-anchor="start" x="174" y="-116" font-family="Helvetica,sans-Serif" font-size="10.00">appPowerSupply_Peripherals</text>
<text text-anchor="middle" x="237.5" y="-105" font-family="Helvetica,sans-Serif" font-size="10.00">Initialize</text>
</a>
</g>
</g>
<!-- Node1&#45;&gt;Node5 -->
<g id="edge4" class="edge">
<title>Node1&#45;&gt;Node5</title>
<path fill="none" stroke="midnightblue" d="M130.46,-127.93C138.8,-126.75 147.42,-125.54 155.97,-124.34"/>
<polygon fill="midnightblue" stroke="midnightblue" points="156.55,-127.79 165.96,-122.93 155.57,-120.86 156.55,-127.79"/>
</g>
<!-- Node19 -->
<g id="node19" class="node">
<title>Node19</title>
<g id="a_node19"><a xlink:href="a00472.html#ga86289c82938655142075e84ac90aa603" target="_top" xlink:title="This function starts the buck converter.">
<polygon fill="white" stroke="black" points="176,-47.5 176,-66.5 299,-66.5 299,-47.5 176,-47.5"/>
<text text-anchor="middle" x="237.5" y="-54.5" font-family="Helvetica,sans-Serif" font-size="10.00">drv_BuckConverter_Start</text>
</a>
</g>
</g>
<!-- Node1&#45;&gt;Node19 -->
<g id="edge20" class="edge">
<title>Node1&#45;&gt;Node19</title>
<path fill="none" stroke="midnightblue" d="M85.06,-127.37C105.1,-117.31 137.6,-101.2 166,-88 178.63,-82.13 192.65,-75.91 204.84,-70.59"/>
<polygon fill="midnightblue" stroke="midnightblue" points="206.39,-73.73 214.17,-66.54 203.6,-67.31 206.39,-73.73"/>
</g>
<!-- Node3 -->
<g id="node3" class="node">
<title>Node3</title>
<g id="a_node3"><a xlink:href="a00508.html#ga62d45a18f3dd47fa691fbb463f90e051" target="_top" xlink:title="Initializes controller coefficient arrays and normalization.">
<polygon fill="white" stroke="black" points="371.5,-201.5 371.5,-220.5 455.5,-220.5 455.5,-201.5 371.5,-201.5"/>
<text text-anchor="middle" x="413.5" y="-208.5" font-family="Helvetica,sans-Serif" font-size="10.00">v_loop_Initialize</text>
</a>
</g>
</g>
<!-- Node2&#45;&gt;Node3 -->
<g id="edge2" class="edge">
<title>Node2&#45;&gt;Node3</title>
<path fill="none" stroke="midnightblue" d="M305.77,-211C324.07,-211 343.59,-211 360.87,-211"/>
<polygon fill="midnightblue" stroke="midnightblue" points="361.31,-214.5 371.31,-211 361.31,-207.5 361.31,-214.5"/>
</g>
<!-- Node6 -->
<g id="node6" class="node">
<title>Node6</title>
<g id="a_node6"><a xlink:href="a00472.html#gaf3c64772d6dfd473d6924fb8893bd180" target="_top" xlink:title="This function initializes all peripheral modules and their instances used by the power controller.">
<polygon fill="white" stroke="black" points="345,-126.5 345,-145.5 482,-145.5 482,-126.5 345,-126.5"/>
<text text-anchor="middle" x="413.5" y="-133.5" font-family="Helvetica,sans-Serif" font-size="10.00">drv_BuckConverter_Initialize</text>
</a>
</g>
</g>
<!-- Node5&#45;&gt;Node6 -->
<g id="edge5" class="edge">
<title>Node5&#45;&gt;Node6</title>
<path fill="none" stroke="midnightblue" d="M309.02,-122.32C317.55,-123.45 326.3,-124.61 334.93,-125.75"/>
<polygon fill="midnightblue" stroke="midnightblue" points="334.6,-129.23 344.98,-127.07 335.52,-122.29 334.6,-129.23"/>
</g>
<!-- Node7 -->
<g id="node7" class="node">
<title>Node7</title>
<g id="a_node7"><a xlink:href="a00496.html#gac2bfd6c3ccd9ec11b8e91322ea9354d2" target="_top" xlink:title="This function initializes the settings for the ADC channel.">
<polygon fill="white" stroke="black" points="520,-183.5 520,-202.5 654,-202.5 654,-183.5 520,-183.5"/>
<text text-anchor="middle" x="587" y="-190.5" font-family="Helvetica,sans-Serif" font-size="10.00">buckADC_ChannelInitialize</text>
</a>
</g>
</g>
<!-- Node6&#45;&gt;Node7 -->
<g id="edge6" class="edge">
<title>Node6&#45;&gt;Node7</title>
<path fill="none" stroke="midnightblue" d="M438.99,-145.61C459.84,-153.65 490.68,-165.18 518,-174 525.14,-176.3 532.75,-178.59 540.2,-180.74"/>
<polygon fill="midnightblue" stroke="midnightblue" points="539.27,-184.11 549.84,-183.47 541.18,-177.38 539.27,-184.11"/>
</g>
<!-- Node8 -->
<g id="node8" class="node">
<title>Node8</title>
<g id="a_node8"><a xlink:href="a00496.html#ga44f537d9ad5dcb0e744480802cfbf170" target="_top" xlink:title="This fucntion initializes the buck by resetting all its registers to default.">
<polygon fill="white" stroke="black" points="522,-145.5 522,-164.5 652,-164.5 652,-145.5 522,-145.5"/>
<text text-anchor="middle" x="587" y="-152.5" font-family="Helvetica,sans-Serif" font-size="10.00">buckADC_ModuleInitialize</text>
</a>
</g>
</g>
<!-- Node6&#45;&gt;Node8 -->
<g id="edge7" class="edge">
<title>Node6&#45;&gt;Node8</title>
<path fill="none" stroke="midnightblue" d="M482.28,-143.51C491.94,-144.58 501.92,-145.68 511.69,-146.77"/>
<polygon fill="midnightblue" stroke="midnightblue" points="511.46,-150.26 521.79,-147.89 512.23,-143.31 511.46,-150.26"/>
</g>
<!-- Node9 -->
<g id="node9" class="node">
<title>Node9</title>
<g id="a_node9"><a xlink:href="a00496.html#gac7e5924475733c189b2318844ae01844" target="_top" xlink:title="This function initializes the buck input pins.">
<polygon fill="white" stroke="black" points="536,-107.5 536,-126.5 638,-126.5 638,-107.5 536,-107.5"/>
<text text-anchor="middle" x="587" y="-114.5" font-family="Helvetica,sans-Serif" font-size="10.00">buckGPIO_Initialize</text>
</a>
</g>
</g>
<!-- Node6&#45;&gt;Node9 -->
<g id="edge8" class="edge">
<title>Node6&#45;&gt;Node9</title>
<path fill="none" stroke="midnightblue" d="M482.28,-128.49C496.67,-126.9 511.77,-125.22 525.85,-123.66"/>
<polygon fill="midnightblue" stroke="midnightblue" points="526.35,-127.13 535.9,-122.55 525.58,-120.17 526.35,-127.13"/>
</g>
<!-- Node13 -->
<g id="node13" class="node">
<title>Node13</title>
<g id="a_node13"><a xlink:href="a00496.html#ga45a54def97cc67eb8d36e22a3867d95f" target="_top" xlink:title="This function initializes the output pins for the PWM output and the default buck PWM settings.">
<polygon fill="white" stroke="black" points="518,-53.5 518,-72.5 656,-72.5 656,-53.5 518,-53.5"/>
<text text-anchor="middle" x="587" y="-60.5" font-family="Helvetica,sans-Serif" font-size="10.00">buckPWM_ChannelInitialize</text>
</a>
</g>
</g>
<!-- Node6&#45;&gt;Node13 -->
<g id="edge13" class="edge">
<title>Node6&#45;&gt;Node13</title>
<path fill="none" stroke="midnightblue" d="M436.92,-126.46C466.84,-113.72 519.98,-91.1 554.08,-76.59"/>
<polygon fill="midnightblue" stroke="midnightblue" points="555.74,-79.68 563.57,-72.55 553,-73.24 555.74,-79.68"/>
</g>
<!-- Node16 -->
<g id="node16" class="node">
<title>Node16</title>
<g id="a_node16"><a xlink:href="a00496.html#ga6d12fd9e2f1d4f01ec6db21454693863" target="_top" xlink:title="Initializes the buck PWM module by resetting its registers to default.">
<polygon fill="white" stroke="black" points="520,-221.5 520,-240.5 654,-240.5 654,-221.5 520,-221.5"/>
<text text-anchor="middle" x="587" y="-228.5" font-family="Helvetica,sans-Serif" font-size="10.00">buckPWM_ModuleInitialize</text>
</a>
</g>
</g>
<!-- Node6&#45;&gt;Node16 -->
<g id="edge17" class="edge">
<title>Node6&#45;&gt;Node16</title>
<path fill="none" stroke="midnightblue" d="M424.83,-145.61C442.57,-161.61 480.52,-193.76 518,-212 522.7,-214.29 527.72,-216.34 532.83,-218.17"/>
<polygon fill="midnightblue" stroke="midnightblue" points="532.1,-221.62 542.69,-221.43 534.29,-214.97 532.1,-221.62"/>
</g>
<!-- Node10 -->
<g id="node10" class="node">
<title>Node10</title>
<g id="a_node10"><a xlink:href="a00496.html#ga7f1d554e08d756b8677b572216908a3a" target="_top" xlink:title="This function clears the selected general purpose input/output pin.">
<polygon fill="white" stroke="black" points="726.5,-126.5 726.5,-145.5 815.5,-145.5 815.5,-126.5 726.5,-126.5"/>
<text text-anchor="middle" x="771" y="-133.5" font-family="Helvetica,sans-Serif" font-size="10.00">buckGPIO_Clear</text>
</a>
</g>
</g>
<!-- Node9&#45;&gt;Node10 -->
<g id="edge9" class="edge">
<title>Node9&#45;&gt;Node10</title>
<path fill="none" stroke="midnightblue" d="M638.21,-122.24C662.54,-124.78 691.76,-127.83 716.5,-130.41"/>
<polygon fill="midnightblue" stroke="midnightblue" points="716.13,-133.9 726.44,-131.45 716.86,-126.93 716.13,-133.9"/>
</g>
<!-- Node12 -->
<g id="node12" class="node">
<title>Node12</title>
<g id="a_node12"><a xlink:href="a00496.html#ga3d3f91c0e40884874e7df3a67fff23f3" target="_top" xlink:title="This function sets the pin as input or output.">
<polygon fill="white" stroke="black" points="705.5,-164.5 705.5,-183.5 836.5,-183.5 836.5,-164.5 705.5,-164.5"/>
<text text-anchor="middle" x="771" y="-171.5" font-family="Helvetica,sans-Serif" font-size="10.00">buckGPIO_PrivateInitialize</text>
</a>
</g>
</g>
<!-- Node9&#45;&gt;Node12 -->
<g id="edge11" class="edge">
<title>Node9&#45;&gt;Node12</title>
<path fill="none" stroke="midnightblue" d="M627.67,-126.55C637.08,-129.24 647,-132.42 656,-136 672.81,-142.69 675.08,-148.59 692,-155 698.72,-157.55 705.9,-159.84 713.08,-161.87"/>
<polygon fill="midnightblue" stroke="midnightblue" points="712.25,-165.28 722.82,-164.49 714.07,-158.52 712.25,-165.28"/>
</g>
<!-- Node11 -->
<g id="node11" class="node">
<title>Node11</title>
<g id="a_node11"><a xlink:href="a00362.html#ga4d67af688d8f7f911d79107974e11e6b" target="_top" xlink:title="Gets pointer to GPIO Instance SFR set.">
<polygon fill="white" stroke="black" points="886,-126.5 886,-145.5 1037,-145.5 1037,-126.5 886,-126.5"/>
<text text-anchor="middle" x="961.5" y="-133.5" font-family="Helvetica,sans-Serif" font-size="10.00">p33c_GpioInstance_GetHandle</text>
</a>
</g>
</g>
<!-- Node10&#45;&gt;Node11 -->
<g id="edge10" class="edge">
<title>Node10&#45;&gt;Node11</title>
<path fill="none" stroke="midnightblue" d="M815.72,-136C833.66,-136 855.08,-136 875.86,-136"/>
<polygon fill="midnightblue" stroke="midnightblue" points="876,-139.5 886,-136 876,-132.5 876,-139.5"/>
</g>
<!-- Node12&#45;&gt;Node11 -->
<g id="edge12" class="edge">
<title>Node12&#45;&gt;Node11</title>
<path fill="none" stroke="midnightblue" d="M819.57,-164.41C845,-159.28 876.5,-152.93 903.27,-147.54"/>
<polygon fill="midnightblue" stroke="midnightblue" points="904.16,-150.93 913.28,-145.52 902.78,-144.07 904.16,-150.93"/>
</g>
<!-- Node13&#45;&gt;Node11 -->
<g id="edge14" class="edge">
<title>Node13&#45;&gt;Node11</title>
<path fill="none" stroke="midnightblue" d="M656.26,-54.18C710.04,-49.56 786.29,-48.22 850,-67 885.65,-77.51 921.07,-102.97 941.86,-119.84"/>
<polygon fill="midnightblue" stroke="midnightblue" points="939.66,-122.56 949.59,-126.27 944.14,-117.18 939.66,-122.56"/>
</g>
<!-- Node14 -->
<g id="node14" class="node">
<title>Node14</title>
<g id="a_node14"><a xlink:href="a00366.html#gab66f225bac6b132d1418a4c808e3babb" target="_top" xlink:title="Disposes a given PWM generator by resetting all its registers to default.">
<polygon fill="white" stroke="black" points="701,-77 701,-107 841,-107 841,-77 701,-77"/>
<text text-anchor="start" x="709" y="-95" font-family="Helvetica,sans-Serif" font-size="10.00">p33c_PwmGenerator_Config</text>
<text text-anchor="middle" x="771" y="-84" font-family="Helvetica,sans-Serif" font-size="10.00">Write</text>
</a>
</g>
</g>
<!-- Node13&#45;&gt;Node14 -->
<g id="edge15" class="edge">
<title>Node13&#45;&gt;Node14</title>
<path fill="none" stroke="midnightblue" d="M647.85,-72.54C661.65,-74.74 676.54,-77.11 691.02,-79.42"/>
<polygon fill="midnightblue" stroke="midnightblue" points="690.54,-82.88 700.96,-81 691.64,-75.97 690.54,-82.88"/>
</g>
<!-- Node15 -->
<g id="node15" class="node">
<title>Node15</title>
<g id="a_node15"><a xlink:href="a00366.html#ga55e525c7ac54a365ab6dad558ec17f0b" target="_top" xlink:title="Returns the PWM generator index.">
<polygon fill="white" stroke="black" points="692,-0.5 692,-19.5 850,-19.5 850,-0.5 692,-0.5"/>
<text text-anchor="middle" x="771" y="-7.5" font-family="Helvetica,sans-Serif" font-size="10.00">p33c_PwmGenerator_GetHandle</text>
</a>
</g>
</g>
<!-- Node13&#45;&gt;Node15 -->
<g id="edge16" class="edge">
<title>Node13&#45;&gt;Node15</title>
<path fill="none" stroke="midnightblue" d="M620.96,-53.4C650.85,-44.7 695.08,-31.82 727.6,-22.35"/>
<polygon fill="midnightblue" stroke="midnightblue" points="728.66,-25.68 737.29,-19.53 726.71,-18.96 728.66,-25.68"/>
</g>
<!-- Node17 -->
<g id="node17" class="node">
<title>Node17</title>
<g id="a_node17"><a xlink:href="a00366.html#ga8075fd40f867be8f42bb806622bd91bd" target="_top" xlink:title="Writes a user&#45;defined configuration to the PWM base module registers.">
<polygon fill="white" stroke="black" points="695,-212.5 695,-231.5 847,-231.5 847,-212.5 695,-212.5"/>
<text text-anchor="middle" x="771" y="-219.5" font-family="Helvetica,sans-Serif" font-size="10.00">p33c_PwmModule_ConfigWrite</text>
</a>
</g>
</g>
<!-- Node16&#45;&gt;Node17 -->
<g id="edge18" class="edge">
<title>Node16&#45;&gt;Node17</title>
<path fill="none" stroke="midnightblue" d="M654.22,-227.73C664.13,-227.24 674.46,-226.72 684.7,-226.22"/>
<polygon fill="midnightblue" stroke="midnightblue" points="685.07,-229.7 694.89,-225.71 684.73,-222.71 685.07,-229.7"/>
</g>
<!-- Node18 -->
<g id="node18" class="node">
<title>Node18</title>
<g id="a_node18"><a xlink:href="a00366.html#ga3ed5f08051a70f5cb426b8254119845f" target="_top" xlink:title="Gets pointer to PWM module SFR set.">
<polygon fill="white" stroke="black" points="697.5,-250.5 697.5,-269.5 844.5,-269.5 844.5,-250.5 697.5,-250.5"/>
<text text-anchor="middle" x="771" y="-257.5" font-family="Helvetica,sans-Serif" font-size="10.00">p33c_PwmModule_GetHandle</text>
</a>
</g>
</g>
<!-- Node16&#45;&gt;Node18 -->
<g id="edge19" class="edge">
<title>Node16&#45;&gt;Node18</title>
<path fill="none" stroke="midnightblue" d="M647.85,-240.54C664.56,-243.2 682.87,-246.12 700.11,-248.86"/>
<polygon fill="midnightblue" stroke="midnightblue" points="699.69,-252.34 710.12,-250.46 700.79,-245.43 699.69,-252.34"/>
</g>
<!-- Node20 -->
<g id="node20" class="node">
<title>Node20</title>
<g id="a_node20"><a xlink:href="a00496.html#gab089e35bcd5d68072aa53298ee276959" target="_top" xlink:title="This function enables the ADC module and starts the ADC cores analog inputs for the required input si...">
<polygon fill="white" stroke="black" points="371.5,-47.5 371.5,-66.5 455.5,-66.5 455.5,-47.5 371.5,-47.5"/>
<text text-anchor="middle" x="413.5" y="-54.5" font-family="Helvetica,sans-Serif" font-size="10.00">buckADC_Start</text>
</a>
</g>
</g>
<!-- Node19&#45;&gt;Node20 -->
<g id="edge21" class="edge">
<title>Node19&#45;&gt;Node20</title>
<path fill="none" stroke="midnightblue" d="M299.36,-57C319.54,-57 341.8,-57 361.19,-57"/>
<polygon fill="midnightblue" stroke="midnightblue" points="361.34,-60.5 371.34,-57 361.34,-53.5 361.34,-60.5"/>
</g>
<!-- Node21 -->
<g id="node21" class="node">
<title>Node21</title>
<g id="a_node21"><a xlink:href="a00496.html#gac63073d04bc35c0cce5df47ea0d33165" target="_top" xlink:title="This function enables the buck PWM operation.">
<polygon fill="white" stroke="black" points="369,-6.5 369,-25.5 458,-25.5 458,-6.5 369,-6.5"/>
<text text-anchor="middle" x="413.5" y="-13.5" font-family="Helvetica,sans-Serif" font-size="10.00">buckPWM_Start</text>
</a>
</g>
</g>
<!-- Node19&#45;&gt;Node21 -->
<g id="edge22" class="edge">
<title>Node19&#45;&gt;Node21</title>
<path fill="none" stroke="midnightblue" d="M278.86,-47.49C303.69,-41.64 335.73,-34.09 362.21,-27.85"/>
<polygon fill="midnightblue" stroke="midnightblue" points="363.13,-31.23 372.06,-25.53 361.53,-24.42 363.13,-31.23"/>
</g>
<!-- Node21&#45;&gt;Node15 -->
<g id="edge23" class="edge">
<title>Node21&#45;&gt;Node15</title>
<path fill="none" stroke="midnightblue" d="M458.09,-15.26C513.49,-14.33 610.46,-12.69 681.61,-11.49"/>
<polygon fill="midnightblue" stroke="midnightblue" points="681.98,-14.99 691.92,-11.32 681.86,-7.99 681.98,-14.99"/>
</g>
</g>
</svg>
