<?xml version="1.0" encoding="UTF-8" standalone="no"?>
<!DOCTYPE svg PUBLIC "-//W3C//DTD SVG 1.1//EN"
 "http://www.w3.org/Graphics/SVG/1.1/DTD/svg11.dtd">
<!-- Generated by graphviz version 2.44.1 (20200629.0846)
 -->
<!-- Title: drv_LcdInterface_SpiSend Pages: 1 -->
<svg width="1148pt" height="104pt"
 viewBox="0.00 0.00 1148.00 104.00" xmlns="http://www.w3.org/2000/svg" xmlns:xlink="http://www.w3.org/1999/xlink">
<g id="graph0" class="graph" transform="scale(1 1) rotate(0) translate(4 100)">
<title>drv_LcdInterface_SpiSend</title>
<polygon fill="white" stroke="transparent" points="-4,4 -4,-100 1144,-100 1144,4 -4,4"/>
<!-- Node1 -->
<g id="node1" class="node">
<title>Node1</title>
<g id="a_node1"><a xlink:title="Sends data through the SPI interface to the LCD controller.">
<polygon fill="#bfbfbf" stroke="black" points="1012,-38.5 1012,-57.5 1140,-57.5 1140,-38.5 1012,-38.5"/>
<text text-anchor="middle" x="1076" y="-45.5" font-family="Helvetica,sans-Serif" font-size="10.00">drv_LcdInterface_SpiSend</text>
</a>
</g>
</g>
<!-- Node2 -->
<g id="node2" class="node">
<title>Node2</title>
<g id="a_node2"><a xlink:href="a00445.html#ga3e045335a3463f6a53e4fd91b50bb0ca" target="_top" xlink:title="Sends a command to the LCD controller.">
<polygon fill="white" stroke="black" points="842,-38.5 842,-57.5 976,-57.5 976,-38.5 842,-38.5"/>
<text text-anchor="middle" x="909" y="-45.5" font-family="Helvetica,sans-Serif" font-size="10.00">drv_LcdInterface_SendCmd</text>
</a>
</g>
</g>
<!-- Node1&#45;&gt;Node2 -->
<g id="edge1" class="edge">
<title>Node1&#45;&gt;Node2</title>
<path fill="none" stroke="midnightblue" d="M1001.48,-48C993.05,-48 984.49,-48 976.16,-48"/>
<polygon fill="midnightblue" stroke="midnightblue" points="1001.68,-51.5 1011.68,-48 1001.68,-44.5 1001.68,-51.5"/>
</g>
<!-- Node3 -->
<g id="node3" class="node">
<title>Node3</title>
<g id="a_node3"><a xlink:href="a00440.html#ga0bff8adf9ea1196bdd69b3e47b2b77cd" target="_top" xlink:title="Clears the LC Display Screen.">
<polygon fill="white" stroke="black" points="721,-76.5 721,-95.5 801,-95.5 801,-76.5 721,-76.5"/>
<text text-anchor="middle" x="761" y="-83.5" font-family="Helvetica,sans-Serif" font-size="10.00">dev_Lcd_Clear</text>
</a>
</g>
</g>
<!-- Node2&#45;&gt;Node3 -->
<g id="edge2" class="edge">
<title>Node2&#45;&gt;Node3</title>
<path fill="none" stroke="midnightblue" d="M861.46,-60.11C841.13,-65.4 817.63,-71.52 798.58,-76.48"/>
<polygon fill="midnightblue" stroke="midnightblue" points="862.36,-63.5 871.16,-57.59 860.6,-56.72 862.36,-63.5"/>
</g>
<!-- Node9 -->
<g id="node9" class="node">
<title>Node9</title>
<g id="a_node9"><a xlink:href="a00440.html#ga5c431635cb94750b2f6e938d7f1f0cf1" target="_top" xlink:title="Sets the cursor position to the given x&#45; and y&#45;coordinates.">
<polygon fill="white" stroke="black" points="716,-38.5 716,-57.5 806,-57.5 806,-38.5 716,-38.5"/>
<text text-anchor="middle" x="761" y="-45.5" font-family="Helvetica,sans-Serif" font-size="10.00">dev_Lcd_GotoXY</text>
</a>
</g>
</g>
<!-- Node2&#45;&gt;Node9 -->
<g id="edge8" class="edge">
<title>Node2&#45;&gt;Node9</title>
<path fill="none" stroke="midnightblue" d="M831.62,-48C822.92,-48 814.28,-48 806.2,-48"/>
<polygon fill="midnightblue" stroke="midnightblue" points="831.83,-51.5 841.83,-48 831.83,-44.5 831.83,-51.5"/>
</g>
<!-- Node10 -->
<g id="node10" class="node">
<title>Node10</title>
<g id="a_node10"><a xlink:href="a00440.html#ga5d8f09855e28846e87400692d186781a" target="_top" xlink:title="Initializes the LCD Device.">
<polygon fill="white" stroke="black" points="583.5,-0.5 583.5,-19.5 675.5,-19.5 675.5,-0.5 583.5,-0.5"/>
<text text-anchor="middle" x="629.5" y="-7.5" font-family="Helvetica,sans-Serif" font-size="10.00">dev_Lcd_Initialize</text>
</a>
</g>
</g>
<!-- Node2&#45;&gt;Node10 -->
<g id="edge11" class="edge">
<title>Node2&#45;&gt;Node10</title>
<path fill="none" stroke="midnightblue" d="M851.2,-36.62C836.51,-33.9 820.7,-31.16 806,-29 761.88,-22.51 711.22,-17.26 675.71,-13.94"/>
<polygon fill="midnightblue" stroke="midnightblue" points="850.68,-40.09 861.15,-38.5 851.97,-33.21 850.68,-40.09"/>
</g>
<!-- Node4 -->
<g id="node4" class="node">
<title>Node4</title>
<g id="a_node4"><a xlink:href="a00440.html#ga3cb1303cba012af043a87af0bcab16d8" target="_top" xlink:title="Writes a character on the LCD screen.">
<polygon fill="white" stroke="black" points="579,-76.5 579,-95.5 680,-95.5 680,-76.5 579,-76.5"/>
<text text-anchor="middle" x="629.5" y="-83.5" font-family="Helvetica,sans-Serif" font-size="10.00">dev_Lcd_WriteChar</text>
</a>
</g>
</g>
<!-- Node3&#45;&gt;Node4 -->
<g id="edge3" class="edge">
<title>Node3&#45;&gt;Node4</title>
<path fill="none" stroke="midnightblue" d="M710.62,-86C700.63,-86 690.13,-86 680.13,-86"/>
<polygon fill="midnightblue" stroke="midnightblue" points="710.79,-89.5 720.79,-86 710.79,-82.5 710.79,-89.5"/>
</g>
<!-- Node5 -->
<g id="node5" class="node">
<title>Node5</title>
<g id="a_node5"><a xlink:href="a00440.html#gac07de05132918ca2db8cf4492819eca6" target="_top" xlink:title="Writes a complete string on the LCD screen.">
<polygon fill="white" stroke="black" points="437,-76.5 437,-95.5 543,-95.5 543,-76.5 437,-76.5"/>
<text text-anchor="middle" x="490" y="-83.5" font-family="Helvetica,sans-Serif" font-size="10.00">dev_Lcd_WriteString</text>
</a>
</g>
</g>
<!-- Node4&#45;&gt;Node5 -->
<g id="edge4" class="edge">
<title>Node4&#45;&gt;Node5</title>
<path fill="none" stroke="midnightblue" d="M568.69,-86C560.25,-86 551.63,-86 543.35,-86"/>
<polygon fill="midnightblue" stroke="midnightblue" points="568.86,-89.5 578.86,-86 568.86,-82.5 568.86,-89.5"/>
</g>
<!-- Node6 -->
<g id="node6" class="node">
<title>Node6</title>
<g id="a_node6"><a xlink:href="a00440.html#ga24701a4c3ae760e7e0b9c70d93370ff3" target="_top" xlink:title="Sets the cursor position to the given x&#45; and y&#45;coordinates and writes the given string on the lcd scr...">
<polygon fill="white" stroke="black" points="283,-38.5 283,-57.5 401,-57.5 401,-38.5 283,-38.5"/>
<text text-anchor="middle" x="342" y="-45.5" font-family="Helvetica,sans-Serif" font-size="10.00">dev_Lcd_WriteStringXY</text>
</a>
</g>
</g>
<!-- Node5&#45;&gt;Node6 -->
<g id="edge5" class="edge">
<title>Node5&#45;&gt;Node6</title>
<path fill="none" stroke="midnightblue" d="M442.46,-73.89C422.13,-68.6 398.63,-62.48 379.58,-57.52"/>
<polygon fill="midnightblue" stroke="midnightblue" points="441.6,-77.28 452.16,-76.41 443.36,-70.5 441.6,-77.28"/>
</g>
<!-- Node7 -->
<g id="node7" class="node">
<title>Node7</title>
<g id="a_node7"><a xlink:href="a00435.html#gab93992748ced72fdc2989d0b0f369e54" target="_top" xlink:title="Initializes the LC display.">
<polygon fill="white" stroke="black" points="155,-19.5 155,-38.5 247,-38.5 247,-19.5 155,-19.5"/>
<text text-anchor="middle" x="201" y="-26.5" font-family="Helvetica,sans-Serif" font-size="10.00">appLCD_Initialize</text>
</a>
</g>
</g>
<!-- Node6&#45;&gt;Node7 -->
<g id="edge6" class="edge">
<title>Node6&#45;&gt;Node7</title>
<path fill="none" stroke="midnightblue" d="M272.74,-38.67C264.08,-37.49 255.4,-36.3 247.23,-35.18"/>
<polygon fill="midnightblue" stroke="midnightblue" points="272.47,-42.17 282.86,-40.05 273.42,-35.23 272.47,-42.17"/>
</g>
<!-- Node8 -->
<g id="node8" class="node">
<title>Node8</title>
<g id="a_node8"><a xlink:href="a00531.html#ga2be64f5f0b9a2c0c6713f5a69d793e05" target="_top" xlink:title="Initializes the user&#45;defined tasks.">
<polygon fill="white" stroke="black" points="0,-19.5 0,-38.5 119,-38.5 119,-19.5 0,-19.5"/>
<text text-anchor="middle" x="59.5" y="-26.5" font-family="Helvetica,sans-Serif" font-size="10.00">sysUserTasks_Initialize</text>
</a>
</g>
</g>
<!-- Node7&#45;&gt;Node8 -->
<g id="edge7" class="edge">
<title>Node7&#45;&gt;Node8</title>
<path fill="none" stroke="midnightblue" d="M144.63,-29C136.22,-29 127.51,-29 119.04,-29"/>
<polygon fill="midnightblue" stroke="midnightblue" points="144.71,-32.5 154.71,-29 144.71,-25.5 144.71,-32.5"/>
</g>
<!-- Node9&#45;&gt;Node4 -->
<g id="edge9" class="edge">
<title>Node9&#45;&gt;Node4</title>
<path fill="none" stroke="midnightblue" d="M717.28,-60.54C699.66,-65.7 679.58,-71.6 663.17,-76.41"/>
<polygon fill="midnightblue" stroke="midnightblue" points="718.71,-63.76 727.32,-57.59 716.74,-57.05 718.71,-63.76"/>
</g>
<!-- Node9&#45;&gt;Node6 -->
<g id="edge10" class="edge">
<title>Node9&#45;&gt;Node6</title>
<path fill="none" stroke="midnightblue" d="M705.58,-48C626.84,-48 481.77,-48 401.05,-48"/>
<polygon fill="midnightblue" stroke="midnightblue" points="705.77,-51.5 715.77,-48 705.77,-44.5 705.77,-51.5"/>
</g>
<!-- Node10&#45;&gt;Node7 -->
<g id="edge12" class="edge">
<title>Node10&#45;&gt;Node7</title>
<path fill="none" stroke="midnightblue" d="M573.25,-12.46C487.94,-16.26 325.79,-23.49 247.1,-26.99"/>
<polygon fill="midnightblue" stroke="midnightblue" points="573.43,-15.96 583.26,-12.02 573.11,-8.96 573.43,-15.96"/>
</g>
</g>
</svg>
