<?xml version="1.0" encoding="UTF-8" standalone="no"?>
<!DOCTYPE svg PUBLIC "-//W3C//DTD SVG 1.1//EN"
 "http://www.w3.org/Graphics/SVG/1.1/DTD/svg11.dtd">
<!-- Generated by graphviz version 2.44.1 (20200629.0846)
 -->
<!-- Title: Properties Pages: 1 -->
<svg width="374pt" height="101pt"
 viewBox="0.00 0.00 374.00 101.00" xmlns="http://www.w3.org/2000/svg" xmlns:xlink="http://www.w3.org/1999/xlink">
<g id="graph0" class="graph" transform="scale(1 1) rotate(0) translate(4 97)">
<title>Properties</title>
<polygon fill="white" stroke="transparent" points="-4,4 -4,-97 370,-97 370,4 -4,4"/>
<!-- Node2 -->
<g id="node1" class="node">
<title>Node2</title>
<g id="a_node1"><a xlink:href="a00507.html" target="_top" xlink:title=" ">
<polygon fill="white" stroke="black" points="121,-61.5 0,-61.5 0,-31.5 121,-31.5 121,-61.5"/>
<text text-anchor="start" x="8" y="-49.5" font-family="Helvetica,sans-Serif" font-size="10.00">Power Converter Control</text>
<text text-anchor="middle" x="60.5" y="-38.5" font-family="Helvetica,sans-Serif" font-size="10.00"> Driver</text>
</a>
</g>
</g>
<!-- Node1 -->
<g id="node3" class="node">
<title>Node1</title>
<g id="a_node3"><a xlink:title="Public properties of the Power Converter Control driver.">
<polygon fill="#bfbfbf" stroke="black" points="218,-56 157,-56 157,-37 218,-37 218,-56"/>
<text text-anchor="middle" x="187.5" y="-44" font-family="Helvetica,sans-Serif" font-size="10.00">Properties</text>
</a>
</g>
</g>
<!-- Node2&#45;&gt;Node1 -->
<g id="edge1" class="edge">
<title>Node2&#45;&gt;Node1</title>
<path fill="none" stroke="black" d="M131.28,-46.5C140.28,-46.5 149.07,-46.5 156.91,-46.5"/>
<polygon fill="black" stroke="black" points="131.07,-43 121.07,-46.5 131.07,-50 131.07,-43"/>
</g>
<!-- Node3 -->
<g id="node2" class="node">
<title>Node3</title>
<g id="a_node2"><a xlink:href="a00511.html" target="_top" xlink:title="Public properties of the Power Converter Control driver.">
<polygon fill="white" stroke="black" points="347,-93 273,-93 273,-74 347,-74 347,-93"/>
<text text-anchor="middle" x="310" y="-81" font-family="Helvetica,sans-Serif" font-size="10.00">Data Objects</text>
</a>
</g>
</g>
<!-- Node1&#45;&gt;Node3 -->
<g id="edge2" class="edge">
<title>Node1&#45;&gt;Node3</title>
<path fill="none" stroke="black" d="M228.02,-58.64C244.21,-63.61 262.67,-69.27 277.88,-73.94"/>
<polygon fill="black" stroke="black" points="228.87,-55.24 218.29,-55.65 226.82,-61.93 228.87,-55.24"/>
</g>
<!-- Node4 -->
<g id="node4" class="node">
<title>Node4</title>
<g id="a_node4"><a xlink:href="a00512.html" target="_top" xlink:title="Public properties of the Power Converter Control driver.">
<polygon fill="white" stroke="black" points="366,-56 254,-56 254,-37 366,-37 366,-56"/>
<text text-anchor="middle" x="310" y="-44" font-family="Helvetica,sans-Serif" font-size="10.00">Data Object Members</text>
</a>
</g>
</g>
<!-- Node1&#45;&gt;Node4 -->
<g id="edge3" class="edge">
<title>Node1&#45;&gt;Node4</title>
<path fill="none" stroke="black" d="M228.53,-46.5C236.6,-46.5 245.22,-46.5 253.71,-46.5"/>
<polygon fill="black" stroke="black" points="228.29,-43 218.29,-46.5 228.29,-50 228.29,-43"/>
</g>
<!-- Node5 -->
<g id="node5" class="node">
<title>Node5</title>
<g id="a_node5"><a xlink:href="a00513.html" target="_top" xlink:title="Public properties of the Power Converter Control driver.">
<polygon fill="white" stroke="black" points="357,-19 263,-19 263,0 357,0 357,-19"/>
<text text-anchor="middle" x="310" y="-7" font-family="Helvetica,sans-Serif" font-size="10.00">Defines &amp; Macros</text>
</a>
</g>
</g>
<!-- Node1&#45;&gt;Node5 -->
<g id="edge4" class="edge">
<title>Node1&#45;&gt;Node5</title>
<path fill="none" stroke="black" d="M228.02,-34.36C244.21,-29.39 262.67,-23.73 277.88,-19.06"/>
<polygon fill="black" stroke="black" points="226.82,-31.07 218.29,-37.35 228.87,-37.76 226.82,-31.07"/>
</g>
</g>
</svg>
