<?xml version="1.0" encoding="UTF-8" standalone="no"?>
<!DOCTYPE svg PUBLIC "-//W3C//DTD SVG 1.1//EN"
 "http://www.w3.org/Graphics/SVG/1.1/DTD/svg11.dtd">
<!-- Generated by graphviz version 2.44.1 (20200629.0846)
 -->
<!-- Title: sysLowPriorityTasks_Execute Pages: 1 -->
<svg width="438pt" height="104pt"
 viewBox="0.00 0.00 438.00 104.00" xmlns="http://www.w3.org/2000/svg" xmlns:xlink="http://www.w3.org/1999/xlink">
<g id="graph0" class="graph" transform="scale(1 1) rotate(0) translate(4 100)">
<title>sysLowPriorityTasks_Execute</title>
<polygon fill="white" stroke="transparent" points="-4,4 -4,-100 434,-100 434,4 -4,4"/>
<!-- Node1 -->
<g id="node1" class="node">
<title>Node1</title>
<g id="a_node1"><a xlink:title="Low priority task sequence executed after the high priority task sequence execution is complete.">
<polygon fill="#bfbfbf" stroke="black" points="0,-33 0,-63 107,-63 107,-33 0,-33"/>
<text text-anchor="start" x="8" y="-51" font-family="Helvetica,sans-Serif" font-size="10.00">sysLowPriorityTasks</text>
<text text-anchor="middle" x="53.5" y="-40" font-family="Helvetica,sans-Serif" font-size="10.00">_Execute</text>
</a>
</g>
</g>
<!-- Node2 -->
<g id="node2" class="node">
<title>Node2</title>
<g id="a_node2"><a xlink:href="a00435.html#gacd8e3f8ca8af94f13f7efa0df7ced6f5" target="_top" xlink:title="Refreshes the LC display.">
<polygon fill="white" stroke="black" points="159.5,-76.5 159.5,-95.5 251.5,-95.5 251.5,-76.5 159.5,-76.5"/>
<text text-anchor="middle" x="205.5" y="-83.5" font-family="Helvetica,sans-Serif" font-size="10.00">appLCD_Execute</text>
</a>
</g>
</g>
<!-- Node1&#45;&gt;Node2 -->
<g id="edge1" class="edge">
<title>Node1&#45;&gt;Node2</title>
<path fill="none" stroke="midnightblue" d="M107.38,-61.4C123.44,-65.46 140.97,-69.91 156.67,-73.88"/>
<polygon fill="midnightblue" stroke="midnightblue" points="156.14,-77.36 166.69,-76.42 157.86,-70.57 156.14,-77.36"/>
</g>
<!-- Node3 -->
<g id="node3" class="node">
<title>Node3</title>
<g id="a_node3"><a xlink:href="a00450.html#gaaa8c86cbd692a090f955022c93593a68" target="_top" xlink:title="Executes the debugging LED driver.">
<polygon fill="white" stroke="black" points="159.5,-38.5 159.5,-57.5 251.5,-57.5 251.5,-38.5 159.5,-38.5"/>
<text text-anchor="middle" x="205.5" y="-45.5" font-family="Helvetica,sans-Serif" font-size="10.00">appLED_Execute</text>
</a>
</g>
</g>
<!-- Node1&#45;&gt;Node3 -->
<g id="edge2" class="edge">
<title>Node1&#45;&gt;Node3</title>
<path fill="none" stroke="midnightblue" d="M107.38,-48C120.83,-48 135.31,-48 148.89,-48"/>
<polygon fill="midnightblue" stroke="midnightblue" points="149.06,-51.5 159.06,-48 149.06,-44.5 149.06,-51.5"/>
</g>
<!-- Node4 -->
<g id="node4" class="node">
<title>Node4</title>
<g id="a_node4"><a xlink:href="a00505.html#gac8eaed20cfb248e14fe71e45483203f7" target="_top" xlink:title="Executes the USER push button monitor.">
<polygon fill="white" stroke="black" points="143,-0.5 143,-19.5 268,-19.5 268,-0.5 143,-0.5"/>
<text text-anchor="middle" x="205.5" y="-7.5" font-family="Helvetica,sans-Serif" font-size="10.00">appPushButton_Execute</text>
</a>
</g>
</g>
<!-- Node1&#45;&gt;Node4 -->
<g id="edge3" class="edge">
<title>Node1&#45;&gt;Node4</title>
<path fill="none" stroke="midnightblue" d="M107.38,-34.6C123.44,-30.54 140.97,-26.09 156.67,-22.12"/>
<polygon fill="midnightblue" stroke="midnightblue" points="157.86,-25.43 166.69,-19.58 156.14,-18.64 157.86,-25.43"/>
</g>
<!-- Node5 -->
<g id="node5" class="node">
<title>Node5</title>
<g id="a_node5"><a xlink:href="a00510.html#ga29d5123115f34320a92fabc8be2f796c" target="_top" xlink:title="Initializes the push button device driver.">
<polygon fill="white" stroke="black" points="304,-0.5 304,-19.5 430,-19.5 430,-0.5 304,-0.5"/>
<text text-anchor="middle" x="367" y="-7.5" font-family="Helvetica,sans-Serif" font-size="10.00">drv_PushButton_Execute</text>
</a>
</g>
</g>
<!-- Node4&#45;&gt;Node5 -->
<g id="edge4" class="edge">
<title>Node4&#45;&gt;Node5</title>
<path fill="none" stroke="midnightblue" d="M268.17,-10C276.61,-10 285.34,-10 293.95,-10"/>
<polygon fill="midnightblue" stroke="midnightblue" points="293.97,-13.5 303.97,-10 293.97,-6.5 293.97,-13.5"/>
</g>
</g>
</svg>
