<?xml version="1.0" encoding="UTF-8" standalone="no"?>
<!DOCTYPE svg PUBLIC "-//W3C//DTD SVG 1.1//EN"
 "http://www.w3.org/Graphics/SVG/1.1/DTD/svg11.dtd">
<!-- Generated by graphviz version 2.44.1 (20200629.0846)
 -->
<!-- Title: sysUserTasks_Initialize Pages: 1 -->
<svg width="1388pt" height="681pt"
 viewBox="0.00 0.00 1388.00 680.50" xmlns="http://www.w3.org/2000/svg" xmlns:xlink="http://www.w3.org/1999/xlink">
<g id="graph0" class="graph" transform="scale(1 1) rotate(0) translate(4 676.5)">
<title>sysUserTasks_Initialize</title>
<polygon fill="white" stroke="transparent" points="-4,4 -4,-676.5 1384,-676.5 1384,4 -4,4"/>
<!-- Node1 -->
<g id="node1" class="node">
<title>Node1</title>
<g id="a_node1"><a xlink:title="Initializes the user&#45;defined tasks.">
<polygon fill="#bfbfbf" stroke="black" points="0,-260 0,-279 119,-279 119,-260 0,-260"/>
<text text-anchor="middle" x="59.5" y="-267" font-family="Helvetica,sans-Serif" font-size="10.00">sysUserTasks_Initialize</text>
</a>
</g>
</g>
<!-- Node2 -->
<g id="node2" class="node">
<title>Node2</title>
<g id="a_node2"><a xlink:href="a00425.html#ga830e5c7087a8e5ee8ea39b7e3df94b68" target="_top" xlink:title="Initialization of user&#45;defined fault objects.">
<polygon fill="white" stroke="black" points="156.5,-577 156.5,-596 283.5,-596 283.5,-577 156.5,-577"/>
<text text-anchor="middle" x="220" y="-584" font-family="Helvetica,sans-Serif" font-size="10.00">appFaultMonitor_Initialize</text>
</a>
</g>
</g>
<!-- Node1&#45;&gt;Node2 -->
<g id="edge1" class="edge">
<title>Node1&#45;&gt;Node2</title>
<path fill="none" stroke="midnightblue" d="M64.77,-279.35C77.65,-308.93 117.59,-399.5 155,-472.5 172.59,-506.81 195.01,-545.78 208.11,-568.12"/>
<polygon fill="midnightblue" stroke="midnightblue" points="205.18,-570.04 213.27,-576.88 211.21,-566.48 205.18,-570.04"/>
</g>
<!-- Node12 -->
<g id="node10" class="node">
<title>Node12</title>
<g id="a_node10"><a xlink:href="a00441.html#gab93992748ced72fdc2989d0b0f369e54" target="_top" xlink:title="Initializes the LC display.">
<polygon fill="white" stroke="black" points="174,-444 174,-463 266,-463 266,-444 174,-444"/>
<text text-anchor="middle" x="220" y="-451" font-family="Helvetica,sans-Serif" font-size="10.00">appLCD_Initialize</text>
</a>
</g>
</g>
<!-- Node1&#45;&gt;Node12 -->
<g id="edge12" class="edge">
<title>Node1&#45;&gt;Node12</title>
<path fill="none" stroke="midnightblue" d="M68.8,-279.13C94.26,-308.69 171.53,-398.39 204.18,-436.3"/>
<polygon fill="midnightblue" stroke="midnightblue" points="201.61,-438.67 210.78,-443.96 206.91,-434.1 201.61,-438.67"/>
</g>
<!-- Node23 -->
<g id="node21" class="node">
<title>Node23</title>
<g id="a_node21"><a xlink:href="a00456.html#ga900c95201f101cb3c8644bcf7aab8af9" target="_top" xlink:title="Initializes the LED driving GPIO.">
<polygon fill="white" stroke="black" points="174,-279 174,-298 266,-298 266,-279 174,-279"/>
<text text-anchor="middle" x="220" y="-286" font-family="Helvetica,sans-Serif" font-size="10.00">appLED_Initialize</text>
</a>
</g>
</g>
<!-- Node1&#45;&gt;Node23 -->
<g id="edge26" class="edge">
<title>Node1&#45;&gt;Node23</title>
<path fill="none" stroke="midnightblue" d="M119.07,-276.52C133.55,-278.26 149.01,-280.11 163.34,-281.83"/>
<polygon fill="midnightblue" stroke="midnightblue" points="163.2,-285.34 173.55,-283.05 164.04,-278.39 163.2,-285.34"/>
</g>
<!-- Node24 -->
<g id="node22" class="node">
<title>Node24</title>
<g id="a_node22"><a xlink:href="a00461.html#ga7a4cf6371d09457539f96a74b2809ca0" target="_top" xlink:title="Calls the application layer power controller initialization.">
<polygon fill="white" stroke="black" points="155,-241 155,-260 285,-260 285,-241 155,-241"/>
<text text-anchor="middle" x="220" y="-248" font-family="Helvetica,sans-Serif" font-size="10.00">appPowerSupply_Initialize</text>
</a>
</g>
</g>
<!-- Node1&#45;&gt;Node24 -->
<g id="edge27" class="edge">
<title>Node1&#45;&gt;Node24</title>
<path fill="none" stroke="midnightblue" d="M119.07,-262.48C127.44,-261.48 136.13,-260.43 144.75,-259.4"/>
<polygon fill="midnightblue" stroke="midnightblue" points="145.29,-262.86 154.81,-258.2 144.46,-255.91 145.29,-262.86"/>
</g>
<!-- Node47 -->
<g id="node45" class="node">
<title>Node47</title>
<g id="a_node45"><a xlink:href="a00511.html#ga7c903bd2ce5b08d78de218d726830947" target="_top" xlink:title="Initializes the USER push button on DPSK3.">
<polygon fill="white" stroke="black" points="158,-107 158,-126 282,-126 282,-107 158,-107"/>
<text text-anchor="middle" x="220" y="-114" font-family="Helvetica,sans-Serif" font-size="10.00">appPushButton_Initialize</text>
</a>
</g>
</g>
<!-- Node1&#45;&gt;Node47 -->
<g id="edge54" class="edge">
<title>Node1&#45;&gt;Node47</title>
<path fill="none" stroke="midnightblue" d="M70.41,-259.93C96.66,-234.6 168.18,-165.56 201.49,-133.4"/>
<polygon fill="midnightblue" stroke="midnightblue" points="204.32,-135.53 209.09,-126.07 199.46,-130.49 204.32,-135.53"/>
</g>
<!-- Node52 -->
<g id="node50" class="node">
<title>Node52</title>
<g id="a_node50"><a xlink:href="a00535.html#ga8e89a1a4ee5bf8c794bd29163b92bf49" target="_top" xlink:title="Initializes the timer used as time&#45;base for the task scheduler.">
<polygon fill="white" stroke="black" points="165,-69 165,-88 275,-88 275,-69 165,-69"/>
<text text-anchor="middle" x="220" y="-76" font-family="Helvetica,sans-Serif" font-size="10.00">sysOsTimer_Initialize</text>
</a>
</g>
</g>
<!-- Node1&#45;&gt;Node52 -->
<g id="edge59" class="edge">
<title>Node1&#45;&gt;Node52</title>
<path fill="none" stroke="midnightblue" d="M63.05,-259.61C71.13,-230.21 99.03,-142.62 155,-97.5 157.17,-95.75 159.49,-94.17 161.92,-92.73"/>
<polygon fill="midnightblue" stroke="midnightblue" points="163.74,-95.73 171.12,-88.12 160.61,-89.47 163.74,-95.73"/>
</g>
<!-- Node3 -->
<g id="node3" class="node">
<title>Node3</title>
<g id="a_node3"><a xlink:href="a00427.html#ga54f9db91ea0782b08aa16ee77a57c5e5" target="_top" xlink:title="Initializes the user&#45;defined fault objects for overcurrent protection.">
<polygon fill="white" stroke="black" points="356,-577 356,-596 451,-596 451,-577 356,-577"/>
<text text-anchor="middle" x="403.5" y="-584" font-family="Helvetica,sans-Serif" font-size="10.00">ocp_FaultInitialize</text>
</a>
</g>
</g>
<!-- Node2&#45;&gt;Node3 -->
<g id="edge2" class="edge">
<title>Node2&#45;&gt;Node3</title>
<path fill="none" stroke="midnightblue" d="M283.72,-586.5C303.87,-586.5 326.07,-586.5 345.77,-586.5"/>
<polygon fill="midnightblue" stroke="midnightblue" points="345.82,-590 355.82,-586.5 345.82,-583 345.82,-590"/>
</g>
<!-- Node9 -->
<g id="node7" class="node">
<title>Node9</title>
<g id="a_node7"><a xlink:href="a00427.html#gade437244e8f6e5ff7c57a73442063350" target="_top" xlink:title="Initializes the user&#45;defined fault objects for overvoltage lockout.">
<polygon fill="white" stroke="black" points="356,-539 356,-558 451,-558 451,-539 356,-539"/>
<text text-anchor="middle" x="403.5" y="-546" font-family="Helvetica,sans-Serif" font-size="10.00">ovlo_FaultInitialize</text>
</a>
</g>
</g>
<!-- Node2&#45;&gt;Node9 -->
<g id="edge6" class="edge">
<title>Node2&#45;&gt;Node9</title>
<path fill="none" stroke="midnightblue" d="M266.8,-576.91C291.18,-571.81 321.36,-565.49 347.06,-560.11"/>
<polygon fill="midnightblue" stroke="midnightblue" points="347.96,-563.5 357.03,-558.02 346.52,-556.64 347.96,-563.5"/>
</g>
<!-- Node10 -->
<g id="node8" class="node">
<title>Node10</title>
<g id="a_node8"><a xlink:href="a00427.html#ga82dc317e3adac0308e5ac3f5ad321605" target="_top" xlink:title="Initializes the user&#45;defined fault objects for regulation error.">
<polygon fill="white" stroke="black" points="351.5,-653 351.5,-672 455.5,-672 455.5,-653 351.5,-653"/>
<text text-anchor="middle" x="403.5" y="-660" font-family="Helvetica,sans-Serif" font-size="10.00">regerr_FaultInitialize</text>
</a>
</g>
</g>
<!-- Node2&#45;&gt;Node10 -->
<g id="edge8" class="edge">
<title>Node2&#45;&gt;Node10</title>
<path fill="none" stroke="midnightblue" d="M234.92,-596.18C253.67,-608.79 288.44,-630.74 321,-643.5 327.45,-646.03 334.33,-648.28 341.25,-650.26"/>
<polygon fill="midnightblue" stroke="midnightblue" points="340.81,-653.76 351.38,-652.97 342.62,-647 340.81,-653.76"/>
</g>
<!-- Node11 -->
<g id="node9" class="node">
<title>Node11</title>
<g id="a_node9"><a xlink:href="a00427.html#ga9441220f8a7d4a6805467d04b734e6b5" target="_top" xlink:title="Initializes the user&#45;defined fault objects for under&#45;voltage lockout.">
<polygon fill="white" stroke="black" points="356,-615 356,-634 451,-634 451,-615 356,-615"/>
<text text-anchor="middle" x="403.5" y="-622" font-family="Helvetica,sans-Serif" font-size="10.00">uvlo_FaultInitialize</text>
</a>
</g>
</g>
<!-- Node2&#45;&gt;Node11 -->
<g id="edge10" class="edge">
<title>Node2&#45;&gt;Node11</title>
<path fill="none" stroke="midnightblue" d="M266.8,-596.09C291.18,-601.19 321.36,-607.51 347.06,-612.89"/>
<polygon fill="midnightblue" stroke="midnightblue" points="346.52,-616.36 357.03,-614.98 347.96,-609.5 346.52,-616.36"/>
</g>
<!-- Node4 -->
<g id="node4" class="node">
<title>Node4</title>
<g id="a_node4"><a xlink:href="a00461.html#gafa4e90d260e60cf20f06acee067c39cd" target="_top" xlink:title="This function stops the power supply operation.">
<polygon fill="white" stroke="black" points="524,-615 524,-634 657,-634 657,-615 524,-615"/>
<text text-anchor="middle" x="590.5" y="-622" font-family="Helvetica,sans-Serif" font-size="10.00">appPowerSupply_Suspend</text>
</a>
</g>
</g>
<!-- Node3&#45;&gt;Node4 -->
<g id="edge3" class="edge">
<title>Node3&#45;&gt;Node4</title>
<path fill="none" stroke="midnightblue" d="M451.18,-596.09C476.15,-601.22 507.06,-607.57 533.33,-612.96"/>
<polygon fill="midnightblue" stroke="midnightblue" points="532.65,-616.4 543.15,-614.98 534.06,-609.54 532.65,-616.4"/>
</g>
<!-- Node5 -->
<g id="node5" class="node">
<title>Node5</title>
<g id="a_node5"><a xlink:href="a00468.html#ga0d68d132b52175c43503c9b5794bae64" target="_top" xlink:title="This function suspends the operation of the buck converter.">
<polygon fill="white" stroke="black" points="695,-615 695,-634 835,-634 835,-615 695,-615"/>
<text text-anchor="middle" x="765" y="-622" font-family="Helvetica,sans-Serif" font-size="10.00">drv_BuckConverter_Suspend</text>
</a>
</g>
</g>
<!-- Node4&#45;&gt;Node5 -->
<g id="edge4" class="edge">
<title>Node4&#45;&gt;Node5</title>
<path fill="none" stroke="midnightblue" d="M657.21,-624.5C666.13,-624.5 675.37,-624.5 684.5,-624.5"/>
<polygon fill="midnightblue" stroke="midnightblue" points="684.75,-628 694.75,-624.5 684.75,-621 684.75,-628"/>
</g>
<!-- Node6 -->
<g id="node6" class="node">
<title>Node6</title>
<g id="a_node6"><a xlink:href="a00468.html#gab9877f90ffb129964ae42ce2921b3fe1" target="_top" xlink:title="This function is the main buck converter state machine executing the most recent state.">
<polygon fill="white" stroke="red" points="881,-615 881,-634 1019,-634 1019,-615 881,-615"/>
<text text-anchor="middle" x="950" y="-622" font-family="Helvetica,sans-Serif" font-size="10.00">drv_BuckConverter_Execute</text>
</a>
</g>
</g>
<!-- Node5&#45;&gt;Node6 -->
<g id="edge5" class="edge">
<title>Node5&#45;&gt;Node6</title>
<path fill="none" stroke="midnightblue" d="M835.18,-624.5C846.77,-624.5 858.86,-624.5 870.66,-624.5"/>
<polygon fill="midnightblue" stroke="midnightblue" points="870.93,-628 880.93,-624.5 870.93,-621 870.93,-628"/>
</g>
<!-- Node9&#45;&gt;Node4 -->
<g id="edge7" class="edge">
<title>Node9&#45;&gt;Node4</title>
<path fill="none" stroke="midnightblue" d="M451.24,-555.09C463.02,-557.9 475.33,-561.87 486,-567.5 505.2,-577.63 503.4,-589.31 522,-600.5 529.05,-604.74 536.95,-608.39 544.81,-611.47"/>
<polygon fill="midnightblue" stroke="midnightblue" points="543.71,-614.8 554.31,-614.96 546.12,-608.23 543.71,-614.8"/>
</g>
<!-- Node10&#45;&gt;Node4 -->
<g id="edge9" class="edge">
<title>Node10&#45;&gt;Node4</title>
<path fill="none" stroke="midnightblue" d="M451.18,-652.91C476.15,-647.78 507.06,-641.43 533.33,-636.04"/>
<polygon fill="midnightblue" stroke="midnightblue" points="534.06,-639.46 543.15,-634.02 532.65,-632.6 534.06,-639.46"/>
</g>
<!-- Node11&#45;&gt;Node4 -->
<g id="edge11" class="edge">
<title>Node11&#45;&gt;Node4</title>
<path fill="none" stroke="midnightblue" d="M451.18,-624.5C470.13,-624.5 492.51,-624.5 513.69,-624.5"/>
<polygon fill="midnightblue" stroke="midnightblue" points="513.97,-628 523.97,-624.5 513.97,-621 513.97,-628"/>
</g>
<!-- Node13 -->
<g id="node11" class="node">
<title>Node13</title>
<g id="a_node11"><a xlink:href="a00446.html#ga5d8f09855e28846e87400692d186781a" target="_top" xlink:title="Initializes the LCD Device.">
<polygon fill="white" stroke="black" points="357.5,-501 357.5,-520 449.5,-520 449.5,-501 357.5,-501"/>
<text text-anchor="middle" x="403.5" y="-508" font-family="Helvetica,sans-Serif" font-size="10.00">dev_Lcd_Initialize</text>
</a>
</g>
</g>
<!-- Node12&#45;&gt;Node13 -->
<g id="edge13" class="edge">
<title>Node12&#45;&gt;Node13</title>
<path fill="none" stroke="midnightblue" d="M251.38,-463.04C281.74,-472.58 328.61,-487.29 362.09,-497.81"/>
<polygon fill="midnightblue" stroke="midnightblue" points="361.43,-501.27 372.02,-500.93 363.53,-494.59 361.43,-501.27"/>
</g>
<!-- Node18 -->
<g id="node16" class="node">
<title>Node18</title>
<g id="a_node16"><a xlink:href="a00446.html#ga24701a4c3ae760e7e0b9c70d93370ff3" target="_top" xlink:title="Sets the cursor position to the given x&#45; and y&#45;coordinates and writes the given string on the lcd scr...">
<polygon fill="white" stroke="black" points="344.5,-444 344.5,-463 462.5,-463 462.5,-444 344.5,-444"/>
<text text-anchor="middle" x="403.5" y="-451" font-family="Helvetica,sans-Serif" font-size="10.00">dev_Lcd_WriteStringXY</text>
</a>
</g>
</g>
<!-- Node12&#45;&gt;Node18 -->
<g id="edge18" class="edge">
<title>Node12&#45;&gt;Node18</title>
<path fill="none" stroke="midnightblue" d="M266.33,-453.5C286.82,-453.5 311.47,-453.5 334.13,-453.5"/>
<polygon fill="midnightblue" stroke="midnightblue" points="334.38,-457 344.38,-453.5 334.38,-450 334.38,-457"/>
</g>
<!-- Node14 -->
<g id="node12" class="node">
<title>Node14</title>
<g id="a_node12"><a xlink:href="a00451.html#gaeb25fdecced4c325cd0d986a30d57e90" target="_top" xlink:title="Initializes the LCD interface driver.">
<polygon fill="white" stroke="black" points="527,-539 527,-558 654,-558 654,-539 527,-539"/>
<text text-anchor="middle" x="590.5" y="-546" font-family="Helvetica,sans-Serif" font-size="10.00">drv_LcdInterface_Initialize</text>
</a>
</g>
</g>
<!-- Node13&#45;&gt;Node14 -->
<g id="edge14" class="edge">
<title>Node13&#45;&gt;Node14</title>
<path fill="none" stroke="midnightblue" d="M449.76,-519.8C474.89,-524.96 506.39,-531.43 533.12,-536.92"/>
<polygon fill="midnightblue" stroke="midnightblue" points="532.6,-540.39 543.1,-538.97 534.01,-533.53 532.6,-540.39"/>
</g>
<!-- Node15 -->
<g id="node13" class="node">
<title>Node15</title>
<g id="a_node13"><a xlink:href="a00451.html#ga3f10606b6c67ff33338ab2c5c6a2d4c8" target="_top" xlink:title="Resets the LCD controller.">
<polygon fill="white" stroke="black" points="532,-501 532,-520 649,-520 649,-501 532,-501"/>
<text text-anchor="middle" x="590.5" y="-508" font-family="Helvetica,sans-Serif" font-size="10.00">drv_LcdInterface_Reset</text>
</a>
</g>
</g>
<!-- Node13&#45;&gt;Node15 -->
<g id="edge15" class="edge">
<title>Node13&#45;&gt;Node15</title>
<path fill="none" stroke="midnightblue" d="M449.76,-510.5C471.38,-510.5 497.71,-510.5 521.66,-510.5"/>
<polygon fill="midnightblue" stroke="midnightblue" points="521.75,-514 531.75,-510.5 521.75,-507 521.75,-514"/>
</g>
<!-- Node16 -->
<g id="node14" class="node">
<title>Node16</title>
<g id="a_node14"><a xlink:href="a00451.html#ga3e045335a3463f6a53e4fd91b50bb0ca" target="_top" xlink:title="Sends a command to the LCD controller.">
<polygon fill="white" stroke="black" points="1073.5,-482 1073.5,-501 1207.5,-501 1207.5,-482 1073.5,-482"/>
<text text-anchor="middle" x="1140.5" y="-489" font-family="Helvetica,sans-Serif" font-size="10.00">drv_LcdInterface_SendCmd</text>
</a>
</g>
</g>
<!-- Node13&#45;&gt;Node16 -->
<g id="edge16" class="edge">
<title>Node13&#45;&gt;Node16</title>
<path fill="none" stroke="midnightblue" d="M449.82,-516.19C462.11,-519 475.04,-523.21 486,-529.5 506.18,-541.07 500.63,-558.31 522,-567.5 732.86,-658.2 1019.15,-545.95 1110.34,-505.19"/>
<polygon fill="midnightblue" stroke="midnightblue" points="1111.86,-508.35 1119.52,-501.03 1108.97,-501.97 1111.86,-508.35"/>
</g>
<!-- Node17 -->
<g id="node15" class="node">
<title>Node17</title>
<g id="a_node15"><a xlink:href="a00453.html#ga50b8734fca19fc75dd778a9902c63082" target="_top" xlink:title="Sends data through the SPI interface to the LCD controller.">
<polygon fill="white" stroke="black" points="1252,-482 1252,-501 1380,-501 1380,-482 1252,-482"/>
<text text-anchor="middle" x="1316" y="-489" font-family="Helvetica,sans-Serif" font-size="10.00">drv_LcdInterface_SpiSend</text>
</a>
</g>
</g>
<!-- Node16&#45;&gt;Node17 -->
<g id="edge17" class="edge">
<title>Node16&#45;&gt;Node17</title>
<path fill="none" stroke="midnightblue" d="M1207.59,-491.5C1218.73,-491.5 1230.36,-491.5 1241.68,-491.5"/>
<polygon fill="midnightblue" stroke="midnightblue" points="1241.96,-495 1251.96,-491.5 1241.96,-488 1241.96,-495"/>
</g>
<!-- Node19 -->
<g id="node17" class="node">
<title>Node19</title>
<g id="a_node17"><a xlink:href="a00446.html#ga5c431635cb94750b2f6e938d7f1f0cf1" target="_top" xlink:title="Sets the cursor position to the given x&#45; and y&#45;coordinates.">
<polygon fill="white" stroke="black" points="905,-444 905,-463 995,-463 995,-444 905,-444"/>
<text text-anchor="middle" x="950" y="-451" font-family="Helvetica,sans-Serif" font-size="10.00">dev_Lcd_GotoXY</text>
</a>
</g>
</g>
<!-- Node18&#45;&gt;Node19 -->
<g id="edge19" class="edge">
<title>Node18&#45;&gt;Node19</title>
<path fill="none" stroke="midnightblue" d="M462.51,-453.5C568.35,-453.5 791.35,-453.5 894.52,-453.5"/>
<polygon fill="midnightblue" stroke="midnightblue" points="894.72,-457 904.72,-453.5 894.72,-450 894.72,-457"/>
</g>
<!-- Node20 -->
<g id="node18" class="node">
<title>Node20</title>
<g id="a_node18"><a xlink:href="a00446.html#gac07de05132918ca2db8cf4492819eca6" target="_top" xlink:title="Writes a complete string on the LCD screen.">
<polygon fill="white" stroke="black" points="537.5,-463 537.5,-482 643.5,-482 643.5,-463 537.5,-463"/>
<text text-anchor="middle" x="590.5" y="-470" font-family="Helvetica,sans-Serif" font-size="10.00">dev_Lcd_WriteString</text>
</a>
</g>
</g>
<!-- Node18&#45;&gt;Node20 -->
<g id="edge21" class="edge">
<title>Node18&#45;&gt;Node20</title>
<path fill="none" stroke="midnightblue" d="M462.53,-459.46C483.11,-461.57 506.35,-463.96 527.26,-466.11"/>
<polygon fill="midnightblue" stroke="midnightblue" points="527.02,-469.6 537.32,-467.14 527.73,-462.64 527.02,-469.6"/>
</g>
<!-- Node19&#45;&gt;Node16 -->
<g id="edge20" class="edge">
<title>Node19&#45;&gt;Node16</title>
<path fill="none" stroke="midnightblue" d="M995.19,-462.41C1021.17,-467.65 1054.29,-474.32 1082.24,-479.96"/>
<polygon fill="midnightblue" stroke="midnightblue" points="1081.79,-483.44 1092.29,-481.98 1083.18,-476.58 1081.79,-483.44"/>
</g>
<!-- Node21 -->
<g id="node19" class="node">
<title>Node21</title>
<g id="a_node19"><a xlink:href="a00446.html#ga3cb1303cba012af043a87af0bcab16d8" target="_top" xlink:title="Writes a character on the LCD screen.">
<polygon fill="white" stroke="black" points="714.5,-463 714.5,-482 815.5,-482 815.5,-463 714.5,-463"/>
<text text-anchor="middle" x="765" y="-470" font-family="Helvetica,sans-Serif" font-size="10.00">dev_Lcd_WriteChar</text>
</a>
</g>
</g>
<!-- Node20&#45;&gt;Node21 -->
<g id="edge22" class="edge">
<title>Node20&#45;&gt;Node21</title>
<path fill="none" stroke="midnightblue" d="M643.72,-472.5C662.81,-472.5 684.54,-472.5 704.23,-472.5"/>
<polygon fill="midnightblue" stroke="midnightblue" points="704.32,-476 714.32,-472.5 704.32,-469 704.32,-476"/>
</g>
<!-- Node21&#45;&gt;Node19 -->
<g id="edge25" class="edge">
<title>Node21&#45;&gt;Node19</title>
<path fill="none" stroke="midnightblue" d="M815.52,-467.36C839.99,-464.82 869.57,-461.75 894.66,-459.14"/>
<polygon fill="midnightblue" stroke="midnightblue" points="895.17,-462.61 904.75,-458.09 894.44,-455.65 895.17,-462.61"/>
</g>
<!-- Node22 -->
<g id="node20" class="node">
<title>Node22</title>
<g id="a_node20"><a xlink:href="a00446.html#ga0bff8adf9ea1196bdd69b3e47b2b77cd" target="_top" xlink:title="Clears the LC Display Screen.">
<polygon fill="white" stroke="black" points="910,-482 910,-501 990,-501 990,-482 910,-482"/>
<text text-anchor="middle" x="950" y="-489" font-family="Helvetica,sans-Serif" font-size="10.00">dev_Lcd_Clear</text>
</a>
</g>
</g>
<!-- Node21&#45;&gt;Node22 -->
<g id="edge23" class="edge">
<title>Node21&#45;&gt;Node22</title>
<path fill="none" stroke="midnightblue" d="M815.52,-477.64C841.69,-480.36 873.7,-483.68 899.81,-486.39"/>
<polygon fill="midnightblue" stroke="midnightblue" points="899.57,-489.89 909.88,-487.44 900.29,-482.92 899.57,-489.89"/>
</g>
<!-- Node22&#45;&gt;Node16 -->
<g id="edge24" class="edge">
<title>Node22&#45;&gt;Node16</title>
<path fill="none" stroke="midnightblue" d="M990.06,-491.5C1011.19,-491.5 1038.05,-491.5 1063.14,-491.5"/>
<polygon fill="midnightblue" stroke="midnightblue" points="1063.4,-495 1073.4,-491.5 1063.4,-488 1063.4,-495"/>
</g>
<!-- Node25 -->
<g id="node23" class="node">
<title>Node25</title>
<g id="a_node23"><a xlink:href="a00464.html#ga0b4cabdb02c8c9ea94ea1dfa39de3764" target="_top" xlink:title="This function initializes the control system feedback loop objects.">
<polygon fill="white" stroke="black" points="335.5,-213.5 335.5,-243.5 471.5,-243.5 471.5,-213.5 335.5,-213.5"/>
<text text-anchor="start" x="343.5" y="-231.5" font-family="Helvetica,sans-Serif" font-size="10.00">appPowerSupply_Controller</text>
<text text-anchor="middle" x="403.5" y="-220.5" font-family="Helvetica,sans-Serif" font-size="10.00">Initialize</text>
</a>
</g>
</g>
<!-- Node24&#45;&gt;Node25 -->
<g id="edge28" class="edge">
<title>Node24&#45;&gt;Node25</title>
<path fill="none" stroke="midnightblue" d="M285.25,-242.71C298.17,-241.15 311.87,-239.49 325.18,-237.87"/>
<polygon fill="midnightblue" stroke="midnightblue" points="325.76,-241.33 335.27,-236.65 324.92,-234.38 325.76,-241.33"/>
</g>
<!-- Node30 -->
<g id="node28" class="node">
<title>Node30</title>
<g id="a_node28"><a xlink:href="a00464.html#gad0f6ff4894bf23722884c60bbcdcacd0" target="_top" xlink:title="This function initializes the buck converter device driver instance.">
<polygon fill="white" stroke="black" points="336,-164.5 336,-194.5 471,-194.5 471,-164.5 336,-164.5"/>
<text text-anchor="start" x="344" y="-182.5" font-family="Helvetica,sans-Serif" font-size="10.00">appPowerSupply_Converter</text>
<text text-anchor="middle" x="403.5" y="-171.5" font-family="Helvetica,sans-Serif" font-size="10.00">ObjectInitialize</text>
</a>
</g>
</g>
<!-- Node24&#45;&gt;Node30 -->
<g id="edge34" class="edge">
<title>Node24&#45;&gt;Node30</title>
<path fill="none" stroke="midnightblue" d="M239.85,-240.91C259.71,-231.02 292.07,-215.53 321,-204.5 326.99,-202.22 333.29,-199.99 339.61,-197.86"/>
<polygon fill="midnightblue" stroke="midnightblue" points="341.12,-201.05 349.54,-194.62 338.95,-194.4 341.12,-201.05"/>
</g>
<!-- Node31 -->
<g id="node29" class="node">
<title>Node31</title>
<g id="a_node29"><a xlink:href="a00464.html#ga0b26acfec74d1804384b4ba1a3cffab4" target="_top" xlink:title="This function is used to load peripheral configuration templates from the power controller device dri...">
<polygon fill="white" stroke="black" points="332,-314.5 332,-344.5 475,-344.5 475,-314.5 332,-314.5"/>
<text text-anchor="start" x="340" y="-332.5" font-family="Helvetica,sans-Serif" font-size="10.00">appPowerSupply_Peripherals</text>
<text text-anchor="middle" x="403.5" y="-321.5" font-family="Helvetica,sans-Serif" font-size="10.00">Initialize</text>
</a>
</g>
</g>
<!-- Node24&#45;&gt;Node31 -->
<g id="edge35" class="edge">
<title>Node24&#45;&gt;Node31</title>
<path fill="none" stroke="midnightblue" d="M259.15,-260.06C267.81,-262.71 276.85,-265.87 285,-269.5 302.13,-277.12 304.48,-282.64 321,-291.5 333.06,-297.97 346.41,-304.46 358.77,-310.21"/>
<polygon fill="midnightblue" stroke="midnightblue" points="357.43,-313.44 367.98,-314.44 360.35,-307.08 357.43,-313.44"/>
</g>
<!-- Node44 -->
<g id="node42" class="node">
<title>Node44</title>
<g id="a_node42"><a xlink:href="a00468.html#ga86289c82938655142075e84ac90aa603" target="_top" xlink:title="This function starts the buck converter.">
<polygon fill="white" stroke="black" points="342,-263 342,-282 465,-282 465,-263 342,-263"/>
<text text-anchor="middle" x="403.5" y="-270" font-family="Helvetica,sans-Serif" font-size="10.00">drv_BuckConverter_Start</text>
</a>
</g>
</g>
<!-- Node24&#45;&gt;Node44 -->
<g id="edge50" class="edge">
<title>Node24&#45;&gt;Node44</title>
<path fill="none" stroke="midnightblue" d="M285.25,-258.29C300.39,-260.12 316.61,-262.09 332.01,-263.96"/>
<polygon fill="midnightblue" stroke="midnightblue" points="331.64,-267.44 341.99,-265.17 332.48,-260.49 331.64,-267.44"/>
</g>
<!-- Node26 -->
<g id="node24" class="node">
<title>Node26</title>
<g id="a_node24"><a xlink:href="a00503.html#ga62d45a18f3dd47fa691fbb463f90e051" target="_top" xlink:title="Initializes controller coefficient arrays and normalization factors.">
<polygon fill="white" stroke="black" points="548.5,-143 548.5,-162 632.5,-162 632.5,-143 548.5,-143"/>
<text text-anchor="middle" x="590.5" y="-150" font-family="Helvetica,sans-Serif" font-size="10.00">v_loop_Initialize</text>
</a>
</g>
</g>
<!-- Node25&#45;&gt;Node26 -->
<g id="edge29" class="edge">
<title>Node25&#45;&gt;Node26</title>
<path fill="none" stroke="midnightblue" d="M466.7,-213.45C473.4,-210.88 479.96,-207.91 486,-204.5 504.9,-193.83 503.04,-182.06 522,-171.5 527.18,-168.62 532.83,-166.14 538.58,-164.03"/>
<polygon fill="midnightblue" stroke="midnightblue" points="539.92,-167.27 548.3,-160.79 537.71,-160.63 539.92,-167.27"/>
</g>
<!-- Node27 -->
<g id="node25" class="node">
<title>Node27</title>
<g id="a_node25"><a xlink:href="a00503.html#gabb35e824b8586b680f54d59975ada3c7" target="_top" xlink:title="Prototype of the Assembly routine &#39;_v_loop_Reset&#39; clearing the NPNZ16b controller output and error hi...">
<polygon fill="white" stroke="black" points="728,-126 728,-145 802,-145 802,-126 728,-126"/>
<text text-anchor="middle" x="765" y="-133" font-family="Helvetica,sans-Serif" font-size="10.00">v_loop_Reset</text>
</a>
</g>
</g>
<!-- Node25&#45;&gt;Node27 -->
<g id="edge32" class="edge">
<title>Node25&#45;&gt;Node27</title>
<path fill="none" stroke="midnightblue" d="M471.77,-213.73C476.87,-211.13 481.69,-208.08 486,-204.5 513.2,-181.87 491.85,-152.02 522,-133.5 584.3,-95.24 673.72,-109.92 724.6,-123.24"/>
<polygon fill="midnightblue" stroke="midnightblue" points="723.98,-126.7 734.55,-125.96 725.83,-119.95 723.98,-126.7"/>
</g>
<!-- Node28 -->
<g id="node26" class="node">
<title>Node28</title>
<g id="a_node26"><a xlink:href="a00503.html#ga3cdf7d86ab440015768706f04bd588e9" target="_top" xlink:title="Prototype of the Assembly routine &#39;_v_loop_Precharge&#39; loading user&#45;defined values into the NPNZ16b co...">
<polygon fill="white" stroke="black" points="544,-219 544,-238 637,-238 637,-219 544,-219"/>
<text text-anchor="middle" x="590.5" y="-226" font-family="Helvetica,sans-Serif" font-size="10.00">v_loop_Precharge</text>
</a>
</g>
</g>
<!-- Node25&#45;&gt;Node28 -->
<g id="edge31" class="edge">
<title>Node25&#45;&gt;Node28</title>
<path fill="none" stroke="midnightblue" d="M471.55,-228.5C491.89,-228.5 514,-228.5 533.53,-228.5"/>
<polygon fill="midnightblue" stroke="midnightblue" points="533.78,-232 543.78,-228.5 533.78,-225 533.78,-232"/>
</g>
<!-- Node29 -->
<g id="node27" class="node">
<title>Node29</title>
<g id="a_node27"><a xlink:href="a00503.html#gab8180f1cb973d694be5caffaec3ce940" target="_top" xlink:title="Prototype of the Assembly feedback control loop routine helping to call the v_loop controller from C&#45;...">
<polygon fill="white" stroke="black" points="550.5,-181 550.5,-200 630.5,-200 630.5,-181 550.5,-181"/>
<text text-anchor="middle" x="590.5" y="-188" font-family="Helvetica,sans-Serif" font-size="10.00">v_loop_Update</text>
</a>
</g>
</g>
<!-- Node25&#45;&gt;Node29 -->
<g id="edge33" class="edge">
<title>Node25&#45;&gt;Node29</title>
<path fill="none" stroke="midnightblue" d="M471.55,-214.73C494.3,-210.05 519.28,-204.92 540.37,-200.59"/>
<polygon fill="midnightblue" stroke="midnightblue" points="541.29,-203.98 550.38,-198.54 539.88,-197.12 541.29,-203.98"/>
</g>
<!-- Node26&#45;&gt;Node27 -->
<g id="edge30" class="edge">
<title>Node26&#45;&gt;Node27</title>
<path fill="none" stroke="midnightblue" d="M632.82,-148.43C658.42,-145.9 691.36,-142.66 717.82,-140.05"/>
<polygon fill="midnightblue" stroke="midnightblue" points="718.38,-143.51 727.99,-139.05 717.69,-136.55 718.38,-143.51"/>
</g>
<!-- Node32 -->
<g id="node30" class="node">
<title>Node32</title>
<g id="a_node30"><a xlink:href="a00468.html#gaf3c64772d6dfd473d6924fb8893bd180" target="_top" xlink:title="This function initializes all peripheral modules and their instances used by the power controller.">
<polygon fill="white" stroke="black" points="522,-333 522,-352 659,-352 659,-333 522,-333"/>
<text text-anchor="middle" x="590.5" y="-340" font-family="Helvetica,sans-Serif" font-size="10.00">drv_BuckConverter_Initialize</text>
</a>
</g>
</g>
<!-- Node31&#45;&gt;Node32 -->
<g id="edge36" class="edge">
<title>Node31&#45;&gt;Node32</title>
<path fill="none" stroke="midnightblue" d="M475.23,-334.47C487.19,-335.31 499.65,-336.19 511.77,-337.04"/>
<polygon fill="midnightblue" stroke="midnightblue" points="511.63,-340.54 521.85,-337.75 512.12,-333.55 511.63,-340.54"/>
</g>
<!-- Node33 -->
<g id="node31" class="node">
<title>Node33</title>
<g id="a_node31"><a xlink:href="a00491.html#gac2bfd6c3ccd9ec11b8e91322ea9354d2" target="_top" xlink:title="This function initializes the settings for the ADC channel.">
<polygon fill="white" stroke="black" points="698,-349 698,-368 832,-368 832,-349 698,-349"/>
<text text-anchor="middle" x="765" y="-356" font-family="Helvetica,sans-Serif" font-size="10.00">buckADC_ChannelInitialize</text>
</a>
</g>
</g>
<!-- Node32&#45;&gt;Node33 -->
<g id="edge37" class="edge">
<title>Node32&#45;&gt;Node33</title>
<path fill="none" stroke="midnightblue" d="M659.18,-348.78C668.54,-349.65 678.2,-350.54 687.7,-351.42"/>
<polygon fill="midnightblue" stroke="midnightblue" points="687.65,-354.93 697.93,-352.37 688.29,-347.96 687.65,-354.93"/>
</g>
<!-- Node34 -->
<g id="node32" class="node">
<title>Node34</title>
<g id="a_node32"><a xlink:href="a00491.html#ga44f537d9ad5dcb0e744480802cfbf170" target="_top" xlink:title="This fucntion initializes the buck by resetting all its registers to default.">
<polygon fill="white" stroke="black" points="700,-311 700,-330 830,-330 830,-311 700,-311"/>
<text text-anchor="middle" x="765" y="-318" font-family="Helvetica,sans-Serif" font-size="10.00">buckADC_ModuleInitialize</text>
</a>
</g>
</g>
<!-- Node32&#45;&gt;Node34 -->
<g id="edge38" class="edge">
<title>Node32&#45;&gt;Node34</title>
<path fill="none" stroke="midnightblue" d="M659.18,-333.87C669.23,-332.59 679.64,-331.26 689.82,-329.96"/>
<polygon fill="midnightblue" stroke="midnightblue" points="690.42,-333.41 699.9,-328.68 689.53,-326.47 690.42,-333.41"/>
</g>
<!-- Node35 -->
<g id="node33" class="node">
<title>Node35</title>
<g id="a_node33"><a xlink:href="a00491.html#gac7e5924475733c189b2318844ae01844" target="_top" xlink:title="This function initializes the buck input pins.">
<polygon fill="white" stroke="black" points="714,-273 714,-292 816,-292 816,-273 714,-273"/>
<text text-anchor="middle" x="765" y="-280" font-family="Helvetica,sans-Serif" font-size="10.00">buckGPIO_Initialize</text>
</a>
</g>
</g>
<!-- Node32&#45;&gt;Node35 -->
<g id="edge39" class="edge">
<title>Node32&#45;&gt;Node35</title>
<path fill="none" stroke="midnightblue" d="M620.31,-332.96C632.37,-328.79 646.47,-323.67 659,-318.5 675.36,-311.75 678.41,-307.65 695,-301.5 701.34,-299.15 708.1,-296.94 714.82,-294.92"/>
<polygon fill="midnightblue" stroke="midnightblue" points="715.95,-298.24 724.58,-292.09 714,-291.51 715.95,-298.24"/>
</g>
<!-- Node38 -->
<g id="node37" class="node">
<title>Node38</title>
<g id="a_node37"><a xlink:href="a00491.html#ga45a54def97cc67eb8d36e22a3867d95f" target="_top" xlink:title="This function initializes the output pins for the PWM output and the default buck PWM settings.">
<polygon fill="white" stroke="black" points="696,-230 696,-249 834,-249 834,-230 696,-230"/>
<text text-anchor="middle" x="765" y="-237" font-family="Helvetica,sans-Serif" font-size="10.00">buckPWM_ChannelInitialize</text>
</a>
</g>
</g>
<!-- Node32&#45;&gt;Node38 -->
<g id="edge44" class="edge">
<title>Node32&#45;&gt;Node38</title>
<path fill="none" stroke="midnightblue" d="M631.9,-332.92C641.42,-329.42 651.08,-324.73 659,-318.5 681.96,-300.44 671.97,-281.48 695,-263.5 700.37,-259.3 706.53,-255.81 712.91,-252.91"/>
<polygon fill="midnightblue" stroke="midnightblue" points="714.4,-256.09 722.34,-249.08 711.76,-249.6 714.4,-256.09"/>
</g>
<!-- Node41 -->
<g id="node40" class="node">
<title>Node41</title>
<g id="a_node40"><a xlink:href="a00491.html#ga6d12fd9e2f1d4f01ec6db21454693863" target="_top" xlink:title="Initializes the buck PWM module by resetting its registers to default.">
<polygon fill="white" stroke="red" points="698,-387 698,-406 832,-406 832,-387 698,-387"/>
<text text-anchor="middle" x="765" y="-394" font-family="Helvetica,sans-Serif" font-size="10.00">buckPWM_ModuleInitialize</text>
</a>
</g>
</g>
<!-- Node32&#45;&gt;Node41 -->
<g id="edge48" class="edge">
<title>Node32&#45;&gt;Node41</title>
<path fill="none" stroke="midnightblue" d="M618.6,-352.14C639.4,-359.42 668.88,-369.5 695,-377.5 702.35,-379.75 710.18,-382.03 717.83,-384.18"/>
<polygon fill="midnightblue" stroke="midnightblue" points="717.15,-387.62 727.72,-386.93 719.02,-380.88 717.15,-387.62"/>
</g>
<!-- Node36 -->
<g id="node34" class="node">
<title>Node36</title>
<g id="a_node34"><a xlink:href="a00491.html#ga7f1d554e08d756b8677b572216908a3a" target="_top" xlink:title="This function clears the selected general purpose input/output pin.">
<polygon fill="white" stroke="black" points="905.5,-295 905.5,-314 994.5,-314 994.5,-295 905.5,-295"/>
<text text-anchor="middle" x="950" y="-302" font-family="Helvetica,sans-Serif" font-size="10.00">buckGPIO_Clear</text>
</a>
</g>
</g>
<!-- Node35&#45;&gt;Node36 -->
<g id="edge40" class="edge">
<title>Node35&#45;&gt;Node36</title>
<path fill="none" stroke="midnightblue" d="M816.01,-288.51C840.56,-291.46 870.17,-295.02 895.22,-298.03"/>
<polygon fill="midnightblue" stroke="midnightblue" points="894.94,-301.53 905.28,-299.24 895.77,-294.58 894.94,-301.53"/>
</g>
<!-- Node37 -->
<g id="node36" class="node">
<title>Node37</title>
<g id="a_node36"><a xlink:href="a00491.html#ga3d3f91c0e40884874e7df3a67fff23f3" target="_top" xlink:title="This function sets the pin as input or output.">
<polygon fill="white" stroke="black" points="884.5,-333 884.5,-352 1015.5,-352 1015.5,-333 884.5,-333"/>
<text text-anchor="middle" x="950" y="-340" font-family="Helvetica,sans-Serif" font-size="10.00">buckGPIO_PrivateInitialize</text>
</a>
</g>
</g>
<!-- Node35&#45;&gt;Node37 -->
<g id="edge42" class="edge">
<title>Node35&#45;&gt;Node37</title>
<path fill="none" stroke="midnightblue" d="M807.88,-292.01C816.99,-294.63 826.45,-297.8 835,-301.5 852.21,-308.95 853.68,-316.31 871,-323.5 876.91,-325.96 883.21,-328.14 889.58,-330.08"/>
<polygon fill="midnightblue" stroke="midnightblue" points="889,-333.55 899.58,-332.91 890.91,-326.82 889,-333.55"/>
</g>
<!-- Node8 -->
<g id="node35" class="node">
<title>Node8</title>
<g id="a_node35"><a xlink:href="a00368.html#ga4d67af688d8f7f911d79107974e11e6b" target="_top" xlink:title="Gets pointer to GPIO Instance SFR set.">
<polygon fill="white" stroke="black" points="1065,-295 1065,-314 1216,-314 1216,-295 1065,-295"/>
<text text-anchor="middle" x="1140.5" y="-302" font-family="Helvetica,sans-Serif" font-size="10.00">p33c_GpioInstance_GetHandle</text>
</a>
</g>
</g>
<!-- Node36&#45;&gt;Node8 -->
<g id="edge41" class="edge">
<title>Node36&#45;&gt;Node8</title>
<path fill="none" stroke="midnightblue" d="M994.72,-304.5C1012.66,-304.5 1034.08,-304.5 1054.86,-304.5"/>
<polygon fill="midnightblue" stroke="midnightblue" points="1055,-308 1065,-304.5 1055,-301 1055,-308"/>
</g>
<!-- Node37&#45;&gt;Node8 -->
<g id="edge43" class="edge">
<title>Node37&#45;&gt;Node8</title>
<path fill="none" stroke="midnightblue" d="M998.57,-332.91C1024,-327.78 1055.5,-321.43 1082.27,-316.04"/>
<polygon fill="midnightblue" stroke="midnightblue" points="1083.16,-319.43 1092.28,-314.02 1081.78,-312.57 1083.16,-319.43"/>
</g>
<!-- Node38&#45;&gt;Node8 -->
<g id="edge45" class="edge">
<title>Node38&#45;&gt;Node8</title>
<path fill="none" stroke="midnightblue" d="M820.83,-229.98C874.87,-222.65 959.25,-216.76 1029,-236.5 1064.62,-246.58 1100.05,-271.75 1120.85,-288.47"/>
<polygon fill="midnightblue" stroke="midnightblue" points="1118.64,-291.18 1128.58,-294.84 1123.09,-285.78 1118.64,-291.18"/>
</g>
<!-- Node39 -->
<g id="node38" class="node">
<title>Node39</title>
<g id="a_node38"><a xlink:href="a00372.html#gab66f225bac6b132d1418a4c808e3babb" target="_top" xlink:title="Disposes a given PWM generator by resetting all its registers to default.">
<polygon fill="white" stroke="black" points="880,-245.5 880,-275.5 1020,-275.5 1020,-245.5 880,-245.5"/>
<text text-anchor="start" x="888" y="-263.5" font-family="Helvetica,sans-Serif" font-size="10.00">p33c_PwmGenerator_Config</text>
<text text-anchor="middle" x="950" y="-252.5" font-family="Helvetica,sans-Serif" font-size="10.00">Write</text>
</a>
</g>
</g>
<!-- Node38&#45;&gt;Node39 -->
<g id="edge46" class="edge">
<title>Node38&#45;&gt;Node39</title>
<path fill="none" stroke="midnightblue" d="M834.14,-247.32C845.7,-248.65 857.78,-250.03 869.59,-251.39"/>
<polygon fill="midnightblue" stroke="midnightblue" points="869.55,-254.91 879.88,-252.57 870.35,-247.95 869.55,-254.91"/>
</g>
<!-- Node40 -->
<g id="node39" class="node">
<title>Node40</title>
<g id="a_node39"><a xlink:href="a00372.html#ga55e525c7ac54a365ab6dad558ec17f0b" target="_top" xlink:title="Returns the PWM generator index.">
<polygon fill="white" stroke="black" points="871,-169 871,-188 1029,-188 1029,-169 871,-169"/>
<text text-anchor="middle" x="950" y="-176" font-family="Helvetica,sans-Serif" font-size="10.00">p33c_PwmGenerator_GetHandle</text>
</a>
</g>
</g>
<!-- Node38&#45;&gt;Node40 -->
<g id="edge47" class="edge">
<title>Node38&#45;&gt;Node40</title>
<path fill="none" stroke="midnightblue" d="M792.22,-229.93C813.4,-222.28 844.02,-211.4 871,-202.5 882.77,-198.62 895.61,-194.58 907.41,-190.96"/>
<polygon fill="midnightblue" stroke="midnightblue" points="908.49,-194.29 917.03,-188.02 906.44,-187.59 908.49,-194.29"/>
</g>
<!-- Node42 -->
<g id="node41" class="node">
<title>Node42</title>
<g id="a_node41"><a xlink:href="a00372.html#ga8075fd40f867be8f42bb806622bd91bd" target="_top" xlink:title="Writes a user&#45;defined configuration to the PWM base module registers.">
<polygon fill="white" stroke="black" points="874,-387 874,-406 1026,-406 1026,-387 874,-387"/>
<text text-anchor="middle" x="950" y="-394" font-family="Helvetica,sans-Serif" font-size="10.00">p33c_PwmModule_ConfigWrite</text>
</a>
</g>
</g>
<!-- Node41&#45;&gt;Node42 -->
<g id="edge49" class="edge">
<title>Node41&#45;&gt;Node42</title>
<path fill="none" stroke="midnightblue" d="M832.07,-396.5C842.31,-396.5 853.01,-396.5 863.6,-396.5"/>
<polygon fill="midnightblue" stroke="midnightblue" points="863.71,-400 873.71,-396.5 863.71,-393 863.71,-400"/>
</g>
<!-- Node45 -->
<g id="node43" class="node">
<title>Node45</title>
<g id="a_node43"><a xlink:href="a00491.html#gab089e35bcd5d68072aa53298ee276959" target="_top" xlink:title="This function enables the ADC module and starts the ADC cores analog inputs for the required input si...">
<polygon fill="white" stroke="black" points="548.5,-257 548.5,-276 632.5,-276 632.5,-257 548.5,-257"/>
<text text-anchor="middle" x="590.5" y="-264" font-family="Helvetica,sans-Serif" font-size="10.00">buckADC_Start</text>
</a>
</g>
</g>
<!-- Node44&#45;&gt;Node45 -->
<g id="edge51" class="edge">
<title>Node44&#45;&gt;Node45</title>
<path fill="none" stroke="midnightblue" d="M465.08,-270.54C488.74,-269.77 515.59,-268.9 538.27,-268.16"/>
<polygon fill="midnightblue" stroke="midnightblue" points="538.49,-271.66 548.37,-267.83 538.27,-264.66 538.49,-271.66"/>
</g>
<!-- Node46 -->
<g id="node44" class="node">
<title>Node46</title>
<g id="a_node44"><a xlink:href="a00491.html#gac63073d04bc35c0cce5df47ea0d33165" target="_top" xlink:title="This function enables the buck PWM operation.">
<polygon fill="white" stroke="black" points="720.5,-183 720.5,-202 809.5,-202 809.5,-183 720.5,-183"/>
<text text-anchor="middle" x="765" y="-190" font-family="Helvetica,sans-Serif" font-size="10.00">buckPWM_Start</text>
</a>
</g>
</g>
<!-- Node44&#45;&gt;Node46 -->
<g id="edge52" class="edge">
<title>Node44&#45;&gt;Node46</title>
<path fill="none" stroke="midnightblue" d="M429.04,-282.09C477.03,-299.14 585.06,-329.07 659,-285.5 687.45,-268.73 670.29,-242.41 695,-220.5 701.68,-214.58 709.77,-209.82 718.03,-206.02"/>
<polygon fill="midnightblue" stroke="midnightblue" points="719.48,-209.21 727.36,-202.13 716.78,-202.75 719.48,-209.21"/>
</g>
<!-- Node46&#45;&gt;Node40 -->
<g id="edge53" class="edge">
<title>Node46&#45;&gt;Node40</title>
<path fill="none" stroke="midnightblue" d="M809.83,-189.15C825.12,-187.98 842.88,-186.62 860.49,-185.27"/>
<polygon fill="midnightblue" stroke="midnightblue" points="861.12,-188.73 870.82,-184.48 860.58,-181.75 861.12,-188.73"/>
</g>
<!-- Node48 -->
<g id="node46" class="node">
<title>Node48</title>
<g id="a_node46"><a xlink:href="a00513.html#ga3966fddf4ec29e64c6d51a93eee8706f" target="_top" xlink:title="Push button event raised at the &quot;pressed&quot; transition.">
<polygon fill="white" stroke="black" points="321,-50 321,-69 486,-69 486,-50 321,-50"/>
<text text-anchor="middle" x="403.5" y="-57" font-family="Helvetica,sans-Serif" font-size="10.00">appPushButton_EventButtonDown</text>
</a>
</g>
</g>
<!-- Node47&#45;&gt;Node48 -->
<g id="edge55" class="edge">
<title>Node47&#45;&gt;Node48</title>
<path fill="none" stroke="midnightblue" d="M257.65,-106.97C266.71,-104.25 276.31,-101.04 285,-97.5 301.75,-90.67 304.05,-84.83 321,-78.5 327.83,-75.95 335.12,-73.67 342.41,-71.65"/>
<polygon fill="midnightblue" stroke="midnightblue" points="343.54,-74.97 352.33,-69.06 341.77,-68.2 343.54,-74.97"/>
</g>
<!-- Node49 -->
<g id="node47" class="node">
<title>Node49</title>
<g id="a_node47"><a xlink:href="a00513.html#ga6192986e06dbca144461c0315a2a100f" target="_top" xlink:title="Push button event raised at the &quot;is long pressed&quot; detection.">
<polygon fill="white" stroke="black" points="333,-0.5 333,-30.5 474,-30.5 474,-0.5 333,-0.5"/>
<text text-anchor="start" x="341" y="-18.5" font-family="Helvetica,sans-Serif" font-size="10.00">appPushButton_EventButton</text>
<text text-anchor="middle" x="403.5" y="-7.5" font-family="Helvetica,sans-Serif" font-size="10.00">LongPress</text>
</a>
</g>
</g>
<!-- Node47&#45;&gt;Node49 -->
<g id="edge56" class="edge">
<title>Node47&#45;&gt;Node49</title>
<path fill="none" stroke="midnightblue" d="M268.01,-106.87C274.06,-104.42 279.92,-101.35 285,-97.5 308.89,-79.41 297.19,-58.69 321,-40.5 323.45,-38.63 326.04,-36.9 328.73,-35.29"/>
<polygon fill="midnightblue" stroke="midnightblue" points="330.42,-38.36 337.63,-30.6 327.15,-32.17 330.42,-38.36"/>
</g>
<!-- Node50 -->
<g id="node48" class="node">
<title>Node50</title>
<g id="a_node48"><a xlink:href="a00513.html#ga13f736396ad1222ff5cbe35947bd60ac" target="_top" xlink:title="Push button event raised at the &quot;not pressed&quot; transition.">
<polygon fill="white" stroke="black" points="327,-126 327,-145 480,-145 480,-126 327,-126"/>
<text text-anchor="middle" x="403.5" y="-133" font-family="Helvetica,sans-Serif" font-size="10.00">appPushButton_EventButtonUp</text>
</a>
</g>
</g>
<!-- Node47&#45;&gt;Node50 -->
<g id="edge57" class="edge">
<title>Node47&#45;&gt;Node50</title>
<path fill="none" stroke="midnightblue" d="M282.19,-122.91C293.26,-124.06 304.98,-125.29 316.6,-126.51"/>
<polygon fill="midnightblue" stroke="midnightblue" points="316.45,-130.01 326.76,-127.57 317.18,-123.05 316.45,-130.01"/>
</g>
<!-- Node51 -->
<g id="node49" class="node">
<title>Node51</title>
<g id="a_node49"><a xlink:href="a00516.html#gaa3ce9c320a37ebc6e1ae113c82e68747" target="_top" xlink:title="Initializes the push button device driver.">
<polygon fill="white" stroke="black" points="341,-88 341,-107 466,-107 466,-88 341,-88"/>
<text text-anchor="middle" x="403.5" y="-95" font-family="Helvetica,sans-Serif" font-size="10.00">drv_PushButton_Initialize</text>
</a>
</g>
</g>
<!-- Node47&#45;&gt;Node51 -->
<g id="edge58" class="edge">
<title>Node47&#45;&gt;Node51</title>
<path fill="none" stroke="midnightblue" d="M282.19,-110.09C297.73,-108.47 314.56,-106.71 330.57,-105.03"/>
<polygon fill="midnightblue" stroke="midnightblue" points="331.37,-108.47 340.95,-103.94 330.64,-101.5 331.37,-108.47"/>
</g>
</g>
</svg>
