<?xml version="1.0" encoding="UTF-8" standalone="no"?>
<!DOCTYPE svg PUBLIC "-//W3C//DTD SVG 1.1//EN"
 "http://www.w3.org/Graphics/SVG/1.1/DTD/svg11.dtd">
<!-- Generated by graphviz version 2.44.1 (20200629.0846)
 -->
<!-- Title: Hardware Abstraction Layer Pages: 1 -->
<svg width="282pt" height="592pt"
 viewBox="0.00 0.00 282.00 592.00" xmlns="http://www.w3.org/2000/svg" xmlns:xlink="http://www.w3.org/1999/xlink">
<g id="graph0" class="graph" transform="scale(1 1) rotate(0) translate(4 588)">
<title>Hardware Abstraction Layer</title>
<polygon fill="white" stroke="transparent" points="-4,4 -4,-588 278,-588 278,4 -4,4"/>
<!-- Node5 -->
<g id="node1" class="node">
<title>Node5</title>
<g id="a_node1"><a xlink:href="a00386.html" target="_top" xlink:title="Declaration of startup timing periods.">
<polygon fill="white" stroke="black" points="269.5,-584 150.5,-584 150.5,-565 269.5,-565 269.5,-584"/>
<text text-anchor="middle" x="210" y="-572" font-family="Helvetica,sans-Serif" font-size="10.00">Startup Timing Settings</text>
</a>
</g>
</g>
<!-- Node1 -->
<g id="node2" class="node">
<title>Node1</title>
<g id="a_node2"><a xlink:title="Hardware Abstraction Layer Declarations.">
<polygon fill="#bfbfbf" stroke="black" points="110,-318.5 0,-318.5 0,-288.5 110,-288.5 110,-318.5"/>
<text text-anchor="start" x="8" y="-306.5" font-family="Helvetica,sans-Serif" font-size="10.00">Hardware Abstraction</text>
<text text-anchor="middle" x="55" y="-295.5" font-family="Helvetica,sans-Serif" font-size="10.00"> Layer</text>
</a>
</g>
</g>
<!-- Node1&#45;&gt;Node5 -->
<g id="edge4" class="edge">
<title>Node1&#45;&gt;Node5</title>
<path fill="none" stroke="black" d="M57.56,-328.65C62.07,-379.3 79.49,-494.08 146,-556.5 149.65,-559.93 153.91,-562.7 158.45,-564.96"/>
<polygon fill="black" stroke="black" points="61.04,-328.27 56.76,-318.58 54.06,-328.83 61.04,-328.27"/>
</g>
<!-- Node15 -->
<g id="node3" class="node">
<title>Node15</title>
<g id="a_node3"><a xlink:href="a00436.html" target="_top" xlink:title=" ">
<polygon fill="white" stroke="black" points="267.5,-547 152.5,-547 152.5,-528 267.5,-528 267.5,-547"/>
<text text-anchor="middle" x="210" y="-535" font-family="Helvetica,sans-Serif" font-size="10.00">Special Circuit Signals</text>
</a>
</g>
</g>
<!-- Node1&#45;&gt;Node15 -->
<g id="edge14" class="edge">
<title>Node1&#45;&gt;Node15</title>
<path fill="none" stroke="black" d="M59.33,-328.72C66.62,-373.76 88.24,-468.11 146,-519.5 149.82,-522.9 154.25,-525.67 158.95,-527.91"/>
<polygon fill="black" stroke="black" points="62.76,-328 57.8,-318.63 55.84,-329.04 62.76,-328"/>
</g>
<!-- Node8 -->
<g id="node4" class="node">
<title>Node8</title>
<g id="a_node4"><a xlink:href="a00403.html" target="_top" xlink:title="Declaration of input voltage feedback parameters.">
<polygon fill="white" stroke="black" points="269.5,-510 150.5,-510 150.5,-491 269.5,-491 269.5,-510"/>
<text text-anchor="middle" x="210" y="-498" font-family="Helvetica,sans-Serif" font-size="10.00">Input Voltage Feedback</text>
</a>
</g>
</g>
<!-- Node1&#45;&gt;Node8 -->
<g id="edge7" class="edge">
<title>Node1&#45;&gt;Node8</title>
<path fill="none" stroke="black" d="M61.7,-328.5C71.85,-367.29 96.78,-441.74 146,-482.5 150.12,-485.91 154.85,-488.67 159.82,-490.92"/>
<polygon fill="black" stroke="black" points="65.04,-327.42 59.22,-318.56 58.25,-329.11 65.04,-327.42"/>
</g>
<!-- Node4 -->
<g id="node5" class="node">
<title>Node4</title>
<g id="a_node5"><a xlink:href="a00382.html" target="_top" xlink:title="Declaration of global state&#45;machine parameters.">
<polygon fill="white" stroke="black" points="269.5,-473 150.5,-473 150.5,-454 269.5,-454 269.5,-473"/>
<text text-anchor="middle" x="210" y="-461" font-family="Helvetica,sans-Serif" font-size="10.00">State Machine Settings</text>
</a>
</g>
</g>
<!-- Node1&#45;&gt;Node4 -->
<g id="edge3" class="edge">
<title>Node1&#45;&gt;Node4</title>
<path fill="none" stroke="black" d="M65.23,-328.43C78.32,-360.32 105.29,-415.06 146,-445.5 150.55,-448.91 155.73,-451.67 161.12,-453.91"/>
<polygon fill="black" stroke="black" points="68.41,-326.95 61.47,-318.94 61.9,-329.52 68.41,-326.95"/>
</g>
<!-- Node10 -->
<g id="node6" class="node">
<title>Node10</title>
<g id="a_node6"><a xlink:href="a00417.html" target="_top" xlink:title="Declaration of phase current feedback parameters.">
<polygon fill="white" stroke="black" points="272.5,-436 147.5,-436 147.5,-417 272.5,-417 272.5,-436"/>
<text text-anchor="middle" x="210" y="-424" font-family="Helvetica,sans-Serif" font-size="10.00">Phase Current Feedback</text>
</a>
</g>
</g>
<!-- Node1&#45;&gt;Node10 -->
<g id="edge9" class="edge">
<title>Node1&#45;&gt;Node10</title>
<path fill="none" stroke="black" d="M70.54,-327.03C86.33,-350.67 113.67,-386.54 146,-407.5 151.94,-411.35 158.7,-414.45 165.54,-416.94"/>
<polygon fill="black" stroke="black" points="73.46,-325.09 65.07,-318.62 67.59,-328.91 73.46,-325.09"/>
</g>
<!-- Node12 -->
<g id="node7" class="node">
<title>Node12</title>
<g id="a_node7"><a xlink:href="a00428.html" target="_top" xlink:title="Declaration of macros calculating additional parameters for Adaptive Gain Modulation.">
<polygon fill="white" stroke="black" points="265,-398.5 155,-398.5 155,-368.5 265,-368.5 265,-398.5"/>
<text text-anchor="start" x="163" y="-386.5" font-family="Helvetica,sans-Serif" font-size="10.00">Adaptive Gain Control</text>
<text text-anchor="middle" x="210" y="-375.5" font-family="Helvetica,sans-Serif" font-size="10.00"> Feed Forward</text>
</a>
</g>
</g>
<!-- Node1&#45;&gt;Node12 -->
<g id="edge11" class="edge">
<title>Node1&#45;&gt;Node12</title>
<path fill="none" stroke="black" d="M85.97,-324.18C103.09,-335.47 125.22,-349.2 146,-359.5 152.4,-362.67 159.32,-365.69 166.16,-368.46"/>
<polygon fill="black" stroke="black" points="87.77,-321.17 77.51,-318.53 83.88,-326.99 87.77,-321.17"/>
</g>
<!-- Node11 -->
<g id="node8" class="node">
<title>Node11</title>
<g id="a_node8"><a xlink:href="a00424.html" target="_top" xlink:title="Declaration of temperature feedback parameters.">
<polygon fill="white" stroke="black" points="268,-350 152,-350 152,-331 268,-331 268,-350"/>
<text text-anchor="middle" x="210" y="-338" font-family="Helvetica,sans-Serif" font-size="10.00">Temperature Feedback</text>
</a>
</g>
</g>
<!-- Node1&#45;&gt;Node11 -->
<g id="edge10" class="edge">
<title>Node1&#45;&gt;Node11</title>
<path fill="none" stroke="black" d="M120.16,-319.02C136.98,-323.08 154.62,-327.35 169.7,-331"/>
<polygon fill="black" stroke="black" points="120.92,-315.6 110.37,-316.65 119.27,-322.4 120.92,-315.6"/>
</g>
<!-- Node6 -->
<g id="node9" class="node">
<title>Node6</title>
<g id="a_node9"><a xlink:href="a00391.html" target="_top" xlink:title="Declaration of fault object trip and recovery delays.">
<polygon fill="white" stroke="black" points="272,-313 148,-313 148,-294 272,-294 272,-313"/>
<text text-anchor="middle" x="210" y="-301" font-family="Helvetica,sans-Serif" font-size="10.00">Fault Response Settings</text>
</a>
</g>
</g>
<!-- Node1&#45;&gt;Node6 -->
<g id="edge5" class="edge">
<title>Node1&#45;&gt;Node6</title>
<path fill="none" stroke="black" d="M120.46,-303.5C129.51,-303.5 138.79,-303.5 147.77,-303.5"/>
<polygon fill="black" stroke="black" points="120.37,-300 110.37,-303.5 120.37,-307 120.37,-300"/>
</g>
<!-- Node16 -->
<g id="node10" class="node">
<title>Node16</title>
<g id="a_node10"><a xlink:href="a00439.html" target="_top" xlink:title=" ">
<polygon fill="white" stroke="black" points="274,-276 146,-276 146,-257 274,-257 274,-276"/>
<text text-anchor="middle" x="210" y="-264" font-family="Helvetica,sans-Serif" font-size="10.00">Special Firmware Options</text>
</a>
</g>
</g>
<!-- Node1&#45;&gt;Node16 -->
<g id="edge15" class="edge">
<title>Node1&#45;&gt;Node16</title>
<path fill="none" stroke="black" d="M120.16,-287.98C136.98,-283.92 154.62,-279.65 169.7,-276"/>
<polygon fill="black" stroke="black" points="119.27,-284.6 110.37,-290.35 120.92,-291.4 119.27,-284.6"/>
</g>
<!-- Node3 -->
<g id="node11" class="node">
<title>Node3</title>
<g id="a_node11"><a xlink:href="a00379.html" target="_top" xlink:title="Declarations of fundamental microcontroller device parameters.">
<polygon fill="white" stroke="black" points="266,-238.5 154,-238.5 154,-208.5 266,-208.5 266,-238.5"/>
<text text-anchor="start" x="162" y="-226.5" font-family="Helvetica,sans-Serif" font-size="10.00">Microcontroller Device</text>
<text text-anchor="middle" x="210" y="-215.5" font-family="Helvetica,sans-Serif" font-size="10.00"> Abstraction</text>
</a>
</g>
</g>
<!-- Node1&#45;&gt;Node3 -->
<g id="edge2" class="edge">
<title>Node1&#45;&gt;Node3</title>
<path fill="none" stroke="black" d="M86.77,-282.89C103.82,-271.94 125.63,-258.67 146,-248.5 152.95,-245.03 160.5,-241.69 167.89,-238.64"/>
<polygon fill="black" stroke="black" points="84.8,-280 78.32,-288.38 88.61,-285.87 84.8,-280"/>
</g>
<!-- Node2 -->
<g id="node12" class="node">
<title>Node2</title>
<g id="a_node12"><a xlink:href="a00378.html" target="_top" xlink:title="Global identified to the hardware version used.">
<polygon fill="white" stroke="black" points="262.5,-190 157.5,-190 157.5,-171 262.5,-171 262.5,-190"/>
<text text-anchor="middle" x="210" y="-178" font-family="Helvetica,sans-Serif" font-size="10.00">Hardware Version ID</text>
</a>
</g>
</g>
<!-- Node1&#45;&gt;Node2 -->
<g id="edge1" class="edge">
<title>Node1&#45;&gt;Node2</title>
<path fill="none" stroke="black" d="M70.54,-279.97C86.33,-256.33 113.67,-220.46 146,-199.5 151.94,-195.65 158.7,-192.55 165.54,-190.06"/>
<polygon fill="black" stroke="black" points="67.59,-278.09 65.07,-288.38 73.46,-281.91 67.59,-278.09"/>
</g>
<!-- Node14 -->
<g id="node13" class="node">
<title>Node14</title>
<g id="a_node13"><a xlink:href="a00435.html" target="_top" xlink:title="LC display SPI interface GPIO declarations.">
<polygon fill="white" stroke="black" points="262,-152.5 158,-152.5 158,-122.5 262,-122.5 262,-152.5"/>
<text text-anchor="start" x="166" y="-140.5" font-family="Helvetica,sans-Serif" font-size="10.00">LC Display Interface</text>
<text text-anchor="middle" x="210" y="-129.5" font-family="Helvetica,sans-Serif" font-size="10.00"> Declarations</text>
</a>
</g>
</g>
<!-- Node1&#45;&gt;Node14 -->
<g id="edge13" class="edge">
<title>Node1&#45;&gt;Node14</title>
<path fill="none" stroke="black" d="M65.97,-278.87C79.7,-247.79 107.2,-194.54 146,-162.5 150.63,-158.68 155.91,-155.39 161.41,-152.57"/>
<polygon fill="black" stroke="black" points="62.73,-277.56 62,-288.13 69.16,-280.31 62.73,-277.56"/>
</g>
<!-- Node13 -->
<g id="node14" class="node">
<title>Node13</title>
<g id="a_node14"><a xlink:href="a00433.html" target="_top" xlink:title="Real&#45;time control loops are executed in dedicated, high&#45;priority interrupts to ensure a constant and ...">
<polygon fill="white" stroke="black" points="268.5,-104.5 151.5,-104.5 151.5,-74.5 268.5,-74.5 268.5,-104.5"/>
<text text-anchor="start" x="159.5" y="-92.5" font-family="Helvetica,sans-Serif" font-size="10.00">Control Interrupt Vector</text>
<text text-anchor="middle" x="210" y="-81.5" font-family="Helvetica,sans-Serif" font-size="10.00"> Declarations</text>
</a>
</g>
</g>
<!-- Node1&#45;&gt;Node13 -->
<g id="edge12" class="edge">
<title>Node1&#45;&gt;Node13</title>
<path fill="none" stroke="black" d="M61.42,-278.62C71.38,-238.52 96.3,-159.45 146,-113.5 149.7,-110.08 153.93,-107.14 158.41,-104.6"/>
<polygon fill="black" stroke="black" points="58,-277.85 59.1,-288.39 64.81,-279.47 58,-277.85"/>
</g>
<!-- Node7 -->
<g id="node15" class="node">
<title>Node7</title>
<g id="a_node15"><a xlink:href="a00396.html" target="_top" xlink:title="Declaration of fundamental PWM parameters.">
<polygon fill="white" stroke="black" points="250,-56 170,-56 170,-37 250,-37 250,-56"/>
<text text-anchor="middle" x="210" y="-44" font-family="Helvetica,sans-Serif" font-size="10.00">PWM Settings</text>
</a>
</g>
</g>
<!-- Node1&#45;&gt;Node7 -->
<g id="edge6" class="edge">
<title>Node1&#45;&gt;Node7</title>
<path fill="none" stroke="black" d="M58.31,-278.25C64.09,-229.88 83.54,-123.81 146,-65.5 152.6,-59.34 161.12,-55.17 169.76,-52.36"/>
<polygon fill="black" stroke="black" points="54.8,-278.13 57.19,-288.45 61.76,-278.89 54.8,-278.13"/>
</g>
<!-- Node9 -->
<g id="node16" class="node">
<title>Node9</title>
<g id="a_node16"><a xlink:href="a00410.html" target="_top" xlink:title="Declaration of output voltage feedback parameters.">
<polygon fill="white" stroke="black" points="274,-19 146,-19 146,0 274,0 274,-19"/>
<text text-anchor="middle" x="210" y="-7" font-family="Helvetica,sans-Serif" font-size="10.00">Output Voltage Feedback</text>
</a>
</g>
</g>
<!-- Node1&#45;&gt;Node9 -->
<g id="edge8" class="edge">
<title>Node1&#45;&gt;Node9</title>
<path fill="none" stroke="black" d="M56.82,-278.14C59.94,-224.33 74.9,-97.96 146,-28.5 150,-24.59 154.78,-21.48 159.89,-19.01"/>
<polygon fill="black" stroke="black" points="53.32,-278.03 56.32,-288.19 60.31,-278.37 53.32,-278.03"/>
</g>
</g>
</svg>
