<?xml version="1.0" encoding="UTF-8" standalone="no"?>
<!DOCTYPE svg PUBLIC "-//W3C//DTD SVG 1.1//EN"
 "http://www.w3.org/Graphics/SVG/1.1/DTD/svg11.dtd">
<!-- Generated by graphviz version 2.44.1 (20200629.0846)
 -->
<!-- Title: sysUserTasks_Initialize Pages: 1 -->
<svg width="1401pt" height="586pt"
 viewBox="0.00 0.00 1401.00 586.00" xmlns="http://www.w3.org/2000/svg" xmlns:xlink="http://www.w3.org/1999/xlink">
<g id="graph0" class="graph" transform="scale(1 1) rotate(0) translate(4 582)">
<title>sysUserTasks_Initialize</title>
<polygon fill="white" stroke="transparent" points="-4,4 -4,-582 1397,-582 1397,4 -4,4"/>
<!-- Node1 -->
<g id="node1" class="node">
<title>Node1</title>
<g id="a_node1"><a xlink:title="Initializes the user&#45;defined tasks.">
<polygon fill="#bfbfbf" stroke="black" points="0,-164.5 0,-183.5 119,-183.5 119,-164.5 0,-164.5"/>
<text text-anchor="middle" x="59.5" y="-171.5" font-family="Helvetica,sans-Serif" font-size="10.00">sysUserTasks_Initialize</text>
</a>
</g>
</g>
<!-- Node2 -->
<g id="node2" class="node">
<title>Node2</title>
<g id="a_node2"><a xlink:href="a00419.html#ga830e5c7087a8e5ee8ea39b7e3df94b68" target="_top" xlink:title="Initialization of user&#45;defined fault objects.">
<polygon fill="white" stroke="black" points="155,-482.5 155,-501.5 282,-501.5 282,-482.5 155,-482.5"/>
<text text-anchor="middle" x="218.5" y="-489.5" font-family="Helvetica,sans-Serif" font-size="10.00">appFaultMonitor_Initialize</text>
</a>
</g>
</g>
<!-- Node1&#45;&gt;Node2 -->
<g id="edge1" class="edge">
<title>Node1&#45;&gt;Node2</title>
<path fill="none" stroke="midnightblue" d="M65.2,-183.52C87,-227.67 178.48,-412.97 208.16,-473.08"/>
<polygon fill="midnightblue" stroke="midnightblue" points="205.1,-474.79 212.67,-482.21 211.38,-471.69 205.1,-474.79"/>
</g>
<!-- Node12 -->
<g id="node12" class="node">
<title>Node12</title>
<g id="a_node12"><a xlink:href="a00435.html#gab93992748ced72fdc2989d0b0f369e54" target="_top" xlink:title="Initializes the LC display.">
<polygon fill="white" stroke="black" points="172.5,-183.5 172.5,-202.5 264.5,-202.5 264.5,-183.5 172.5,-183.5"/>
<text text-anchor="middle" x="218.5" y="-190.5" font-family="Helvetica,sans-Serif" font-size="10.00">appLCD_Initialize</text>
</a>
</g>
</g>
<!-- Node1&#45;&gt;Node12 -->
<g id="edge14" class="edge">
<title>Node1&#45;&gt;Node12</title>
<path fill="none" stroke="midnightblue" d="M119.41,-181.13C133.55,-182.84 148.6,-184.66 162.56,-186.35"/>
<polygon fill="midnightblue" stroke="midnightblue" points="162.15,-189.83 172.5,-187.55 162.99,-182.88 162.15,-189.83"/>
</g>
<!-- Node23 -->
<g id="node23" class="node">
<title>Node23</title>
<g id="a_node23"><a xlink:href="a00450.html#ga900c95201f101cb3c8644bcf7aab8af9" target="_top" xlink:title="Initializes the LED driving GPIO.">
<polygon fill="white" stroke="black" points="172.5,-145.5 172.5,-164.5 264.5,-164.5 264.5,-145.5 172.5,-145.5"/>
<text text-anchor="middle" x="218.5" y="-152.5" font-family="Helvetica,sans-Serif" font-size="10.00">appLED_Initialize</text>
</a>
</g>
</g>
<!-- Node1&#45;&gt;Node23 -->
<g id="edge28" class="edge">
<title>Node1&#45;&gt;Node23</title>
<path fill="none" stroke="midnightblue" d="M119.41,-166.87C133.55,-165.16 148.6,-163.34 162.56,-161.65"/>
<polygon fill="midnightblue" stroke="midnightblue" points="162.99,-165.12 172.5,-160.45 162.15,-158.17 162.99,-165.12"/>
</g>
<!-- Node24 -->
<g id="node24" class="node">
<title>Node24</title>
<g id="a_node24"><a xlink:href="a00465.html#ga7a4cf6371d09457539f96a74b2809ca0" target="_top" xlink:title="Calls the application layer power controller initialization.">
<polygon fill="white" stroke="black" points="335.5,-357.5 335.5,-376.5 465.5,-376.5 465.5,-357.5 335.5,-357.5"/>
<text text-anchor="middle" x="400.5" y="-364.5" font-family="Helvetica,sans-Serif" font-size="10.00">appPowerSupply_Initialize</text>
</a>
</g>
</g>
<!-- Node1&#45;&gt;Node24 -->
<g id="edge29" class="edge">
<title>Node1&#45;&gt;Node24</title>
<path fill="none" stroke="midnightblue" d="M77.31,-183.57C132.32,-214.89 307.22,-314.47 373.61,-352.26"/>
<polygon fill="midnightblue" stroke="midnightblue" points="372.17,-355.47 382.59,-357.37 375.63,-349.38 372.17,-355.47"/>
</g>
<!-- Node44 -->
<g id="node44" class="node">
<title>Node44</title>
<g id="a_node44"><a xlink:href="a00455.html#ga7c903bd2ce5b08d78de218d726830947" target="_top" xlink:title="Initializes the USER push button on DPSK3.">
<polygon fill="white" stroke="black" points="156.5,-107.5 156.5,-126.5 280.5,-126.5 280.5,-107.5 156.5,-107.5"/>
<text text-anchor="middle" x="218.5" y="-114.5" font-family="Helvetica,sans-Serif" font-size="10.00">appPushButton_Initialize</text>
</a>
</g>
</g>
<!-- Node1&#45;&gt;Node44 -->
<g id="edge53" class="edge">
<title>Node1&#45;&gt;Node44</title>
<path fill="none" stroke="midnightblue" d="M82.82,-164.38C101.84,-156.35 129.98,-144.81 155,-136 161.32,-133.77 168.06,-131.56 174.68,-129.47"/>
<polygon fill="midnightblue" stroke="midnightblue" points="175.72,-132.82 184.24,-126.52 173.65,-126.13 175.72,-132.82"/>
</g>
<!-- Node49 -->
<g id="node49" class="node">
<title>Node49</title>
<g id="a_node49"><a xlink:href="a00529.html#ga8e89a1a4ee5bf8c794bd29163b92bf49" target="_top" xlink:title="Initializes the timer used as time&#45;base for the task scheduler.">
<polygon fill="white" stroke="black" points="163.5,-69.5 163.5,-88.5 273.5,-88.5 273.5,-69.5 163.5,-69.5"/>
<text text-anchor="middle" x="218.5" y="-76.5" font-family="Helvetica,sans-Serif" font-size="10.00">sysOsTimer_Initialize</text>
</a>
</g>
</g>
<!-- Node1&#45;&gt;Node49 -->
<g id="edge58" class="edge">
<title>Node1&#45;&gt;Node49</title>
<path fill="none" stroke="midnightblue" d="M69.81,-164.42C85.81,-148.47 120.19,-116.4 155,-98 159.23,-95.77 163.76,-93.75 168.37,-91.95"/>
<polygon fill="midnightblue" stroke="midnightblue" points="169.68,-95.2 177.91,-88.53 167.31,-88.61 169.68,-95.2"/>
</g>
<!-- Node3 -->
<g id="node3" class="node">
<title>Node3</title>
<g id="a_node3"><a xlink:href="a00421.html#ga54f9db91ea0782b08aa16ee77a57c5e5" target="_top" xlink:title="Initializes the user&#45;defined fault objects for overcurrent protection.">
<polygon fill="white" stroke="black" points="353,-482.5 353,-501.5 448,-501.5 448,-482.5 353,-482.5"/>
<text text-anchor="middle" x="400.5" y="-489.5" font-family="Helvetica,sans-Serif" font-size="10.00">ocp_FaultInitialize</text>
</a>
</g>
</g>
<!-- Node2&#45;&gt;Node3 -->
<g id="edge2" class="edge">
<title>Node2&#45;&gt;Node3</title>
<path fill="none" stroke="midnightblue" d="M282.2,-492C301.9,-492 323.52,-492 342.77,-492"/>
<polygon fill="midnightblue" stroke="midnightblue" points="342.9,-495.5 352.9,-492 342.9,-488.5 342.9,-495.5"/>
</g>
<!-- Node9 -->
<g id="node9" class="node">
<title>Node9</title>
<g id="a_node9"><a xlink:href="a00421.html#gade437244e8f6e5ff7c57a73442063350" target="_top" xlink:title="Initializes the user&#45;defined fault objects for overvoltage lockout.">
<polygon fill="white" stroke="black" points="353,-444.5 353,-463.5 448,-463.5 448,-444.5 353,-444.5"/>
<text text-anchor="middle" x="400.5" y="-451.5" font-family="Helvetica,sans-Serif" font-size="10.00">ovlo_FaultInitialize</text>
</a>
</g>
</g>
<!-- Node2&#45;&gt;Node9 -->
<g id="edge8" class="edge">
<title>Node2&#45;&gt;Node9</title>
<path fill="none" stroke="midnightblue" d="M264.92,-482.41C289.1,-477.31 319.03,-470.99 344.51,-465.61"/>
<polygon fill="midnightblue" stroke="midnightblue" points="345.34,-469.01 354.41,-463.52 343.9,-462.16 345.34,-469.01"/>
</g>
<!-- Node10 -->
<g id="node10" class="node">
<title>Node10</title>
<g id="a_node10"><a xlink:href="a00421.html#ga82dc317e3adac0308e5ac3f5ad321605" target="_top" xlink:title="Initializes the user&#45;defined fault objects for regulation error.">
<polygon fill="white" stroke="black" points="348.5,-558.5 348.5,-577.5 452.5,-577.5 452.5,-558.5 348.5,-558.5"/>
<text text-anchor="middle" x="400.5" y="-565.5" font-family="Helvetica,sans-Serif" font-size="10.00">regerr_FaultInitialize</text>
</a>
</g>
</g>
<!-- Node2&#45;&gt;Node10 -->
<g id="edge10" class="edge">
<title>Node2&#45;&gt;Node10</title>
<path fill="none" stroke="midnightblue" d="M233.19,-501.69C251.63,-514.31 285.85,-536.28 318,-549 324.44,-551.55 331.32,-553.81 338.23,-555.8"/>
<polygon fill="midnightblue" stroke="midnightblue" points="337.79,-559.3 348.36,-558.52 339.61,-552.54 337.79,-559.3"/>
</g>
<!-- Node11 -->
<g id="node11" class="node">
<title>Node11</title>
<g id="a_node11"><a xlink:href="a00421.html#ga9441220f8a7d4a6805467d04b734e6b5" target="_top" xlink:title="Initializes the user&#45;defined fault objects for under&#45;voltage lockout.">
<polygon fill="white" stroke="black" points="353,-520.5 353,-539.5 448,-539.5 448,-520.5 353,-520.5"/>
<text text-anchor="middle" x="400.5" y="-527.5" font-family="Helvetica,sans-Serif" font-size="10.00">uvlo_FaultInitialize</text>
</a>
</g>
</g>
<!-- Node2&#45;&gt;Node11 -->
<g id="edge12" class="edge">
<title>Node2&#45;&gt;Node11</title>
<path fill="none" stroke="midnightblue" d="M264.92,-501.59C289.1,-506.69 319.03,-513.01 344.51,-518.39"/>
<polygon fill="midnightblue" stroke="midnightblue" points="343.9,-521.84 354.41,-520.48 345.34,-514.99 343.9,-521.84"/>
</g>
<!-- Node4 -->
<g id="node4" class="node">
<title>Node4</title>
<g id="a_node4"><a xlink:href="a00465.html#gafa4e90d260e60cf20f06acee067c39cd" target="_top" xlink:title="This function stops the power supply operation.">
<polygon fill="white" stroke="black" points="524,-520.5 524,-539.5 657,-539.5 657,-520.5 524,-520.5"/>
<text text-anchor="middle" x="590.5" y="-527.5" font-family="Helvetica,sans-Serif" font-size="10.00">appPowerSupply_Suspend</text>
</a>
</g>
</g>
<!-- Node3&#45;&gt;Node4 -->
<g id="edge3" class="edge">
<title>Node3&#45;&gt;Node4</title>
<path fill="none" stroke="midnightblue" d="M448.46,-501.49C473.92,-506.64 505.58,-513.04 532.45,-518.47"/>
<polygon fill="midnightblue" stroke="midnightblue" points="532,-521.95 542.49,-520.5 533.38,-515.09 532,-521.95"/>
</g>
<!-- Node5 -->
<g id="node5" class="node">
<title>Node5</title>
<g id="a_node5"><a xlink:href="a00472.html#ga0d68d132b52175c43503c9b5794bae64" target="_top" xlink:title="This function suspends the operation of the buck converter.">
<polygon fill="white" stroke="black" points="698,-530.5 698,-549.5 838,-549.5 838,-530.5 698,-530.5"/>
<text text-anchor="middle" x="768" y="-537.5" font-family="Helvetica,sans-Serif" font-size="10.00">drv_BuckConverter_Suspend</text>
</a>
</g>
</g>
<!-- Node4&#45;&gt;Node5 -->
<g id="edge4" class="edge">
<title>Node4&#45;&gt;Node5</title>
<path fill="none" stroke="midnightblue" d="M657.35,-533.75C667.27,-534.32 677.59,-534.91 687.76,-535.48"/>
<polygon fill="midnightblue" stroke="midnightblue" points="687.67,-538.99 697.85,-536.06 688.07,-532 687.67,-538.99"/>
</g>
<!-- Node6 -->
<g id="node6" class="node">
<title>Node6</title>
<g id="a_node6"><a xlink:href="a00472.html#gab9877f90ffb129964ae42ce2921b3fe1" target="_top" xlink:title="This function is the main buck converter state machine executing the most recent state.">
<polygon fill="white" stroke="black" points="874,-539.5 874,-558.5 1012,-558.5 1012,-539.5 874,-539.5"/>
<text text-anchor="middle" x="943" y="-546.5" font-family="Helvetica,sans-Serif" font-size="10.00">drv_BuckConverter_Execute</text>
</a>
</g>
</g>
<!-- Node5&#45;&gt;Node6 -->
<g id="edge5" class="edge">
<title>Node5&#45;&gt;Node6</title>
<path fill="none" stroke="midnightblue" d="M838.37,-543.61C846.66,-544.04 855.16,-544.48 863.56,-544.92"/>
<polygon fill="midnightblue" stroke="midnightblue" points="863.57,-548.42 873.74,-545.45 863.94,-541.43 863.57,-548.42"/>
</g>
<!-- Node7 -->
<g id="node7" class="node">
<title>Node7</title>
<g id="a_node7"><a xlink:href="a00496.html#ga8e2253c136f05033e774d09032b283a1" target="_top" xlink:title="This function gets the state of the selected pin.">
<polygon fill="white" stroke="black" points="1067,-544.5 1067,-563.5 1187,-563.5 1187,-544.5 1067,-544.5"/>
<text text-anchor="middle" x="1127" y="-551.5" font-family="Helvetica,sans-Serif" font-size="10.00">buckGPIO_GetPinState</text>
</a>
</g>
</g>
<!-- Node6&#45;&gt;Node7 -->
<g id="edge6" class="edge">
<title>Node6&#45;&gt;Node7</title>
<path fill="none" stroke="midnightblue" d="M1012.03,-550.87C1026.49,-551.27 1041.78,-551.69 1056.3,-552.09"/>
<polygon fill="midnightblue" stroke="midnightblue" points="1056.63,-555.6 1066.72,-552.37 1056.82,-548.6 1056.63,-555.6"/>
</g>
<!-- Node8 -->
<g id="node8" class="node">
<title>Node8</title>
<g id="a_node8"><a xlink:href="a00362.html#ga4d67af688d8f7f911d79107974e11e6b" target="_top" xlink:title="Gets pointer to GPIO Instance SFR set.">
<polygon fill="white" stroke="black" points="1242,-487.5 1242,-506.5 1393,-506.5 1393,-487.5 1242,-487.5"/>
<text text-anchor="middle" x="1317.5" y="-494.5" font-family="Helvetica,sans-Serif" font-size="10.00">p33c_GpioInstance_GetHandle</text>
</a>
</g>
</g>
<!-- Node7&#45;&gt;Node8 -->
<g id="edge7" class="edge">
<title>Node7&#45;&gt;Node8</title>
<path fill="none" stroke="midnightblue" d="M1170.29,-544.45C1181.92,-541.62 1194.5,-538.37 1206,-535 1231.49,-527.53 1259.82,-517.76 1281.41,-510"/>
<polygon fill="midnightblue" stroke="midnightblue" points="1282.61,-513.28 1290.82,-506.59 1280.22,-506.7 1282.61,-513.28"/>
</g>
<!-- Node9&#45;&gt;Node4 -->
<g id="edge9" class="edge">
<title>Node9&#45;&gt;Node4</title>
<path fill="none" stroke="midnightblue" d="M448.25,-462.68C459.78,-465.43 471.99,-468.85 483,-473 498.99,-479.02 537.79,-500.48 563.87,-515.28"/>
<polygon fill="midnightblue" stroke="midnightblue" points="562.42,-518.48 572.84,-520.39 565.88,-512.4 562.42,-518.48"/>
</g>
<!-- Node10&#45;&gt;Node4 -->
<g id="edge11" class="edge">
<title>Node10&#45;&gt;Node4</title>
<path fill="none" stroke="midnightblue" d="M448.94,-558.41C474.31,-553.28 505.73,-546.93 532.42,-541.54"/>
<polygon fill="midnightblue" stroke="midnightblue" points="533.29,-544.93 542.4,-539.52 531.91,-538.07 533.29,-544.93"/>
</g>
<!-- Node11&#45;&gt;Node4 -->
<g id="edge13" class="edge">
<title>Node11&#45;&gt;Node4</title>
<path fill="none" stroke="midnightblue" d="M448.46,-530C468.17,-530 491.6,-530 513.64,-530"/>
<polygon fill="midnightblue" stroke="midnightblue" points="513.66,-533.5 523.66,-530 513.66,-526.5 513.66,-533.5"/>
</g>
<!-- Node13 -->
<g id="node13" class="node">
<title>Node13</title>
<g id="a_node13"><a xlink:href="a00440.html#ga5d8f09855e28846e87400692d186781a" target="_top" xlink:title="Initializes the LCD Device.">
<polygon fill="white" stroke="black" points="354.5,-202.5 354.5,-221.5 446.5,-221.5 446.5,-202.5 354.5,-202.5"/>
<text text-anchor="middle" x="400.5" y="-209.5" font-family="Helvetica,sans-Serif" font-size="10.00">dev_Lcd_Initialize</text>
</a>
</g>
</g>
<!-- Node12&#45;&gt;Node13 -->
<g id="edge15" class="edge">
<title>Node12&#45;&gt;Node13</title>
<path fill="none" stroke="midnightblue" d="M264.92,-197.79C289,-200.34 318.76,-203.48 344.18,-206.16"/>
<polygon fill="midnightblue" stroke="midnightblue" points="344.09,-209.67 354.41,-207.24 344.83,-202.71 344.09,-209.67"/>
</g>
<!-- Node18 -->
<g id="node18" class="node">
<title>Node18</title>
<g id="a_node18"><a xlink:href="a00440.html#ga24701a4c3ae760e7e0b9c70d93370ff3" target="_top" xlink:title="Sets the cursor position to the given x&#45; and y&#45;coordinates and writes the given string on the lcd scr...">
<polygon fill="white" stroke="black" points="341.5,-164.5 341.5,-183.5 459.5,-183.5 459.5,-164.5 341.5,-164.5"/>
<text text-anchor="middle" x="400.5" y="-171.5" font-family="Helvetica,sans-Serif" font-size="10.00">dev_Lcd_WriteStringXY</text>
</a>
</g>
</g>
<!-- Node12&#45;&gt;Node18 -->
<g id="edge20" class="edge">
<title>Node12&#45;&gt;Node18</title>
<path fill="none" stroke="midnightblue" d="M264.92,-188.21C285.06,-186.08 309.19,-183.53 331.41,-181.19"/>
<polygon fill="midnightblue" stroke="midnightblue" points="331.89,-184.66 341.47,-180.13 331.16,-177.69 331.89,-184.66"/>
</g>
<!-- Node14 -->
<g id="node14" class="node">
<title>Node14</title>
<g id="a_node14"><a xlink:href="a00445.html#gaeb25fdecced4c325cd0d986a30d57e90" target="_top" xlink:title="Initializes the LCD interface driver.">
<polygon fill="white" stroke="black" points="527,-164.5 527,-183.5 654,-183.5 654,-164.5 527,-164.5"/>
<text text-anchor="middle" x="590.5" y="-171.5" font-family="Helvetica,sans-Serif" font-size="10.00">drv_LcdInterface_Initialize</text>
</a>
</g>
</g>
<!-- Node13&#45;&gt;Node14 -->
<g id="edge16" class="edge">
<title>Node13&#45;&gt;Node14</title>
<path fill="none" stroke="midnightblue" d="M446.53,-202.9C472.27,-197.7 504.79,-191.12 532.32,-185.56"/>
<polygon fill="midnightblue" stroke="midnightblue" points="533.1,-188.97 542.21,-183.56 531.72,-182.11 533.1,-188.97"/>
</g>
<!-- Node15 -->
<g id="node15" class="node">
<title>Node15</title>
<g id="a_node15"><a xlink:href="a00445.html#ga3f10606b6c67ff33338ab2c5c6a2d4c8" target="_top" xlink:title="Resets the LCD controller.">
<polygon fill="white" stroke="black" points="532,-202.5 532,-221.5 649,-221.5 649,-202.5 532,-202.5"/>
<text text-anchor="middle" x="590.5" y="-209.5" font-family="Helvetica,sans-Serif" font-size="10.00">drv_LcdInterface_Reset</text>
</a>
</g>
</g>
<!-- Node13&#45;&gt;Node15 -->
<g id="edge17" class="edge">
<title>Node13&#45;&gt;Node15</title>
<path fill="none" stroke="midnightblue" d="M446.53,-212C468.97,-212 496.57,-212 521.52,-212"/>
<polygon fill="midnightblue" stroke="midnightblue" points="521.65,-215.5 531.65,-212 521.65,-208.5 521.65,-215.5"/>
</g>
<!-- Node16 -->
<g id="node16" class="node">
<title>Node16</title>
<g id="a_node16"><a xlink:href="a00445.html#ga3e045335a3463f6a53e4fd91b50bb0ca" target="_top" xlink:title="Sends a command to the LCD controller.">
<polygon fill="white" stroke="black" points="1060,-126.5 1060,-145.5 1194,-145.5 1194,-126.5 1060,-126.5"/>
<text text-anchor="middle" x="1127" y="-133.5" font-family="Helvetica,sans-Serif" font-size="10.00">drv_LcdInterface_SendCmd</text>
</a>
</g>
</g>
<!-- Node13&#45;&gt;Node16 -->
<g id="edge18" class="edge">
<title>Node13&#45;&gt;Node16</title>
<path fill="none" stroke="midnightblue" d="M446.77,-221.06C468.51,-224.96 495,-229.07 519,-231 735.42,-248.38 991.42,-178.07 1087.25,-148.52"/>
<polygon fill="midnightblue" stroke="midnightblue" points="1088.31,-151.86 1096.81,-145.54 1086.22,-145.17 1088.31,-151.86"/>
</g>
<!-- Node17 -->
<g id="node17" class="node">
<title>Node17</title>
<g id="a_node17"><a xlink:href="a00447.html#ga50b8734fca19fc75dd778a9902c63082" target="_top" xlink:title="Sends data through the SPI interface to the LCD controller.">
<polygon fill="white" stroke="black" points="1253.5,-126.5 1253.5,-145.5 1381.5,-145.5 1381.5,-126.5 1253.5,-126.5"/>
<text text-anchor="middle" x="1317.5" y="-133.5" font-family="Helvetica,sans-Serif" font-size="10.00">drv_LcdInterface_SpiSend</text>
</a>
</g>
</g>
<!-- Node16&#45;&gt;Node17 -->
<g id="edge19" class="edge">
<title>Node16&#45;&gt;Node17</title>
<path fill="none" stroke="midnightblue" d="M1194.19,-136C1209.94,-136 1226.84,-136 1242.9,-136"/>
<polygon fill="midnightblue" stroke="midnightblue" points="1243.32,-139.5 1253.32,-136 1243.32,-132.5 1243.32,-139.5"/>
</g>
<!-- Node19 -->
<g id="node19" class="node">
<title>Node19</title>
<g id="a_node19"><a xlink:href="a00440.html#ga5c431635cb94750b2f6e938d7f1f0cf1" target="_top" xlink:title="Sets the cursor position to the given x&#45; and y&#45;coordinates.">
<polygon fill="white" stroke="black" points="898,-126.5 898,-145.5 988,-145.5 988,-126.5 898,-126.5"/>
<text text-anchor="middle" x="943" y="-133.5" font-family="Helvetica,sans-Serif" font-size="10.00">dev_Lcd_GotoXY</text>
</a>
</g>
</g>
<!-- Node18&#45;&gt;Node19 -->
<g id="edge21" class="edge">
<title>Node18&#45;&gt;Node19</title>
<path fill="none" stroke="midnightblue" d="M452.23,-164.48C472.87,-160.96 497.01,-157.26 519,-155 650.74,-141.44 806.56,-137.55 887.31,-136.44"/>
<polygon fill="midnightblue" stroke="midnightblue" points="887.77,-139.94 897.73,-136.31 887.68,-132.94 887.77,-139.94"/>
</g>
<!-- Node20 -->
<g id="node20" class="node">
<title>Node20</title>
<g id="a_node20"><a xlink:href="a00440.html#gac07de05132918ca2db8cf4492819eca6" target="_top" xlink:title="Writes a complete string on the LCD screen.">
<polygon fill="white" stroke="black" points="537.5,-88.5 537.5,-107.5 643.5,-107.5 643.5,-88.5 537.5,-88.5"/>
<text text-anchor="middle" x="590.5" y="-95.5" font-family="Helvetica,sans-Serif" font-size="10.00">dev_Lcd_WriteString</text>
</a>
</g>
</g>
<!-- Node18&#45;&gt;Node20 -->
<g id="edge23" class="edge">
<title>Node18&#45;&gt;Node20</title>
<path fill="none" stroke="midnightblue" d="M459.4,-164.41C467.57,-161.95 475.68,-158.86 483,-155 502.2,-144.87 500.33,-133.07 519,-122 526.27,-117.69 534.43,-114.01 542.55,-110.93"/>
<polygon fill="midnightblue" stroke="midnightblue" points="543.75,-114.22 552.01,-107.58 541.41,-107.62 543.75,-114.22"/>
</g>
<!-- Node19&#45;&gt;Node16 -->
<g id="edge22" class="edge">
<title>Node19&#45;&gt;Node16</title>
<path fill="none" stroke="midnightblue" d="M988.06,-136C1006.59,-136 1028.7,-136 1049.73,-136"/>
<polygon fill="midnightblue" stroke="midnightblue" points="1049.95,-139.5 1059.95,-136 1049.95,-132.5 1049.95,-139.5"/>
</g>
<!-- Node21 -->
<g id="node21" class="node">
<title>Node21</title>
<g id="a_node21"><a xlink:href="a00440.html#ga3cb1303cba012af043a87af0bcab16d8" target="_top" xlink:title="Writes a character on the LCD screen.">
<polygon fill="white" stroke="black" points="717.5,-88.5 717.5,-107.5 818.5,-107.5 818.5,-88.5 717.5,-88.5"/>
<text text-anchor="middle" x="768" y="-95.5" font-family="Helvetica,sans-Serif" font-size="10.00">dev_Lcd_WriteChar</text>
</a>
</g>
</g>
<!-- Node20&#45;&gt;Node21 -->
<g id="edge24" class="edge">
<title>Node20&#45;&gt;Node21</title>
<path fill="none" stroke="midnightblue" d="M643.68,-98C663.65,-98 686.57,-98 707.2,-98"/>
<polygon fill="midnightblue" stroke="midnightblue" points="707.43,-101.5 717.43,-98 707.43,-94.5 707.43,-101.5"/>
</g>
<!-- Node21&#45;&gt;Node19 -->
<g id="edge27" class="edge">
<title>Node21&#45;&gt;Node19</title>
<path fill="none" stroke="midnightblue" d="M812.66,-107.59C835.79,-112.67 864.4,-118.96 888.83,-124.32"/>
<polygon fill="midnightblue" stroke="midnightblue" points="888.14,-127.75 898.66,-126.48 889.64,-120.92 888.14,-127.75"/>
</g>
<!-- Node22 -->
<g id="node22" class="node">
<title>Node22</title>
<g id="a_node22"><a xlink:href="a00440.html#ga0bff8adf9ea1196bdd69b3e47b2b77cd" target="_top" xlink:title="Clears the LC Display Screen.">
<polygon fill="white" stroke="black" points="903,-88.5 903,-107.5 983,-107.5 983,-88.5 903,-88.5"/>
<text text-anchor="middle" x="943" y="-95.5" font-family="Helvetica,sans-Serif" font-size="10.00">dev_Lcd_Clear</text>
</a>
</g>
</g>
<!-- Node21&#45;&gt;Node22 -->
<g id="edge25" class="edge">
<title>Node21&#45;&gt;Node22</title>
<path fill="none" stroke="midnightblue" d="M818.57,-98C841.88,-98 869.6,-98 892.85,-98"/>
<polygon fill="midnightblue" stroke="midnightblue" points="892.86,-101.5 902.86,-98 892.86,-94.5 892.86,-101.5"/>
</g>
<!-- Node22&#45;&gt;Node16 -->
<g id="edge26" class="edge">
<title>Node22&#45;&gt;Node16</title>
<path fill="none" stroke="midnightblue" d="M983.04,-106.15C1008.44,-111.45 1041.95,-118.45 1070.15,-124.34"/>
<polygon fill="midnightblue" stroke="midnightblue" points="1069.77,-127.83 1080.27,-126.45 1071.2,-120.98 1069.77,-127.83"/>
</g>
<!-- Node25 -->
<g id="node25" class="node">
<title>Node25</title>
<g id="a_node25"><a xlink:href="a00468.html#ga0b4cabdb02c8c9ea94ea1dfa39de3764" target="_top" xlink:title="This function initializes the control system feedback loop objects.">
<polygon fill="white" stroke="black" points="522.5,-450 522.5,-480 658.5,-480 658.5,-450 522.5,-450"/>
<text text-anchor="start" x="530.5" y="-468" font-family="Helvetica,sans-Serif" font-size="10.00">appPowerSupply_Controller</text>
<text text-anchor="middle" x="590.5" y="-457" font-family="Helvetica,sans-Serif" font-size="10.00">Initialize</text>
</a>
</g>
</g>
<!-- Node24&#45;&gt;Node25 -->
<g id="edge30" class="edge">
<title>Node24&#45;&gt;Node25</title>
<path fill="none" stroke="midnightblue" d="M414.65,-376.74C435.78,-392.03 478.96,-421.9 519,-441 522.81,-442.82 526.79,-444.56 530.84,-446.22"/>
<polygon fill="midnightblue" stroke="midnightblue" points="529.78,-449.56 540.36,-449.93 532.32,-443.04 529.78,-449.56"/>
</g>
<!-- Node27 -->
<g id="node27" class="node">
<title>Node27</title>
<g id="a_node27"><a xlink:href="a00468.html#gad0f6ff4894bf23722884c60bbcdcacd0" target="_top" xlink:title="This function initializes the buck converter device driver instance.">
<polygon fill="white" stroke="black" points="523,-401 523,-431 658,-431 658,-401 523,-401"/>
<text text-anchor="start" x="531" y="-419" font-family="Helvetica,sans-Serif" font-size="10.00">appPowerSupply_Converter</text>
<text text-anchor="middle" x="590.5" y="-408" font-family="Helvetica,sans-Serif" font-size="10.00">ObjectInitialize</text>
</a>
</g>
</g>
<!-- Node24&#45;&gt;Node27 -->
<g id="edge32" class="edge">
<title>Node24&#45;&gt;Node27</title>
<path fill="none" stroke="midnightblue" d="M438.19,-376.56C462,-382.77 493.72,-391.04 521.98,-398.4"/>
<polygon fill="midnightblue" stroke="midnightblue" points="521.25,-401.83 531.81,-400.96 523.01,-395.05 521.25,-401.83"/>
</g>
<!-- Node28 -->
<g id="node28" class="node">
<title>Node28</title>
<g id="a_node28"><a xlink:href="a00468.html#ga0b26acfec74d1804384b4ba1a3cffab4" target="_top" xlink:title="This function is used to load peripheral configuration templates from the power controller device dri...">
<polygon fill="white" stroke="black" points="519,-352 519,-382 662,-382 662,-352 519,-352"/>
<text text-anchor="start" x="527" y="-370" font-family="Helvetica,sans-Serif" font-size="10.00">appPowerSupply_Peripherals</text>
<text text-anchor="middle" x="590.5" y="-359" font-family="Helvetica,sans-Serif" font-size="10.00">Initialize</text>
</a>
</g>
</g>
<!-- Node24&#45;&gt;Node28 -->
<g id="edge33" class="edge">
<title>Node24&#45;&gt;Node28</title>
<path fill="none" stroke="midnightblue" d="M465.67,-367C479.45,-367 494.19,-367 508.51,-367"/>
<polygon fill="midnightblue" stroke="midnightblue" points="508.85,-370.5 518.85,-367 508.85,-363.5 508.85,-370.5"/>
</g>
<!-- Node41 -->
<g id="node41" class="node">
<title>Node41</title>
<g id="a_node41"><a xlink:href="a00472.html#ga86289c82938655142075e84ac90aa603" target="_top" xlink:title="This function starts the buck converter.">
<polygon fill="white" stroke="black" points="529,-313.5 529,-332.5 652,-332.5 652,-313.5 529,-313.5"/>
<text text-anchor="middle" x="590.5" y="-320.5" font-family="Helvetica,sans-Serif" font-size="10.00">drv_BuckConverter_Start</text>
</a>
</g>
</g>
<!-- Node24&#45;&gt;Node41 -->
<g id="edge49" class="edge">
<title>Node24&#45;&gt;Node41</title>
<path fill="none" stroke="midnightblue" d="M442.29,-357.45C470.62,-350.82 508.57,-341.94 538.84,-334.86"/>
<polygon fill="midnightblue" stroke="midnightblue" points="539.85,-338.22 548.79,-332.53 538.25,-331.4 539.85,-338.22"/>
</g>
<!-- Node26 -->
<g id="node26" class="node">
<title>Node26</title>
<g id="a_node26"><a xlink:href="a00508.html#ga62d45a18f3dd47fa691fbb463f90e051" target="_top" xlink:title="Initializes controller coefficient arrays and normalization.">
<polygon fill="white" stroke="black" points="726,-455.5 726,-474.5 810,-474.5 810,-455.5 726,-455.5"/>
<text text-anchor="middle" x="768" y="-462.5" font-family="Helvetica,sans-Serif" font-size="10.00">v_loop_Initialize</text>
</a>
</g>
</g>
<!-- Node25&#45;&gt;Node26 -->
<g id="edge31" class="edge">
<title>Node25&#45;&gt;Node26</title>
<path fill="none" stroke="midnightblue" d="M658.6,-465C677.53,-465 697.82,-465 715.66,-465"/>
<polygon fill="midnightblue" stroke="midnightblue" points="715.86,-468.5 725.86,-465 715.86,-461.5 715.86,-468.5"/>
</g>
<!-- Node29 -->
<g id="node29" class="node">
<title>Node29</title>
<g id="a_node29"><a xlink:href="a00472.html#gaf3c64772d6dfd473d6924fb8893bd180" target="_top" xlink:title="This function initializes all peripheral modules and their instances used by the power controller.">
<polygon fill="white" stroke="black" points="699.5,-374.5 699.5,-393.5 836.5,-393.5 836.5,-374.5 699.5,-374.5"/>
<text text-anchor="middle" x="768" y="-381.5" font-family="Helvetica,sans-Serif" font-size="10.00">drv_BuckConverter_Initialize</text>
</a>
</g>
</g>
<!-- Node28&#45;&gt;Node29 -->
<g id="edge34" class="edge">
<title>Node28&#45;&gt;Node29</title>
<path fill="none" stroke="midnightblue" d="M662.12,-373.84C671.05,-374.71 680.22,-375.59 689.25,-376.47"/>
<polygon fill="midnightblue" stroke="midnightblue" points="689.08,-379.97 699.37,-377.45 689.75,-373 689.08,-379.97"/>
</g>
<!-- Node30 -->
<g id="node30" class="node">
<title>Node30</title>
<g id="a_node30"><a xlink:href="a00496.html#gac2bfd6c3ccd9ec11b8e91322ea9354d2" target="_top" xlink:title="This function initializes the settings for the ADC channel.">
<polygon fill="white" stroke="black" points="876,-392.5 876,-411.5 1010,-411.5 1010,-392.5 876,-392.5"/>
<text text-anchor="middle" x="943" y="-399.5" font-family="Helvetica,sans-Serif" font-size="10.00">buckADC_ChannelInitialize</text>
</a>
</g>
</g>
<!-- Node29&#45;&gt;Node30 -->
<g id="edge35" class="edge">
<title>Node29&#45;&gt;Node30</title>
<path fill="none" stroke="midnightblue" d="M836.88,-391.06C846.36,-392.05 856.16,-393.07 865.79,-394.07"/>
<polygon fill="midnightblue" stroke="midnightblue" points="865.43,-397.55 875.73,-395.11 866.15,-390.59 865.43,-397.55"/>
</g>
<!-- Node31 -->
<g id="node31" class="node">
<title>Node31</title>
<g id="a_node31"><a xlink:href="a00496.html#ga44f537d9ad5dcb0e744480802cfbf170" target="_top" xlink:title="This fucntion initializes the buck by resetting all its registers to default.">
<polygon fill="white" stroke="black" points="878,-354.5 878,-373.5 1008,-373.5 1008,-354.5 878,-354.5"/>
<text text-anchor="middle" x="943" y="-361.5" font-family="Helvetica,sans-Serif" font-size="10.00">buckADC_ModuleInitialize</text>
</a>
</g>
</g>
<!-- Node29&#45;&gt;Node31 -->
<g id="edge36" class="edge">
<title>Node29&#45;&gt;Node31</title>
<path fill="none" stroke="midnightblue" d="M836.88,-376.15C847.03,-374.98 857.54,-373.76 867.82,-372.58"/>
<polygon fill="midnightblue" stroke="midnightblue" points="868.46,-376.03 877.99,-371.4 867.66,-369.07 868.46,-376.03"/>
</g>
<!-- Node32 -->
<g id="node32" class="node">
<title>Node32</title>
<g id="a_node32"><a xlink:href="a00496.html#gac7e5924475733c189b2318844ae01844" target="_top" xlink:title="This function initializes the buck input pins.">
<polygon fill="white" stroke="black" points="892,-468.5 892,-487.5 994,-487.5 994,-468.5 892,-468.5"/>
<text text-anchor="middle" x="943" y="-475.5" font-family="Helvetica,sans-Serif" font-size="10.00">buckGPIO_Initialize</text>
</a>
</g>
</g>
<!-- Node29&#45;&gt;Node32 -->
<g id="edge37" class="edge">
<title>Node29&#45;&gt;Node32</title>
<path fill="none" stroke="midnightblue" d="M779.83,-393.72C798.02,-409.57 836.41,-441.01 874,-459 878.91,-461.35 884.16,-463.45 889.48,-465.33"/>
<polygon fill="midnightblue" stroke="midnightblue" points="888.5,-468.69 899.09,-468.46 890.67,-462.03 888.5,-468.69"/>
</g>
<!-- Node35 -->
<g id="node35" class="node">
<title>Node35</title>
<g id="a_node35"><a xlink:href="a00496.html#ga45a54def97cc67eb8d36e22a3867d95f" target="_top" xlink:title="This function initializes the output pins for the PWM output and the default buck PWM settings.">
<polygon fill="white" stroke="black" points="874,-430.5 874,-449.5 1012,-449.5 1012,-430.5 874,-430.5"/>
<text text-anchor="middle" x="943" y="-437.5" font-family="Helvetica,sans-Serif" font-size="10.00">buckPWM_ChannelInitialize</text>
</a>
</g>
</g>
<!-- Node29&#45;&gt;Node35 -->
<g id="edge42" class="edge">
<title>Node29&#45;&gt;Node35</title>
<path fill="none" stroke="midnightblue" d="M794.73,-393.6C815.89,-401.37 846.72,-412.39 874,-421 881.23,-423.28 888.94,-425.57 896.48,-427.73"/>
<polygon fill="midnightblue" stroke="midnightblue" points="895.65,-431.13 906.22,-430.48 897.55,-424.4 895.65,-431.13"/>
</g>
<!-- Node38 -->
<g id="node38" class="node">
<title>Node38</title>
<g id="a_node38"><a xlink:href="a00496.html#ga6d12fd9e2f1d4f01ec6db21454693863" target="_top" xlink:title="Initializes the buck PWM module by resetting its registers to default.">
<polygon fill="white" stroke="black" points="876,-278.5 876,-297.5 1010,-297.5 1010,-278.5 876,-278.5"/>
<text text-anchor="middle" x="943" y="-285.5" font-family="Helvetica,sans-Serif" font-size="10.00">buckPWM_ModuleInitialize</text>
</a>
</g>
</g>
<!-- Node29&#45;&gt;Node38 -->
<g id="edge46" class="edge">
<title>Node29&#45;&gt;Node38</title>
<path fill="none" stroke="midnightblue" d="M786.22,-374.44C816.66,-357.55 880.14,-322.33 915.95,-302.45"/>
<polygon fill="midnightblue" stroke="midnightblue" points="917.8,-305.43 924.85,-297.52 914.41,-299.31 917.8,-305.43"/>
</g>
<!-- Node33 -->
<g id="node33" class="node">
<title>Node33</title>
<g id="a_node33"><a xlink:href="a00496.html#ga7f1d554e08d756b8677b572216908a3a" target="_top" xlink:title="This function clears the selected general purpose input/output pin.">
<polygon fill="white" stroke="black" points="1082.5,-468.5 1082.5,-487.5 1171.5,-487.5 1171.5,-468.5 1082.5,-468.5"/>
<text text-anchor="middle" x="1127" y="-475.5" font-family="Helvetica,sans-Serif" font-size="10.00">buckGPIO_Clear</text>
</a>
</g>
</g>
<!-- Node32&#45;&gt;Node33 -->
<g id="edge38" class="edge">
<title>Node32&#45;&gt;Node33</title>
<path fill="none" stroke="midnightblue" d="M994.21,-478C1018.43,-478 1047.5,-478 1072.17,-478"/>
<polygon fill="midnightblue" stroke="midnightblue" points="1072.44,-481.5 1082.44,-478 1072.44,-474.5 1072.44,-481.5"/>
</g>
<!-- Node34 -->
<g id="node34" class="node">
<title>Node34</title>
<g id="a_node34"><a xlink:href="a00496.html#ga3d3f91c0e40884874e7df3a67fff23f3" target="_top" xlink:title="This function sets the pin as input or output.">
<polygon fill="white" stroke="black" points="1061.5,-506.5 1061.5,-525.5 1192.5,-525.5 1192.5,-506.5 1061.5,-506.5"/>
<text text-anchor="middle" x="1127" y="-513.5" font-family="Helvetica,sans-Serif" font-size="10.00">buckGPIO_PrivateInitialize</text>
</a>
</g>
</g>
<!-- Node32&#45;&gt;Node34 -->
<g id="edge40" class="edge">
<title>Node32&#45;&gt;Node34</title>
<path fill="none" stroke="midnightblue" d="M989.93,-487.59C1014.38,-492.69 1044.63,-499.01 1070.4,-504.39"/>
<polygon fill="midnightblue" stroke="midnightblue" points="1069.9,-507.86 1080.4,-506.48 1071.33,-501.01 1069.9,-507.86"/>
</g>
<!-- Node33&#45;&gt;Node8 -->
<g id="edge39" class="edge">
<title>Node33&#45;&gt;Node8</title>
<path fill="none" stroke="midnightblue" d="M1171.72,-482.41C1189.66,-484.22 1211.08,-486.37 1231.86,-488.47"/>
<polygon fill="midnightblue" stroke="midnightblue" points="1231.7,-491.97 1242,-489.49 1232.4,-485.01 1231.7,-491.97"/>
</g>
<!-- Node34&#45;&gt;Node8 -->
<g id="edge41" class="edge">
<title>Node34&#45;&gt;Node8</title>
<path fill="none" stroke="midnightblue" d="M1192.61,-509.49C1205.26,-508.21 1218.71,-506.86 1231.9,-505.53"/>
<polygon fill="midnightblue" stroke="midnightblue" points="1232.33,-509 1241.92,-504.52 1231.62,-502.04 1232.33,-509"/>
</g>
<!-- Node35&#45;&gt;Node8 -->
<g id="edge43" class="edge">
<title>Node35&#45;&gt;Node8</title>
<path fill="none" stroke="midnightblue" d="M1012.24,-440.14C1065.5,-441.4 1141.1,-445.72 1206,-459 1233.23,-464.57 1262.97,-475.06 1284.73,-483.61"/>
<polygon fill="midnightblue" stroke="midnightblue" points="1283.54,-486.91 1294.12,-487.38 1286.14,-480.41 1283.54,-486.91"/>
</g>
<!-- Node36 -->
<g id="node36" class="node">
<title>Node36</title>
<g id="a_node36"><a xlink:href="a00366.html#gab66f225bac6b132d1418a4c808e3babb" target="_top" xlink:title="Disposes a given PWM generator by resetting all its registers to default.">
<polygon fill="white" stroke="black" points="1057,-381 1057,-411 1197,-411 1197,-381 1057,-381"/>
<text text-anchor="start" x="1065" y="-399" font-family="Helvetica,sans-Serif" font-size="10.00">p33c_PwmGenerator_Config</text>
<text text-anchor="middle" x="1127" y="-388" font-family="Helvetica,sans-Serif" font-size="10.00">Write</text>
</a>
</g>
</g>
<!-- Node35&#45;&gt;Node36 -->
<g id="edge44" class="edge">
<title>Node35&#45;&gt;Node36</title>
<path fill="none" stroke="midnightblue" d="M983.49,-430.45C1004.07,-425.48 1029.9,-419.23 1053.89,-413.43"/>
<polygon fill="midnightblue" stroke="midnightblue" points="1054.79,-416.82 1063.68,-411.07 1053.14,-410.01 1054.79,-416.82"/>
</g>
<!-- Node37 -->
<g id="node37" class="node">
<title>Node37</title>
<g id="a_node37"><a xlink:href="a00366.html#ga55e525c7ac54a365ab6dad558ec17f0b" target="_top" xlink:title="Returns the PWM generator index.">
<polygon fill="white" stroke="black" points="1048,-329.5 1048,-348.5 1206,-348.5 1206,-329.5 1048,-329.5"/>
<text text-anchor="middle" x="1127" y="-336.5" font-family="Helvetica,sans-Serif" font-size="10.00">p33c_PwmGenerator_GetHandle</text>
</a>
</g>
</g>
<!-- Node35&#45;&gt;Node37 -->
<g id="edge45" class="edge">
<title>Node35&#45;&gt;Node37</title>
<path fill="none" stroke="midnightblue" d="M993.32,-430.48C999.92,-428.01 1006.35,-424.9 1012,-421 1034.23,-405.63 1026.8,-388.75 1048,-372 1058.38,-363.8 1071.09,-357.29 1083.22,-352.29"/>
<polygon fill="midnightblue" stroke="midnightblue" points="1084.7,-355.47 1092.77,-348.6 1082.18,-348.94 1084.7,-355.47"/>
</g>
<!-- Node39 -->
<g id="node39" class="node">
<title>Node39</title>
<g id="a_node39"><a xlink:href="a00366.html#ga8075fd40f867be8f42bb806622bd91bd" target="_top" xlink:title="Writes a user&#45;defined configuration to the PWM base module registers.">
<polygon fill="white" stroke="black" points="1051,-246.5 1051,-265.5 1203,-265.5 1203,-246.5 1051,-246.5"/>
<text text-anchor="middle" x="1127" y="-253.5" font-family="Helvetica,sans-Serif" font-size="10.00">p33c_PwmModule_ConfigWrite</text>
</a>
</g>
</g>
<!-- Node38&#45;&gt;Node39 -->
<g id="edge47" class="edge">
<title>Node38&#45;&gt;Node39</title>
<path fill="none" stroke="midnightblue" d="M998.11,-278.49C1018.1,-274.97 1040.95,-270.95 1061.76,-267.3"/>
<polygon fill="midnightblue" stroke="midnightblue" points="1062.54,-270.71 1071.78,-265.53 1061.33,-263.82 1062.54,-270.71"/>
</g>
<!-- Node40 -->
<g id="node40" class="node">
<title>Node40</title>
<g id="a_node40"><a xlink:href="a00366.html#ga3ed5f08051a70f5cb426b8254119845f" target="_top" xlink:title="Gets pointer to PWM module SFR set.">
<polygon fill="white" stroke="black" points="1053.5,-284.5 1053.5,-303.5 1200.5,-303.5 1200.5,-284.5 1053.5,-284.5"/>
<text text-anchor="middle" x="1127" y="-291.5" font-family="Helvetica,sans-Serif" font-size="10.00">p33c_PwmModule_GetHandle</text>
</a>
</g>
</g>
<!-- Node38&#45;&gt;Node40 -->
<g id="edge48" class="edge">
<title>Node38&#45;&gt;Node40</title>
<path fill="none" stroke="midnightblue" d="M1010.22,-290.18C1020.96,-290.54 1032.2,-290.91 1043.27,-291.27"/>
<polygon fill="midnightblue" stroke="midnightblue" points="1043.26,-294.77 1053.37,-291.61 1043.49,-287.78 1043.26,-294.77"/>
</g>
<!-- Node42 -->
<g id="node42" class="node">
<title>Node42</title>
<g id="a_node42"><a xlink:href="a00496.html#gab089e35bcd5d68072aa53298ee276959" target="_top" xlink:title="This function enables the ADC module and starts the ADC cores analog inputs for the required input si...">
<polygon fill="white" stroke="black" points="726,-278.5 726,-297.5 810,-297.5 810,-278.5 726,-278.5"/>
<text text-anchor="middle" x="768" y="-285.5" font-family="Helvetica,sans-Serif" font-size="10.00">buckADC_Start</text>
</a>
</g>
</g>
<!-- Node41&#45;&gt;Node42 -->
<g id="edge50" class="edge">
<title>Node41&#45;&gt;Node42</title>
<path fill="none" stroke="midnightblue" d="M639.46,-313.44C663.17,-308.71 691.79,-303 715.92,-298.19"/>
<polygon fill="midnightblue" stroke="midnightblue" points="716.83,-301.57 725.95,-296.19 715.46,-294.71 716.83,-301.57"/>
</g>
<!-- Node43 -->
<g id="node43" class="node">
<title>Node43</title>
<g id="a_node43"><a xlink:href="a00496.html#gac63073d04bc35c0cce5df47ea0d33165" target="_top" xlink:title="This function enables the buck PWM operation.">
<polygon fill="white" stroke="black" points="723.5,-316.5 723.5,-335.5 812.5,-335.5 812.5,-316.5 723.5,-316.5"/>
<text text-anchor="middle" x="768" y="-323.5" font-family="Helvetica,sans-Serif" font-size="10.00">buckPWM_Start</text>
</a>
</g>
</g>
<!-- Node41&#45;&gt;Node43 -->
<g id="edge51" class="edge">
<title>Node41&#45;&gt;Node43</title>
<path fill="none" stroke="midnightblue" d="M652.39,-324.04C672.19,-324.38 694.02,-324.75 713.26,-325.08"/>
<polygon fill="midnightblue" stroke="midnightblue" points="713.3,-328.58 723.36,-325.25 713.42,-321.58 713.3,-328.58"/>
</g>
<!-- Node43&#45;&gt;Node37 -->
<g id="edge52" class="edge">
<title>Node43&#45;&gt;Node37</title>
<path fill="none" stroke="midnightblue" d="M812.78,-327.59C868.5,-329.62 966.1,-333.18 1037.58,-335.78"/>
<polygon fill="midnightblue" stroke="midnightblue" points="1037.81,-339.29 1047.93,-336.16 1038.06,-332.3 1037.81,-339.29"/>
</g>
<!-- Node45 -->
<g id="node45" class="node">
<title>Node45</title>
<g id="a_node45"><a xlink:href="a00457.html#ga3966fddf4ec29e64c6d51a93eee8706f" target="_top" xlink:title="Push button event raised at the &quot;pressed&quot; transition.">
<polygon fill="white" stroke="black" points="318,-88.5 318,-107.5 483,-107.5 483,-88.5 318,-88.5"/>
<text text-anchor="middle" x="400.5" y="-95.5" font-family="Helvetica,sans-Serif" font-size="10.00">appPushButton_EventButtonDown</text>
</a>
</g>
</g>
<!-- Node44&#45;&gt;Node45 -->
<g id="edge54" class="edge">
<title>Node44&#45;&gt;Node45</title>
<path fill="none" stroke="midnightblue" d="M280.69,-110.54C289.45,-109.62 298.61,-108.65 307.8,-107.68"/>
<polygon fill="midnightblue" stroke="midnightblue" points="308.18,-111.16 317.76,-106.63 307.45,-104.2 308.18,-111.16"/>
</g>
<!-- Node46 -->
<g id="node46" class="node">
<title>Node46</title>
<g id="a_node46"><a xlink:href="a00457.html#ga6192986e06dbca144461c0315a2a100f" target="_top" xlink:title="Push button event raised at the &quot;is long pressed&quot; detection.">
<polygon fill="white" stroke="black" points="330,-39 330,-69 471,-69 471,-39 330,-39"/>
<text text-anchor="start" x="338" y="-57" font-family="Helvetica,sans-Serif" font-size="10.00">appPushButton_EventButton</text>
<text text-anchor="middle" x="400.5" y="-46" font-family="Helvetica,sans-Serif" font-size="10.00">LongPress</text>
</a>
</g>
</g>
<!-- Node44&#45;&gt;Node46 -->
<g id="edge55" class="edge">
<title>Node44&#45;&gt;Node46</title>
<path fill="none" stroke="midnightblue" d="M255.28,-107.4C264.13,-104.68 273.5,-101.5 282,-98 298.73,-91.12 301.28,-85.91 318,-79 323.52,-76.72 329.33,-74.54 335.19,-72.48"/>
<polygon fill="midnightblue" stroke="midnightblue" points="336.72,-75.66 345.07,-69.13 334.48,-69.02 336.72,-75.66"/>
</g>
<!-- Node47 -->
<g id="node47" class="node">
<title>Node47</title>
<g id="a_node47"><a xlink:href="a00457.html#ga13f736396ad1222ff5cbe35947bd60ac" target="_top" xlink:title="Push button event raised at the &quot;not pressed&quot; transition.">
<polygon fill="white" stroke="black" points="324,-0.5 324,-19.5 477,-19.5 477,-0.5 324,-0.5"/>
<text text-anchor="middle" x="400.5" y="-7.5" font-family="Helvetica,sans-Serif" font-size="10.00">appPushButton_EventButtonUp</text>
</a>
</g>
</g>
<!-- Node44&#45;&gt;Node47 -->
<g id="edge56" class="edge">
<title>Node44&#45;&gt;Node47</title>
<path fill="none" stroke="midnightblue" d="M266.03,-107.48C271.78,-105.02 277.29,-101.91 282,-98 308.62,-75.92 290.66,-50.19 318,-29 320.31,-27.21 322.77,-25.58 325.33,-24.1"/>
<polygon fill="midnightblue" stroke="midnightblue" points="326.97,-27.19 334.38,-19.62 323.86,-20.92 326.97,-27.19"/>
</g>
<!-- Node48 -->
<g id="node48" class="node">
<title>Node48</title>
<g id="a_node48"><a xlink:href="a00460.html#gaa3ce9c320a37ebc6e1ae113c82e68747" target="_top" xlink:title="Initializes the push button device driver.">
<polygon fill="white" stroke="black" points="338,-126.5 338,-145.5 463,-145.5 463,-126.5 338,-126.5"/>
<text text-anchor="middle" x="400.5" y="-133.5" font-family="Helvetica,sans-Serif" font-size="10.00">drv_PushButton_Initialize</text>
</a>
</g>
</g>
<!-- Node44&#45;&gt;Node48 -->
<g id="edge57" class="edge">
<title>Node44&#45;&gt;Node48</title>
<path fill="none" stroke="midnightblue" d="M280.69,-123.46C295.82,-125.06 312.17,-126.78 327.76,-128.43"/>
<polygon fill="midnightblue" stroke="midnightblue" points="327.55,-131.93 337.87,-129.49 328.29,-124.96 327.55,-131.93"/>
</g>
</g>
</svg>
