<?xml version="1.0" encoding="UTF-8" standalone="no"?>
<!DOCTYPE svg PUBLIC "-//W3C//DTD SVG 1.1//EN"
 "http://www.w3.org/Graphics/SVG/1.1/DTD/svg11.dtd">
<!-- Generated by graphviz version 2.44.1 (20200629.0846)
 -->
<!-- Title: Device Driver Library Layer Pages: 1 -->
<svg width="263pt" height="197pt"
 viewBox="0.00 0.00 263.00 197.00" xmlns="http://www.w3.org/2000/svg" xmlns:xlink="http://www.w3.org/1999/xlink">
<g id="graph0" class="graph" transform="scale(1 1) rotate(0) translate(4 193)">
<title>Device Driver Library Layer</title>
<polygon fill="white" stroke="transparent" points="-4,4 -4,-193 259,-193 259,4 -4,4"/>
<!-- Node3 -->
<g id="node1" class="node">
<title>Node3</title>
<g id="a_node1"><a xlink:href="a00423.html" target="_top" xlink:title=" ">
<polygon fill="white" stroke="black" points="251,-189 144,-189 144,-170 251,-170 251,-189"/>
<text text-anchor="middle" x="197.5" y="-177" font-family="Helvetica,sans-Serif" font-size="10.00">Fault Handler Library</text>
</a>
</g>
</g>
<!-- Node4 -->
<g id="node2" class="node">
<title>Node4</title>
<g id="a_node2"><a xlink:href="a00439.html" target="_top" xlink:title=" ">
<polygon fill="white" stroke="black" points="245.5,-152 149.5,-152 149.5,-133 245.5,-133 245.5,-152"/>
<text text-anchor="middle" x="197.5" y="-140" font-family="Helvetica,sans-Serif" font-size="10.00">LC&#45;Display Library</text>
</a>
</g>
</g>
<!-- Node6 -->
<g id="node3" class="node">
<title>Node6</title>
<g id="a_node3"><a xlink:href="a00470.html" target="_top" xlink:title=" ">
<polygon fill="white" stroke="black" points="255,-115 140,-115 140,-96 255,-96 255,-115"/>
<text text-anchor="middle" x="197.5" y="-103" font-family="Helvetica,sans-Serif" font-size="10.00">Buck Converter Library</text>
</a>
</g>
</g>
<!-- Node5 -->
<g id="node4" class="node">
<title>Node5</title>
<g id="a_node4"><a xlink:href="a00459.html" target="_top" xlink:title=" ">
<polygon fill="white" stroke="black" points="249,-78 146,-78 146,-59 249,-59 249,-78"/>
<text text-anchor="middle" x="197.5" y="-66" font-family="Helvetica,sans-Serif" font-size="10.00">Push&#45;Button Library</text>
</a>
</g>
</g>
<!-- Node2 -->
<g id="node5" class="node">
<title>Node2</title>
<g id="a_node5"><a xlink:href="a00350.html" target="_top" xlink:title=" ">
<polygon fill="white" stroke="black" points="247,-41 148,-41 148,0 247,0 247,-41"/>
<text text-anchor="start" x="156" y="-29" font-family="Helvetica,sans-Serif" font-size="10.00">Peripheral Register</text>
<text text-anchor="start" x="156" y="-18" font-family="Helvetica,sans-Serif" font-size="10.00"> Abstraction Layer </text>
<text text-anchor="middle" x="197.5" y="-7" font-family="Helvetica,sans-Serif" font-size="10.00">(PRAL) Library</text>
</a>
</g>
</g>
<!-- Node1 -->
<g id="node6" class="node">
<title>Node1</title>
<g id="a_node6"><a xlink:title="Generic Device Driver Layer.">
<polygon fill="#bfbfbf" stroke="black" points="104,-120.5 0,-120.5 0,-90.5 104,-90.5 104,-120.5"/>
<text text-anchor="start" x="8" y="-108.5" font-family="Helvetica,sans-Serif" font-size="10.00">Device Driver Library</text>
<text text-anchor="middle" x="52" y="-97.5" font-family="Helvetica,sans-Serif" font-size="10.00"> Layer</text>
</a>
</g>
</g>
<!-- Node1&#45;&gt;Node3 -->
<g id="edge2" class="edge">
<title>Node1&#45;&gt;Node3</title>
<path fill="none" stroke="black" d="M81.79,-126.77C98.22,-138.2 119.57,-151.88 140,-161.5 146.8,-164.7 154.31,-167.54 161.59,-169.97"/>
<polygon fill="black" stroke="black" points="83.39,-123.61 73.2,-120.69 79.34,-129.33 83.39,-123.61"/>
</g>
<!-- Node1&#45;&gt;Node4 -->
<g id="edge3" class="edge">
<title>Node1&#45;&gt;Node4</title>
<path fill="none" stroke="black" d="M114.35,-121.32C129.68,-125.27 145.66,-129.39 159.41,-132.94"/>
<polygon fill="black" stroke="black" points="114.96,-117.86 104.4,-118.75 113.21,-124.64 114.96,-117.86"/>
</g>
<!-- Node1&#45;&gt;Node6 -->
<g id="edge5" class="edge">
<title>Node1&#45;&gt;Node6</title>
<path fill="none" stroke="black" d="M114.46,-105.5C122.81,-105.5 131.35,-105.5 139.62,-105.5"/>
<polygon fill="black" stroke="black" points="114.4,-102 104.4,-105.5 114.4,-109 114.4,-102"/>
</g>
<!-- Node1&#45;&gt;Node5 -->
<g id="edge4" class="edge">
<title>Node1&#45;&gt;Node5</title>
<path fill="none" stroke="black" d="M114.35,-89.68C129.68,-85.73 145.66,-81.61 159.41,-78.06"/>
<polygon fill="black" stroke="black" points="113.21,-86.36 104.4,-92.25 114.96,-93.14 113.21,-86.36"/>
</g>
<!-- Node1&#45;&gt;Node2 -->
<g id="edge1" class="edge">
<title>Node1&#45;&gt;Node2</title>
<path fill="none" stroke="black" d="M84.6,-84.71C100.96,-74.16 121.35,-61.32 140,-50.5 145.38,-47.38 151.11,-44.19 156.78,-41.1"/>
<polygon fill="black" stroke="black" points="82.46,-81.93 75.97,-90.31 86.27,-87.81 82.46,-81.93"/>
</g>
</g>
</svg>
